<?xml version="1.0" encoding="UTF-8" standalone="no"?>
<svg
   xmlns:dc="http://purl.org/dc/elements/1.1/"
   xmlns:cc="http://creativecommons.org/ns#"
   xmlns:rdf="http://www.w3.org/1999/02/22-rdf-syntax-ns#"
   xmlns:svg="http://www.w3.org/2000/svg"
   xmlns="http://www.w3.org/2000/svg"
   xmlns:sodipodi="http://sodipodi.sourceforge.net/DTD/sodipodi-0.dtd"
   xmlns:inkscape="http://www.inkscape.org/namespaces/inkscape"
   inkscape:export-ydpi="96"
   inkscape:export-xdpi="96"
   inkscape:export-filename="/home/ivan/settings-icon.png"
   sodipodi:docname="shortcut-icons.svg"
   inkscape:version="1.0 (4035a4fb49, 2020-05-01)"
   id="svg8"
   version="1.1"
   viewBox="0 0 210 297"
   height="1122.5197"
   width="793.70081">
  <defs
     id="defs2" />
  <sodipodi:namedview
     inkscape:guide-bbox="true"
     showguides="true"
     units="px"
     inkscape:window-maximized="1"
     inkscape:window-y="27"
     inkscape:window-x="0"
     inkscape:window-height="741"
     inkscape:window-width="1366"
     showgrid="false"
     inkscape:document-rotation="0"
     inkscape:current-layer="g1246"
     inkscape:document-units="px"
     inkscape:cy="220.3125"
     inkscape:cx="335.625"
     inkscape:zoom="1"
     inkscape:pageshadow="2"
     inkscape:pageopacity="0.0"
     borderopacity="1.0"
     bordercolor="#666666"
     pagecolor="#ffffff"
     id="base">
    <sodipodi:guide
       id="guide1111"
       orientation="0,-1"
       position="31.485416,292.76667" />
  </sodipodi:namedview>
  <metadata
     id="metadata5">
    <rdf:RDF>
      <cc:Work
         rdf:about="">
        <dc:format>image/svg+xml</dc:format>
        <dc:type
           rdf:resource="http://purl.org/dc/dcmitype/StillImage" />
        <dc:title></dc:title>
      </cc:Work>
    </rdf:RDF>
  </metadata>
  <g
     id="layer1"
     inkscape:groupmode="layer"
     inkscape:label="Layer 1">
    <g
       inkscape:export-ydpi="96"
       inkscape:export-xdpi="96"
       id="g1272">
      <rect
         style="fill:#ececec;stroke-width:0.0760076"
         id="rect908"
         width="50.799999"
         height="50.799999"
         x="4.5735121"
         y="4.3089285"
         inkscape:export-xdpi="96"
         inkscape:export-ydpi="96" />
      <g
         id="g906"
         transform="matrix(0.0541969,0,0,0.05420205,16.744345,16.478494)"
         inkscape:export-xdpi="96"
         inkscape:export-ydpi="96">
        <g
           id="g845">
	<g
   id="g843">
		<path
   id="path833"
   d="m 326.9,67.166 c 6.7,-14.5 13.5,-28.9 20.6,-44.2 -78.6,-33.1 -155.2,-31.5 -228.4,12.1 -70.8,42.1 -109.2,106.1 -119.1,188.5 16.8,1.5 32.7,2.9 48.6,4.2 8.7,-124.5 146.3,-220 278.3,-160.6 z" />

		<path
   id="path835"
   d="m 484.7,202.466 c -15.8,2.7 -31.5,5.5 -47.9,8.3 8.5,57 -3.3,108.4 -38.1,153.4 -34.6,44.8 -81,69.4 -137.7,75.7 1.4,16.1 2.8,31.8 4.1,47.5 118.7,-4.2 245.9,-123.4 219.6,-284.9 z" />

		<path
   id="path837"
   d="m 47.9,262.066 c -15.1,1.3 -30.8,2.7 -46.5,4 3.7,99.5 90.5,211.5 221.4,222.1 1.4,-16.1 2.8,-31.9 4.1,-47.2 -102.4,-17.1 -161.7,-76.4 -179,-178.9 z" />

		<path
   id="path839"
   d="m 398.9,125.566 c 12.2,15.8 21.6,33.2 28.9,52.4 15.2,-5.5 30.2,-11 45.9,-16.7 -18.1,-48.2 -47.6,-86.6 -89.5,-116.7 -9.3,13.3 -18.5,26.3 -28,39.9 16.2,11.9 30.6,25.4 42.7,41.1 z" />

		<path
   id="path841"
   d="m 267.2,384.166 v -19.1 c 16.3,-3.1 32.1,-9.6 46.3,-19.4 l 13.6,13.6 c 5.1,5 13.2,5 18.3,0 l 14.1,-14.1 c 5,-5.1 5,-13.2 0,-18.3 l -13.8,-13.8 c 9.6,-14.2 15.9,-30 18.9,-46.2 h 19.6 c 7.1,0 12.9,-5.8 12.9,-12.9 v -20 c 0,-7.1 -5.8,-12.9 -12.9,-12.9 h -19.7 c -3.1,-16.2 -9.5,-31.8 -19.1,-45.9 l 14,-14 c 5,-5.1 5,-13.2 0,-18.3 l -14.3,-14.2 c -5.1,-5 -13.2,-5 -18.3,0 l -14,14 c -14.1,-9.6 -29.8,-16 -46,-19.1 v -19.7 c 0,-7.1 -5.8,-12.9 -12.9,-12.9 h -20 c -7.1,0 -12.9,5.8 -12.9,12.9 v 19.6 c -16.2,3 -32,9.4 -46.2,19 l -13.7,-13.6 c -5.1,-5 -13.2,-5 -18.3,0 l -14.1,14.2 c -5,5.1 -5,13.2 0,18.3 l 13.6,13.6 c -9.8,14.2 -16.2,30 -19.3,46.3 h -19.1 c -7.1,0 -12.9,5.8 -12.9,12.9 v 20 c 0,7.1 5.8,12.9 12.9,12.9 h 19 c 3.1,16.4 9.5,32.3 19.2,46.5 l -13.2,13.5 c -5,5.1 -5,13.2 0,18.3 l 14.1,14.1 c 5.1,5 13.2,5 18.3,0 l 13.4,-13.4 c 14.3,9.7 30.2,16.1 46.6,19.2 v 19 c 0,7.1 5.8,12.9 12.9,12.9 h 20 c 7.2,-0.1 13,-5.9 13,-13 z m -70.2,-92.9 c -26,-26 -26.1,-68.2 -0.1,-94.2 26,-26 68.2,-26.1 94.2,-0.1 26,26 26.1,68.2 0.1,94.2 -25.9,26 -68.1,26.1 -94.2,0.1 z" />

	</g>

</g>
        <g
           id="g847">
</g>
        <g
           id="g849">
</g>
        <g
           id="g851">
</g>
        <g
           id="g853">
</g>
        <g
           id="g855">
</g>
        <g
           id="g857">
</g>
        <g
           id="g859">
</g>
        <g
           id="g861">
</g>
        <g
           id="g863">
</g>
        <g
           id="g865">
</g>
        <g
           id="g867">
</g>
        <g
           id="g869">
</g>
        <g
           id="g871">
</g>
        <g
           id="g873">
</g>
        <g
           id="g875">
</g>
      </g>
    </g>
    <g
       inkscape:export-ydpi="96"
       inkscape:export-xdpi="96"
       id="g1241">
      <rect
         inkscape:export-ydpi="96"
         inkscape:export-xdpi="96"
         y="4.2333217"
         x="60.325001"
         height="50.799999"
         width="50.799999"
         id="rect908-3"
         style="fill:#ececec;stroke-width:0.0760076" />
      <g
         inkscape:export-ydpi="96"
         inkscape:export-xdpi="96"
         id="g1022"
         transform="matrix(1.0025894,0,0,1.1315201,71.771657,15.056799)">
        <g
           id="g1070">
          <g
             id="g962">
	<g
   id="c14_house">
		
		<g
   id="g1074"
   transform="translate(0.72230561,-0.31325234)" />

		<g
   id="g1081">
  <path
     d="m 3.588,24.297 c 0,0 -0.024,0.59 0.553,0.59 0.718,0 6.652,-0.008 6.652,-0.008 l 0.01,-5.451 c 0,0 -0.094,-0.898 0.777,-0.898 h 2.761 c 1.031,0 0.968,0.898 0.968,0.898 l -0.012,5.434 c 0,0 5.628,0 6.512,0 0.732,0 0.699,-0.734 0.699,-0.734 V 14.076 L 13.33,5.913 3.588,14.077 c 0,0 0,10.22 0,10.22 z"
     id="path954"
     transform="translate(0.72230588,-0.31325237)" />
  <path
     d="m 0,13.317 c 0,0 0.826,1.524 2.631,0 L 13.412,4.196 23.519,13.26 c 2.088,1.506 2.871,0 2.871,0 L 13.412,1.504 Z"
     id="path956"
     transform="translate(0.72230588,-0.31325237)" />
  <polygon
     id="polygon958"
     points="23.273,9.525 23.273,4.175 20.674,4.175 20.685,7.328 " />
</g>

	</g>

	<g
   id="Capa_1_216_">
	</g>

</g>
        </g>
        <g
           id="g964">
</g>
        <g
           id="g966">
</g>
        <g
           id="g968">
</g>
        <g
           id="g970">
</g>
        <g
           id="g972">
</g>
        <g
           id="g974">
</g>
        <g
           id="g976">
</g>
        <g
           id="g978">
</g>
        <g
           id="g980">
</g>
        <g
           id="g982">
</g>
        <g
           id="g984">
</g>
        <g
           id="g986">
</g>
        <g
           id="g988">
</g>
        <g
           id="g990">
</g>
        <g
           id="g992">
</g>
      </g>
    </g>
    <g
       inkscape:export-ydpi="96"
       inkscape:export-xdpi="96"
       transform="matrix(0.37349817,0,0,0.37349817,128.19063,11.774133)"
       id="g1171">
      <g
         id="g1115">
	<g
   id="g1246">
  <g
     inkscape:export-ydpi="96"
     inkscape:export-xdpi="96"
     id="g1276">
    <rect
       inkscape:export-ydpi="96"
       inkscape:export-xdpi="96"
       y="4.2333217"
       x="120.65"
       height="50.799999"
       width="50.799999"
       id="rect908-3-6"
       style="fill:#ececec;stroke-width:0.0760076"
       transform="matrix(2.6773893,0,0,2.6773893,-343.21622,-31.523938)" />
    <path
       d="M 81.753897,12.39637 H 13.878343 c -0.817778,0 -1.481482,0.696331 -1.481482,1.554311 v 67.730638 c 0,0.857979 0.663704,1.55431 1.481482,1.55431 h 67.876295 c 0.817778,0 1.481481,-0.696331 1.481481,-1.55431 V 13.950681 c -7.4e-4,-0.858757 -0.664444,-1.554311 -1.482222,-1.554311 z m -50.389629,6.373451 c 4.02963,0 7.296296,3.426479 7.296296,7.654203 0,4.227725 -3.265925,7.655756 -7.296296,7.655756 -4.03037,0 -7.296296,-3.427255 -7.296296,-7.655756 0,-4.226948 3.266667,-7.654203 7.296296,-7.654203 z M 20.990935,39.038809 c 1.50963,-2.567722 5.385926,-3.79485 9.066667,-4.066855 0.433333,-0.03264 0.87037,0.972222 1.306666,1.105892 0.436296,-0.13367 0.873334,-1.138532 1.306667,-1.105892 3.680741,0.272782 7.557037,1.49991 9.066666,4.066855 0,0 5.225926,9.530254 0.827408,14.801699 H 31.364268 20.163528 c -4.398519,-5.271445 0.827407,-14.801699 0.827407,-14.801699 z m 55.528888,35.977626 c 0,0.643484 -0.497778,1.165733 -1.111111,1.165733 H 19.482787 c -0.613333,0 -1.111111,-0.522249 -1.111111,-1.165733 V 71.81067 c 0,-0.643485 0.497778,-1.165733 1.111111,-1.165733 h 55.925925 c 0.613333,0 1.111111,0.522248 1.111111,1.165733 z m 0,-11.657329 c 0,0.643484 -0.497778,1.165732 -1.111111,1.165732 H 19.482787 c -0.613333,0 -1.111111,-0.522248 -1.111111,-1.165732 v -3.205765 c 0,-0.643486 0.497778,-1.165733 1.111111,-1.165733 h 55.925925 c 0.613333,0 1.111111,0.522247 1.111111,1.165733 z m 0,-11.65733 c 0,0.643486 -0.497778,1.165733 -1.111111,1.165733 H 57.260564 c -0.613333,0 -1.111111,-0.522247 -1.111111,-1.165733 v -3.205765 c 0,-0.643485 0.497778,-1.165733 1.111111,-1.165733 h 18.148148 c 0.613333,0 1.111111,0.522248 1.111111,1.165733 z m 0,-11.657329 c 0,0.643485 -0.497778,1.165733 -1.111111,1.165733 H 57.260564 c -0.613333,0 -1.111111,-0.522248 -1.111111,-1.165733 v -3.205765 c 0,-0.643485 0.497778,-1.165733 1.111111,-1.165733 h 18.148148 c 0.613333,0 1.111111,0.522248 1.111111,1.165733 z m 0,-10.103018 c 0,0.643484 -0.497778,1.165733 -1.111111,1.165733 H 47.630935 c -0.613334,0 -1.111111,-0.522249 -1.111111,-1.165733 v -9.714441 c 0,-0.643485 0.497777,-1.165734 1.111111,-1.165734 h 27.777777 c 0.613333,0 1.111111,0.522249 1.111111,1.165734 z"
       id="path1113"
       style="stroke-width:0.75873" />
  </g>
</g>

</g>
      <g
         id="g1117">
</g>
      <g
         id="g1119">
</g>
      <g
         id="g1121">
</g>
      <g
         id="g1123">
</g>
      <g
         id="g1125">
</g>
      <g
         id="g1127">
</g>
      <g
         id="g1129">
</g>
      <g
         id="g1131">
</g>
      <g
         id="g1133">
</g>
      <g
         id="g1135">
</g>
      <g
         id="g1137">
</g>
      <g
         id="g1139">
</g>
      <g
         id="g1141">
</g>
      <g
         id="g1143">
</g>
      <g
         id="g1145">
</g>
    </g>
  </g>
</svg>
