<?xml version="1.0" encoding="utf-8"?>
<!-- Generator: Adobe Illustrator 25.2.3, SVG Export Plug-In . SVG Version: 6.00 Build 0)  -->
<svg version="1.1" xmlns="http://www.w3.org/2000/svg" xmlns:xlink="http://www.w3.org/1999/xlink" x="0px" y="0px"
	 viewBox="0 0 600 600" style="enable-background:new 0 0 600 600;" xml:space="preserve">
<style type="text/css">
	.st0{fill:#DE9244;}
	.st1{fill:#88C0C2;}
	.st2{fill:#FFFFFF;stroke:#262424;stroke-width:2;stroke-linecap:round;stroke-linejoin:round;stroke-miterlimit:10;}
	.st3{fill:#DE9244;stroke:#262424;stroke-width:2;stroke-linecap:round;stroke-linejoin:round;stroke-miterlimit:10;}
	.st4{fill:none;stroke:#262424;stroke-width:2;stroke-linecap:round;stroke-linejoin:round;stroke-miterlimit:10;}
	.st5{fill:#FFFFFF;}
	.st6{fill:#FFFFFF;stroke:#262424;stroke-width:1.5682398;stroke-linecap:round;stroke-linejoin:round;stroke-miterlimit:10;}
	.st7{fill:#262424;}
</style>
<g id="ORNAMENT">
	<g>
		<path class="st0" d="M521.819397,327.6127014c-2.8244629,0-5.3773804,1.1466675-7.2241821,2.9934387
			c-1.8527832,1.8468018-2.9934387,4.4057312-2.9934387,7.2241821c0-2.8184509-1.1406555-5.3773804-2.9934692-7.2241821
			c-1.8468018-1.8467712-4.3996887-2.9934387-7.2241821-2.9934387c2.8244934,0,5.3773804-1.146698,7.2241821-2.9934692
			c1.8528137-1.8467712,2.9934692-4.4057007,2.9934692-7.2241821c0,2.8184814,1.1406555,5.3774109,2.9934387,7.2241821
			C516.4420166,326.4660034,518.9949341,327.6127014,521.819397,327.6127014z"/>
		<path class="st1" d="M126.7481613,225.2207184c-2.7956772,0-5.3225708,1.1349792-7.1505127,2.9629211
			c-1.8339233,1.8279419-2.9629211,4.3607788-2.9629211,7.1505127c0-2.7897339-1.1290359-5.3225708-2.9629593-7.1505127
			c-1.8279495-1.8279419-4.354805-2.9629211-7.1505203-2.9629211c2.7957153,0,5.3225708-1.1350098,7.1505203-2.9629517
			c1.8339233-1.8279572,2.9629593-4.3607941,2.9629593-7.150528c0,2.7897339,1.1289978,5.3225708,2.9629211,7.150528
			C121.4255905,224.0857086,123.9524841,225.2207184,126.7481613,225.2207184z"/>
		<path class="st1" d="M391.3090515,288.4619446c-1.787384,0-3.4029541,0.725647-4.5716248,1.8943176
			c-1.1725159,1.1687012-1.8943481,2.7880249-1.8943481,4.5716553c0-1.7836304-0.7218323-3.4029541-1.8943481-4.5716553
			c-1.1686707-1.1686707-2.7842102-1.8943176-4.5716248-1.8943176c1.7874146,0,3.4029541-0.7256775,4.5716248-1.8943481
			c1.1725159-1.1687012,1.8943481-2.7880554,1.8943481-4.5716553c0,1.7835999,0.7218323,3.4029541,1.8943481,4.5716553
			C387.9060974,287.7362671,389.5216675,288.4619446,391.3090515,288.4619446z"/>
		<path class="st0" d="M88.2444382,310.2950134c-1.3909836,0-2.6482315,0.5646973-3.5577164,1.4741821
			c-0.912468,0.9095154-1.4741974,2.1697083-1.4741974,3.5577393c0-1.388031-0.5617447-2.6482239-1.4742126-3.5577393
			c-0.9094849-0.9094849-2.1667175-1.4741821-3.5577164-1.4741821c1.3909988,0,2.6482315-0.5647278,3.5577164-1.4742126
			c0.912468-0.9094849,1.4742126-2.1696777,1.4742126-3.5577087c0,1.388031,0.5617294,2.6482239,1.4741974,3.5577087
			C85.5962067,309.7302856,86.8534546,310.2950134,88.2444382,310.2950134z"/>
		<circle class="st1" cx="473.4266052" cy="286.2546387" r="2.2072902"/>
		<circle class="st0" cx="511.6017456" cy="538.8943481" r="3.1659524"/>
		<circle class="st1" cx="123.8111649" cy="400.5750427" r="4.789495"/>
	</g>
</g>
<g id="REPORT">
	<g>
		<g>
			<path class="st2" d="M490.0750122,333.3826904v212.1619873c0,6.1333618-4.9769592,11.1103516-11.1102905,11.1103516H172.9028473
				c-6.1333466,0-11.1003113-4.9769897-11.1003113-11.1103516V333.3826904c0-6.1333313,4.9669647-11.1103821,11.1003113-11.1103821
				h306.0618896C485.098053,322.2723083,490.0750122,327.2493591,490.0750122,333.3826904z"/>
			<path class="st3" d="M490.0750122,333.3826904v24.9655151H161.802536v-24.9655151
				c0-6.1333313,4.9669647-11.1103821,11.1003113-11.1103821h306.0618896
				C485.098053,322.2723083,490.0750122,327.2493591,490.0750122,333.3826904z"/>
			<g>
				<circle class="st2" cx="409.6784058" cy="340.791626" r="6.8092513"/>
				<circle class="st2" cx="434.0483704" cy="340.791626" r="6.8092513"/>
				<circle class="st2" cx="458.4183044" cy="340.791626" r="6.8092513"/>
			</g>
		</g>
		<g>
			<g>
				<g>
					<path class="st1" d="M193.1061554,434.3961792h-7.2013702c-1.7060699,0-3.0891113-1.3830566-3.0891113-3.0891113v-37.0664978
						c0-1.7060852,1.3830414-3.0891113,3.0891113-3.0891113h7.2013702c1.7060699,0,3.0891113,1.3830261,3.0891113,3.0891113
						v37.0664978C196.1952667,433.0131226,194.8122253,434.3961792,193.1061554,434.3961792z"/>
					<path class="st1" d="M214.8479767,434.3961792h-7.2013702c-1.7060699,0-3.0891113-1.3830566-3.0891113-3.0891113V413.354248
						c0-1.7060852,1.3830414-3.0891113,3.0891113-3.0891113h7.2013702c1.7060547,0,3.0890961,1.3830261,3.0890961,3.0891113
						v17.9528198C217.9370728,433.0131226,216.5540314,434.3961792,214.8479767,434.3961792z"/>
					<path class="st1" d="M236.5897827,434.3961792h-7.201355c-1.7060699,0-3.0891113-1.3830566-3.0891113-3.0891113V406.186615
						c0-1.7060852,1.3830414-3.0891113,3.0891113-3.0891113h7.201355c1.7060699,0,3.0891113,1.3830261,3.0891113,3.0891113
						v25.1204529C239.678894,433.0131226,238.2958527,434.3961792,236.5897827,434.3961792z"/>
				</g>
				<g>
					<path class="st4" d="M276.9484253,456.5504761v63.786377c0,2.7749634-2.242218,5.0172119-5.0173035,5.0172119h-85.0517883
						c-2.7750702,0-5.0172272-2.2422485-5.0172272-5.0172119v-63.786377c0-2.7750854,2.242157-5.0173035,5.0172272-5.0173035
						h85.0517883C274.7062073,451.5331726,276.9484253,453.7753906,276.9484253,456.5504761z"/>
					<path class="st0" d="M276.9484253,456.5504761v8.8379517h-95.086319v-8.8379517
						c0-2.7750854,2.242157-5.0173035,5.0172272-5.0173035h85.0517883
						C274.7062073,451.5331726,276.9484253,453.7753906,276.9484253,456.5504761z"/>
					<g>
						<line class="st4" x1="204.5574951" y1="469.9268494" x2="204.5574951" y2="520.578125"/>
						<line class="st4" x1="229.4052734" y1="469.9268494" x2="229.4052734" y2="520.578125"/>
						<line class="st4" x1="254.2530365" y1="469.9268494" x2="254.2530365" y2="520.578125"/>
					</g>
					<g>
						<line class="st4" x1="269.7830505" y1="482.8286438" x2="189.0276794" y2="482.8286438"/>
						<line class="st4" x1="269.7830505" y1="507.6764221" x2="189.0276794" y2="507.6764221"/>
					</g>
				</g>
				<g>
					<path class="st0" d="M324.8453369,509.1397705H291.473999c-2.1161804,0-3.8316956-1.7154846-3.8316956-3.831665v-0.0418396
						c0-2.1161804,1.7155151-3.8316956,3.8316956-3.8316956h33.3713379c2.1161804,0,3.831665,1.7155151,3.831665,3.8316956
						v0.0418396C328.677002,507.4242859,326.9615173,509.1397705,324.8453369,509.1397705z"/>
					<path class="st0" d="M312.4811707,525.3540649H291.473999c-2.1161804,0-3.8316956-1.7155151-3.8316956-3.831665v-0.0418701
						c0-2.1161499,1.7155151-3.831665,3.8316956-3.831665h21.0071716c2.1161804,0,3.831665,1.7155151,3.831665,3.831665v0.0418701
						C316.3128357,523.6385498,314.5973511,525.3540649,312.4811707,525.3540649z"/>
				</g>
				<g>
					<g>
						<path class="st2" d="M413.776947,430.2677307h52.0190125c2.263092,0,4.0916748,2.242218,4.0916748,5.0173035v85.0518188
							c0,2.7750244-1.8285828,5.0172119-4.0916748,5.0172119H413.776947c-2.2631226,0-4.0917053-2.2421875-4.0917053-5.0172119
							v-85.0518188C409.6852417,432.5099487,411.5138245,430.2677307,413.776947,430.2677307z"/>
						<line class="st2" x1="418.6419067" y1="501.4345398" x2="460.9309692" y2="501.4345398"/>
						<line class="st2" x1="418.6419067" y1="510.5434265" x2="460.9309692" y2="510.5434265"/>
						<g>
							<path class="st1" d="M439.7864075,443.2073669c-13.3551331,0-24.18927,10.834137-24.18927,24.1893311
								c0,13.362854,10.834137,24.1893005,24.18927,24.1893005c13.3551941,0,24.1893616-10.8264465,24.1893616-24.1893005
								C463.975769,454.0415039,453.1416016,443.2073669,439.7864075,443.2073669z M439.7864075,478.6175232
								c-6.1942444,0-11.2208252-5.0265503-11.2208252-11.2208252s5.0265808-11.2208252,11.2208252-11.2208252
								c6.1942749,0,11.2208252,5.0265503,11.2208252,11.2208252S445.9806824,478.6175232,439.7864075,478.6175232z"/>
							<path class="st0" d="M463.975769,467.396698h-12.9685364c0-6.1942749-5.0265503-11.2208252-11.2208252-11.2208252
								v-12.9685059C453.1416016,443.2073669,463.975769,454.0415039,463.975769,467.396698z"/>
						</g>
					</g>
					<g>
						<path class="st1" d="M470.0154419,401.1596375l-0.1307068,0.0502625v18.0178833
							c0,2.7750244-1.8299561,5.0172424-4.0922241,5.0172424h-52.0124817c-2.2622681,0-4.0921631-2.242218-4.0921631-5.0172424
							v-19.0736084l2.724762-1.0155029l20.9537964-7.7520752l15.1019897,5.5903625l7.1990967-2.6644897l14.2172241,5.2685852
							L470.0154419,401.1596375z"/>
						<path class="st0" d="M469.8847351,401.2098999v18.0178833c0,2.7750244-1.8299561,5.0172424-4.0922241,5.0172424h-52.0124817
							c-2.2622681,0-4.0921631-2.242218-4.0921631-5.0172424v-21.094574l2.724762,1.0054626l12.6487122,4.6854553
							l7.1990662-2.6644897l18.8724976,6.9879761L469.8847351,401.2098999z"/>
						<path class="st4" d="M409.6878357,396.5747681v1.5584717v2.0209656v19.0735779
							c0,2.7750549,1.8299561,5.0172424,4.0922241,5.0172424h52.0124207c2.2622986,0,4.0922241-2.2421875,4.0922241-5.0172424
							v-18.0178528v-1.6288452v-3.0063171"/>
						<circle class="st0" cx="433.3664246" cy="391.3865967" r="1.7426307"/>
						<circle class="st0" cx="448.4745789" cy="396.9801636" r="1.7426307"/>
						<circle class="st5" cx="425.0709534" cy="403.830658" r="1.7426307"/>
						<circle class="st5" cx="432.2609863" cy="401.1540222" r="1.7426307"/>
						<circle class="st5" cx="451.137146" cy="408.1476135" r="1.7426307"/>
						<circle class="st0" cx="455.6870117" cy="394.3221741" r="1.7426307"/>
					</g>
				</g>
			</g>
			<path class="st1" d="M324.2263489,381.8952332l-21.2348938,21.2348938
				c-0.8728638,0.8728943-0.9659119,2.2567139-0.2177124,3.2385559l50.8583679,66.7416077
				c0.7481995,0.9818726,0.6551819,2.3656616-0.2177124,3.2385559l-4.3476257,4.3476562
				c-0.9631042,0.9630737-0.9631042,2.5245667,0,3.4876404l14.3191833,14.3191833
				c0.736969,0.736969,0.9310608,1.857666,0.4849243,2.7995605l-2.5521851,5.3879089
				c-0.2973328,0.6277466-0.3161621,1.3517761-0.0518799,1.9941406l8.8119202,21.4155273
				c0.3803406,0.9243774,1.2810364,1.527771,2.2806091,1.527771l0,0c1.4953308,0,2.6465759-1.3200684,2.4432373-2.8015137
				l-1.8860168-13.7409668c-0.1426086-1.0390015,0.3875122-2.0545654,1.3215027-2.5316162l7.7268982-3.9464722
				c1.0571289-0.5399475,1.5796204-1.7563782,1.2434082-2.8948059l-2.4095459-8.1585999
				c-0.2558899-0.8664856-0.0175171-1.8034973,0.6213379-2.4423523l11.1863098-11.1863098
				c0.7742004-0.7742004,0.9452515-1.966095,0.420105-2.9267883l-9.4327698-17.2550659
				c-0.4324951-0.7911377-1.2622681-1.2832031-2.1639099-1.2832031h-26.4416199
				c-0.8158569,0-1.5789185-0.4035034-2.038208-1.0777893l-6.5380249-9.5983887
				c-0.6670227-0.9792175-0.543396-2.2943726,0.2943726-3.1321716l0.466156-0.4661255
				c0.7591553-0.7591553,1.9222412-0.9399719,2.8760071-0.4470825l8.8230286,4.5595093
				c1.1245117,0.5811157,2.5064087,0.2165222,3.197876-0.8437195l11.2963562-17.321106
				c0.5574646-0.8547668,0.5308838-1.9645691-0.066864-2.791687l-13.4025879-18.5454407
				c-0.609314-0.8431396-1.6821899-1.2132568-2.6817932-0.9251404l-8.1266174,2.3422546
				c-0.8625793,0.2486267-1.7920837,0.0089111-2.4268494-0.6258545l-2.4821777-2.4821777
				c-1.1492615-1.1492615-0.8919067-3.0766296,0.5186462-3.8840942l8.6434326-4.947876
				c1.1075439-0.6340027,1.5484314-2.0082092,1.01651-3.1682129l-5.3643799-11.6986084
				c-0.3187561-0.6951599-0.9419861-1.203125-1.6871643-1.375061l-20.7812805-4.7956848
				C325.6961975,381.0448914,324.8276062,381.2939758,324.2263489,381.8952332z"/>
		</g>
	</g>
</g>
<g id="PLANT">
	<g>
		<g>
			<g>
				<path class="st1" d="M130.2794647,494.0891113c-8.2237625,13.04422-16.5752563,21.2202759-16.5752563,21.2202759
					c-8.0973053-20.2700806-6.9654236-38.2923279-2.1567688-53.0892334
					c3.1917953-9.8386536,7.9973145-18.2421875,12.8095856-24.9333191
					c8.2141876-11.4412231,16.3987732-17.885437,16.3987732-17.885437
					c9.6480408,21.9852295,5.0119934,43.7350464-2.9533997,60.9390869
					C135.481369,485.346405,132.8900604,489.967926,130.2794647,494.0891113z"/>
				<path class="st5" d="M130.2794647,494.0891113c-4.1867752-21.2783203-8.1831741-13.1171265-14.3641434-21.976532
					c-2.1943741-3.1552124-3.5466003-6.6605835-4.3678818-9.8924255
					c3.1917953-9.8386536,7.9973145-18.2421875,12.8095856-24.9333191
					c-0.4988708,4.0028381-0.8944855,12.2200623,2.64888,19.4694519c4.7215424,9.6558228,9.8891449,2.3520813,10.7964935,23.584198
					C135.481369,485.346405,132.8900604,489.967926,130.2794647,494.0891113z"/>
				<path class="st4" d="M138.551651,426.8210449c0,0-13.0635757,54.9830322-23.6069794,82.4396362"/>
			</g>
			<g>
				<path class="st0" d="M117.2264557,484.8681946c-1.2438126,18.2118225-5.3548355,31.4222717-5.3548355,31.4222717
					c-19.8222427-16.5752869-28.7645187-35.9915771-32.0638885-54.1117859
					c-2.1995468-12.0452271-1.9114685-23.5012512-0.6546326-33.1766357
					c2.1341095-16.5360107,7.0438385-27.8480225,7.0438385-27.8480225
					c22.4015274,17.4916992,29.7857056,42.760437,31.1473846,65.1619568
					C117.7370911,472.8360901,117.6323242,479.1074219,117.2264557,484.8681946z"/>
				<path class="st5" d="M117.2264557,484.8681946c-16.3134308-19.8222351-15.894455-9.0731506-27.3111801-14.8339539
					c-4.0587616-2.055542-7.4365997-4.9489441-10.1075439-7.8555603
					c-2.1995468-12.0452271-1.9114685-23.5012512-0.6546326-33.1766357
					c1.728241,4.451416,5.9309998,13.2366028,13.6949081,18.8009644c10.3432007,7.4104004,11.6262512-3.1029358,24.496315,18.51297
					C117.7370911,472.8360901,117.6323242,479.1074219,117.2264557,484.8681946z"/>
				<path class="st4" d="M88.067131,410.1237488c0,0,17.2667007,64.6334839,21.7000427,99.1668701"/>
			</g>
		</g>
		<path class="st2" d="M145.2146606,508.120697c0,34.066925-12.6081085,48.5343323-12.6081085,48.5343323H91.5480347
			c0,0-12.6081924-14.4674072-12.6081924-48.5343323H145.2146606z"/>
	</g>
</g>
<g id="ORNAMENT_2">
	<g>
		<g>
			<polyline class="st4" points="171.1353149,131.3496552 160.8580933,141.6268921 148.7986755,141.6268921 			"/>
			<circle class="st0" cx="144.9669952" cy="141.6268921" r="3.8316832"/>
		</g>
		<path class="st1" d="M91.0412521,136.6516418h31.9307022c2.7477493,0,4.9752426,2.2274933,4.9752426,4.975235v0.0000153
			c0,2.747757-2.2274933,4.9752502-4.9752426,4.9752502H91.0412521c-2.7477493,0-4.9752426-2.2274933-4.9752426-4.9752502
			v-0.0000153C86.0660095,138.8791351,88.2935028,136.6516418,91.0412521,136.6516418z"/>
	</g>
</g>
<g id="PIE_CHART">
	<g>
		<g>
			<path class="st2" d="M406.9066162,60.2488403c-49.3325806,0-89.3529358,40.0203629-89.3529358,89.3531342
				c0,49.3611755,40.0203552,89.352951,89.3529358,89.352951c49.3327637,0,89.3531189-39.9917755,89.3531189-89.352951
				C496.2597351,100.2692032,456.2393799,60.2488403,406.9066162,60.2488403z M406.9066162,191.0506134
				c-22.881012,0-41.4486389-18.5676117-41.4486389-41.4486389s18.567627-41.4486465,41.4486389-41.4486465
				c22.8810425,0,41.4486389,18.5676041,41.4486389,41.4486465S429.7876587,191.0506134,406.9066162,191.0506134z"/>
			<path class="st0" d="M451.2541809,146.6021423c-1.4814453-22.1235428-19.2246094-39.8667068-41.3476562-41.3486404V63.2998886
				c45.2392578,1.550293,81.7519531,38.0629883,83.3017578,83.3022537H451.2541809z"/>
		</g>
		<g>
			<g>
				<polyline class="st4" points="433.0992432,58.5974236 443.3764954,48.3201942 455.4358826,48.3201942 				"/>
				<circle class="st0" cx="459.2675781" cy="48.3201942" r="3.8316832"/>
			</g>
			<path class="st1" d="M513.1932983,53.2954407h-31.9306946c-2.7477417,0-4.9752197-2.2274895-4.9752197-4.9752426v-0.0000076
				c0-2.7477531,2.227478-4.9752426,4.9752197-4.9752426h31.9306946c2.7477417,0,4.9752808,2.2274895,4.9752808,4.9752426v0.0000076
				C518.1685791,51.0679512,515.94104,53.2954407,513.1932983,53.2954407z"/>
		</g>
		<g>
			<g>
				<polyline class="st4" points="433.0992432,240.6063385 443.3764954,250.8835602 455.4358826,250.8835602 				"/>
				<circle class="st0" cx="459.2675781" cy="250.8835602" r="3.8316832"/>
			</g>
			<path class="st1" d="M513.1932983,245.9083252h-31.9306946c-2.7477417,0-4.9752197,2.227478-4.9752197,4.975235v0.0000153
				c0,2.7477417,2.227478,4.975235,4.9752197,4.975235h31.9306946c2.7477417,0,4.9752808-2.2274933,4.9752808-4.975235v-0.0000153
				C518.1685791,248.1358032,515.94104,245.9083252,513.1932983,245.9083252z"/>
		</g>
	</g>
</g>
<g id="ARROW">
	<polygon class="st0" points="200.8983612,167.6390533 200.8983612,182.859024 198.19841,180.1590118 181.69841,196.6590118 
		171.8683929,186.8290558 170.8683929,185.8290558 160.0283661,196.6590118 150.19841,186.8290558 161.0383759,175.9990387 
		170.8683929,166.1690216 181.69841,176.9990387 188.3683929,170.3290558 185.6783905,167.6390533 	"/>
</g>
<g id="CHART_1">
	<g>
		<path class="st1" d="M205.5944672,92.5842819l-0.1300049,0.0499878v17.9200439
			c0,2.7599487-1.8200073,4.9899902-4.0700073,4.9899902h-51.7300415c-2.25,0-4.0699463-2.2300415-4.0699463-4.9899902V91.5842819
			l2.7099609-1.0100098l20.8400269-7.7099609l15.0199585,5.5599976l7.1600342-2.6500244l14.1400146,5.2399902
			L205.5944672,92.5842819z"/>
		<path class="st0" d="M205.4644623,92.6342697v17.9200439c0,2.7599487-1.8200073,4.9899902-4.0700073,4.9899902h-51.7300415
			c-2.25,0-4.0699463-2.2300415-4.0699463-4.9899902V89.5742722l2.7099609,1l12.5800171,4.6600342l7.1599731-2.6500244
			l18.7700195,6.9500122L205.4644623,92.6342697z"/>
		<path class="st4" d="M145.5944366,88.0242996v1.5500031v2.0100021v18.9699936
			c0,2.7600021,1.8200073,4.9900055,4.0700073,4.9900055h51.7299957c2.25,0,4.0700073-2.2300034,4.0700073-4.9900055V92.6343002
			v-1.6200027v-2.9899979"/>
		<circle class="st0" cx="169.1444397" cy="82.8643036" r="1.7331684"/>
		<circle class="st0" cx="184.1705627" cy="88.4274902" r="1.7331684"/>
		<circle class="st5" cx="160.8940125" cy="95.240799" r="1.7331684"/>
		<circle class="st5" cx="168.0449982" cy="92.5786743" r="1.7331684"/>
		<circle class="st5" cx="186.8186798" cy="99.5343018" r="1.7331684"/>
		<circle class="st0" cx="191.3438263" cy="85.7839203" r="1.7331684"/>
	</g>
</g>
<g id="RIGHT_ARM">
	<g>
		<g>
			<path class="st0" d="M242.3612213,245.0420074c-0.3696899,1.1835938-0.7412415,2.2723541-1.1145477,3.2662659
				c-0.4603729,1.23909-0.9404144,2.4405975-1.4246521,3.5884094c-2.8428802,6.6864777-9.7533569,10.6986237-16.971756,9.826828
				c-0.868576-0.1036377-1.7192688-0.2646179-2.5366058-0.4989319
				c-8.8381653-2.3939819-14.4809418-11.3957672-12.4485168-20.6193237l2.1702728-15.384552
				c0,0,16.493927-63.79953,20.0198059-72.2272339c3.6534729-8.7326813,13.9074097-14.4528656,13.9074097-14.4528656
				c10.4266205,9.9198151,12.1613617,23.835022,8.9218903,49.2657776
				C251.701004,197.0960541,247.4578094,228.7924805,242.3612213,245.0420074z"/>
			<path class="st5" d="M242.3612213,245.0420074c-0.3696899,1.1835938-0.7412415,2.2723541-1.1145477,3.2662659
				c-0.4603729,1.23909-0.9404144,2.4405975-1.4246521,3.5884094c-2.8428802,6.6864777-9.7139893,10.8576202-16.9323883,9.9858246
				c-0.8685913-0.1036682-1.7192688-0.2646179-2.5366211-0.4989624c-0.7490082-2.6331177-0.8048553-5.6572876,0.071701-8.4635773
				c2.4060669-7.7029877,10.5985413-11.9956207,18.3110199-9.5865936
				C240.0529785,243.744812,241.2658539,244.3227234,242.3612213,245.0420074z"/>
		</g>
	</g>
</g>
<g id="RIGHT_THIGH">
	<g>
		<path class="st1" d="M301.0469055,281.250885l-5.549408,28.2207947
			c-1.6079407,8.1769104-8.7767639,14.0733337-17.1102905,14.0733337h-60.6768494
			c-11.2507477,0-19.9998016-9.7860718-18.7447815-20.9666138v-0.0000305
			c0.9853973-8.7784729,7.931076-15.6972961,16.7132874-16.6486816l45.4472351-2.2037964v-18.254364h39.9208069V281.250885z"/>
		<g>
			<path class="st4" d="M288.4528198,273.4486694l-4.7697144,26.0290222
				c-0.8146362,4.4454041-4.6888123,7.6741943-9.208252,7.6741943h-42.1027985"/>
			<path class="st6" d="M280.4237976,273.4486694l-2.7597656,15.9146118
				c-0.4459839,2.571991,0.6920776,5.1608887,2.8886719,6.571167l3.3818054,2.1712341"/>
		</g>
	</g>
</g>
<g id="RIGHT_CALF">
	<g>
		<g>
			<g>
				<g>
					<polygon class="st2" points="237.73909,389.7911377 253.7395935,422.9520569 266.3544922,416.0849609 253.2584839,381.1005554 
											"/>
				</g>
			</g>
			<g>
				<path class="st1" d="M261.0317078,493.6408386l5.2683105,3.6222534l44.7676086-65.1114197
					c0,0-2.6040649-2.1011353-7.0881348-5.4828796c-8.8181458-6.6604004-23.7848816-17.6385803-41.5207214-28.0524902
					l-17.6190338,18.4919739c0,0,6.2956238,30.5950012,9.8294373,56.3971252
					c0.3670654,2.6780701,0.632782,5.4178162,0.7621765,8.195343
					C255.6806183,487.0341492,257.6077881,491.2867432,261.0317078,493.6408386z"/>
				<path class="st4" d="M261.0317078,493.6408386l5.2683105,3.6222534l44.7676086-65.1114197
					c0,0-2.6040649-2.1011353-7.0881348-5.4828796c-8.8181458-6.6604004-23.7848816-17.6385803-41.5207214-28.0524902
					l-17.6190338,18.4919739c0,0,6.2956238,30.5950012,9.8294373,56.3971252
					c0.3670654,2.6780701,0.632782,5.4178162,0.7621765,8.195343
					C255.6806183,487.0341492,257.6077881,491.2867432,261.0317078,493.6408386z"/>
				<line class="st4" x1="257.3115234" y1="411.9648132" x2="266.2555847" y2="454.1847839"/>
				<g>
					
						<ellipse transform="matrix(0.5665587 -0.8240213 0.8240213 0.5665587 -229.6284943 415.2060852)" class="st5" cx="279.862854" cy="425.8780212" rx="7.0155001" ry="7.8097973"/>
				</g>
				<g>
					<path class="st2" d="M261.0317078,493.6408386l5.2683105,3.6222534l44.7676086-65.1114197
						c0,0-2.6040649-2.1011353-7.0881348-5.4828796l-23.6333923,34.3731689c0,0-16.8235168-8.3299255-25.6769257,12.4634399
						c0.3670654,2.6780701,0.632782,5.4178162,0.7621765,8.195343
						C255.6806183,487.0341492,257.6077881,491.2867432,261.0317078,493.6408386z"/>
				</g>
			</g>
		</g>
		<g>
			<path class="st1" d="M235.4586639,301.5480042l23.4933014,85.4508972l-23.9539185,10.2793884l-40.919632-73.9827271
				l-1.3766174-2.4849854l-0.7586823-1.3783264c-3.7715912-6.8323059-4.2180328-15.1121826-0.8121033-22.1353455
				c1.3000488-2.6951904,3.2013855-5.3597107,5.9385986-7.6688843c0.5024567-0.4283752,1.0314941-0.8395691,1.5949097-1.2399292
				c0.895874-0.6411438,1.8651733-1.2386169,2.9141388-1.7846069c5.9739075-3.1476746,11.4944-3.4072571,16.1946411-2.355835
				C226.408371,286.1950378,233.1191559,293.0168457,235.4586639,301.5480042z"/>
			<polyline class="st4" points="236.6472168,307.151886 223.0710449,307.151886 246.8710175,377.6060181 			"/>
			<line class="st4" x1="234.4215546" y1="390.2932739" x2="255.005722" y2="382.0924683"/>
			<path class="st2" d="M212.3389587,295.0239258c6.1290131,7.6469116,4.8913879,18.8144836-2.7476959,24.9372253
				c-4.5335236,3.6336365-10.2969971,4.6774292-15.5128479,3.3344116l-1.3766174-2.4849854l-0.7586823-1.3783264
				c-3.7715912-6.8323059-4.2180328-15.1121826-0.8121033-22.1353455c1.3000488-2.6951904,3.2013855-5.3597107,5.9385986-7.6688843
				c0.5024567-0.4283752,1.0314941-0.8395691,1.5949097-1.2399292
				C203.8027039,288.434906,208.8804321,290.7088623,212.3389587,295.0239258z"/>
		</g>
	</g>
</g>
<g id="LEFT_THIGH">
	<g>
		<path class="st1" d="M343.8175964,281.250885l-5.549408,28.2207947
			c-1.6079407,8.1769104-8.7767334,14.0733337-17.11026,14.0733337H285.585083
			c-11.2507629,0-19.9997864-9.7860718-18.7447815-20.9666138v-0.0000305
			c0.9853821-8.7784729,7.9310608-15.6972961,16.7132874-16.6486816l20.3432312-2.2037964v-18.254364h39.9207764V281.250885z"/>
		<g>
			<path class="st4" d="M331.2235413,273.4486694l-4.7697449,26.0290222
				c-0.8146057,4.4454041-4.6888123,7.6741943-9.2082214,7.6741943h-18.2483521"/>
			<path class="st4" d="M323.194519,273.4486694l-2.7597656,15.9146118c-0.4460144,2.571991,0.6920776,5.1608887,2.8886719,6.571167
				l3.3818054,2.1712341"/>
		</g>
	</g>
</g>
<g id="LEFT_CALF">
	<g>
		<g>
			<g>
				<g>
					<polygon class="st2" points="254.3139038,389.4870911 246.0598907,425.3693237 260.197998,427.9003906 
						271.8588257,392.4118042 					"/>
				</g>
			</g>
			<g>
				<path class="st1" d="M207.5404816,485.0881042l1.8454742,6.1213074l75.6532898-22.808197
					c0,0-0.717865-3.2681274-2.1017761-8.7112732c-2.7153015-10.7120056-7.5279541-28.6386108-14.854187-47.8566895
					l-25.3131561,3.4101257c0,0-14.2219391,27.8105164-27.6014099,50.1539307
					c-1.3884735,2.3192444-2.8945923,4.6232605-4.5307159,6.87146
					C207.4969482,476.5863037,206.3411102,481.1098633,207.5404816,485.0881042z"/>
				<path class="st4" d="M207.5404816,485.0881042l1.8454742,6.1213074l75.6532898-22.808197
					c0,0-0.717865-3.2681274-2.1017761-8.7112732c-2.7153015-10.7120056-7.5279541-28.6386108-14.854187-47.8566895
					l-25.3131561,3.4101257c0,0-14.2219391,27.8105164-27.6014099,50.1539307
					c-1.3884735,2.3192444-2.8945923,4.6232605-4.5307159,6.87146
					C207.4969482,476.5863037,206.3411102,481.1098633,207.5404816,485.0881042z"/>
				<line class="st4" x1="255.7185974" y1="419.0299072" x2="236.2928467" y2="457.5677185"/>
				<g>
					
						<ellipse transform="matrix(0.9574346 -0.2886502 0.2886502 0.9574346 -116.8944626 95.2794495)" class="st5" cx="264.6138611" cy="443.9901733" rx="7.0155001" ry="7.8097973"/>
				</g>
				<g>
					<path class="st2" d="M207.5404816,485.0881042l1.8454742,6.1213074l75.6532898-22.808197
						c0,0-0.717865-3.2681274-2.1017761-8.7112732l-39.9383698,12.040741c0,0-7.9177399-17.0213623-27.8303833-6.333374
						c-1.3884735,2.3192444-2.8945923,4.6232605-4.5307159,6.87146
						C207.4969482,476.5863037,206.3411102,481.1098633,207.5404816,485.0881042z"/>
				</g>
			</g>
		</g>
		<g>
			<path class="st1" d="M307.7225647,319.2050476l-35.1100464,81.3699951l-25.1199799-6.960022l14.3400116-83.3200073
				l0.4799805-2.7999878l0.2700195-1.5499878c1.3300171-7.6900024,6.1599731-14.4299927,13.2099609-17.7800293
				c2.7000122-1.289978,5.8500366-2.1799927,9.4300537-2.2699585c0.6599731-0.0200195,1.3299561-0.0100098,2.0199585,0.0299683
				c1.1000366,0.0599976,2.2300415,0.2000122,3.3900146,0.4299927c6.6300049,1.2800293,11.0999756,4.5300293,14.1099854,8.2900391
				C310.2625427,301.565033,311.2325134,311.0850525,307.7225647,319.2050476z"/>
			<line class="st4" x1="248.0514984" y1="390.3672791" x2="252.0467834" y2="367.1533813"/>
			<polyline class="st4" points="309.6746216,307.151886 297.7185974,307.151886 268.8212891,386.3450317 			"/>
			<line class="st4" x1="252.8671112" y1="387.5314941" x2="273.1839294" y2="393.0550537"/>
			<path class="st2" d="M293.7625427,299.6550598c0,9.7999878-7.9500122,17.7399902-17.7399902,17.7399902
				c-5.8099976,0-10.960022-2.7900391-14.1900024-7.1000366l0.4799805-2.7999878l0.2700195-1.5499878
				c1.3300171-7.6900024,6.1599731-14.4299927,13.2099609-17.7800293c2.7000122-1.289978,5.8500366-2.1799927,9.4300537-2.2699585
				c0.6599731-0.0200195,1.3299561-0.0100098,2.0199585,0.0299683
				C291.2225647,289.1750183,293.7625427,294.1250305,293.7625427,299.6550598z"/>
			<line class="st6" x1="261.83255" y1="310.2950134" x2="259.6750183" y2="322.8309631"/>
		</g>
	</g>
</g>
<g id="BODY">
	<g>
		<path class="st0" d="M337.3904419,137.5066223c0,0-31.0581665-16.1222839-52.3683777-13.4331284
			s-41.059433,14.4671097-41.059433,14.4671097c-13.4328613,38.0963287-12.9856873,148.5237274-12.9856873,148.5237274
			s23.8397827,6.3638916,88.2777863,3.0306396l0.9671021-16.4354858c0.0742493-1.2620239,1.130188-2.2411499,2.3942261-2.2200623
			l0,0c1.3092957,0.0218506,2.3501892,1.105957,2.3189087,2.4150391l-0.3906555,16.3316345
			c9.7399597-0.0017395,21.7846375-1.1252136,21.7846375-1.1252136
			C348.4998779,220.0910034,337.3904419,137.5066223,337.3904419,137.5066223z"/>
		<path class="st4" d="M242.3569946,143.6582642c-11.790802,41.976532-11.3800507,143.4060669-11.3800507,143.4060669"/>
		<g>
			<path class="st2" d="M308.6474609,131.9669647c-3.1702881,9.2364197-10.1229553,13.4039917-14.536438,15.1641083
				c-1.6438599-6.2920837-5.4527588-14.0731354-5.4527588-14.0731354
				c-3.1885986,5.1670074-4.5804749,11.7866364-4.8205566,14.7771606
				c-11.760437-2.2972565-13.9103699-13.2746582-13.9103699-13.2746582
				c0.5688782-11.2057419,9.48349-20.2842331,17.696167-20.6245346
				C305.7759399,113.1837463,308.6474609,131.9669647,308.6474609,131.9669647z"/>
		</g>
	</g>
</g>
<g id="LEFT_UPPER_ARM">
	<g>
		<path class="st0" d="M367.3925476,241.0750427c0,1.2399902-0.0300293,2.3900146-0.0900269,3.4500122
			c-0.0700073,1.3200073-0.1699829,2.6099854-0.289978,3.8499756c-0.7200317,7.2299805-6.1199951,13.1199951-13.2700195,14.4400024
			c-0.8599854,0.1600342-1.7199707,0.2600098-2.5700073,0.2800293c-9.1499634,0.3499756-17.2199707-6.5599976-18.0299683-15.9700317
			l-0.8200073-9.5c0,0-2.5100098-74.710022-2.1900024-83.8399658c0.3099976-9.1200562,7.2600098-16.2800293,7.2600098-16.2800293
			c12.9099731,6.3599854,18.4899902,20.5599976,22.9799805,45.7999878
			C362.0125427,192.5250549,367.4125671,224.0450134,367.3925476,241.0750427z"/>
		<path class="st4" d="M332.2725525,236.2650452c-0.3300171-10.1600342-2.4299927-74.0800171-2.1400146-82.4799805
			c0.2041016-6.0041656,3.2861023-11.1587982,5.3682251-13.9801331"/>
		<path class="st5" d="M367.3925476,241.0750427c0,1.2399902-0.0300293,2.3900146-0.0900269,3.4500122
			c-0.0700073,1.3200073-0.1699829,2.6099854-0.289978,3.8499756c-0.7200317,7.2299805-6.0350037,13.2600098-13.1850281,14.5800171
			c-0.8599854,0.1600342-1.7199707,0.2600098-2.5700073,0.2800293c-1.5-2.2900391-2.4549866-5.1600342-2.4549866-8.1000366
			c0-8.0700073,6.5400391-14.6099854,14.6199951-14.6099854
			C364.8025208,240.5250549,366.1325378,240.7150574,367.3925476,241.0750427z"/>
	</g>
</g>
<g id="LEFT_ARM">
	<g>
		<g>
			<path class="st0" d="M366.5770264,250.8864288c-2.3981018,7.3497467-8.6616821,12.7765961-16.1844177,14.5593109
				c-0.0362549,0.0085754-0.0725098,0.0171814-0.1087646,0.0257874c-0.2431335,0.0604858-0.4960632,0.1184387-0.7391968,0.1789246
				c-16.3661194,4.01297-62.7843323,11.253479-62.7843323,11.253479
				c-11.9518738-7.184845-7.1793823-21.0590057-7.1793823-21.0590057l61.9874878-28.5362701
				c13.1040649-6.3226166,25.6203003,2.5393524,26.1595764,15.5068665
				C367.8430786,245.3739777,367.4885254,248.0928192,366.5770264,250.8864288z"/>
			<path class="st4" d="M338.4341125,268.0304871c-20.2537231,3.9724121-51.6737976,8.8734436-51.6737976,8.8734436
				c-11.9518738-7.184845-7.1793823-21.0590057-7.1793823-21.0590057l61.9874878-28.5362701"/>
			<path class="st5" d="M350.3926086,265.4457397l-0.1087646,0.0257874
				c-2.9994507-3.5123901-4.2794495-8.3841553-3.0255432-13.183075
				c2.0401001-7.8078766,10.0210571-12.4820862,17.8385315-10.4394379c0.9191589,0.2401581,1.8058777,0.5648346,2.6311646,0.966507
				c0.1150818,2.5584564-0.2394714,5.277298-1.1509705,8.0709076
				C364.1789246,258.2361755,357.9153442,263.6630249,350.3926086,265.4457397z"/>
			<path class="st4" d="M367.7279968,242.8155212c0.1150818,2.5584564-0.2394714,5.277298-1.1509705,8.0709076
				c-2.3981018,7.3497467-8.6616821,12.7765961-16.1844177,14.5593109l-0.1087646,0.0257874"/>
		</g>
		<g>
			<path class="st2" d="M282.5456543,257.9474182c0,0,7.8839722,6.8581238,5.7906799,15.9690857l-11.8742371,8.4437256
				l-5.4785767,8.3863831c-0.5748291,0.8799133-1.6347656,1.3114624-2.6607361,1.083313l-11.0335388-2.4536133
				c-1.4961395-0.3327026-2.3527527-1.9112549-1.8162842-3.3469543l4.3592834-11.6665039l-6.8691101,9.9431763
				c-0.9096069,1.3166809-2.7992706,1.4651794-3.9033661,0.3067322l0,0
				c-0.664917-0.6976318-0.8744812-1.7130432-0.5400696-2.6169128l5.7121124-15.4395752
				c0.6955566-1.8800354,2.3120117-3.2680969,4.2756348-3.6714172L282.5456543,257.9474182z"/>
		</g>
		<g>
			<circle class="st5" cx="293.7316895" cy="270.879364" r="2.2275319"/>
		</g>
	</g>
</g>
<g id="NECK">
	<g>
		<g>
			<path class="st2" d="M296.5354004,90.7611847l0.5449829,11.1537933l0.9352112,19.0795364
				c-6.0675354,4.9605255-12.2608032,5.903656-18.6103516,1.8445816l0.211853-8.912056l0.3211365-13.4980927L296.5354004,90.7611847
				z"/>
		</g>
		<path class="st7" d="M290.803772,94.0996628c0.2918396,5.0354538,2.046814,22.1249237-11.3094788,24.993187l0.4439392-18.6639023
			L290.803772,94.0996628z"/>
	</g>
</g>
<g id="HEAD">
	<g>
		<g>
			<g>
				<path class="st5" d="M262.8751221,94.6775284c1.9074097,9.0307007,5.7357788,19.6644058,16.5072021,16.7813797
					c12.8042908-3.4285736,20.2289734-13.5445099,19.0102234-25.9498901s-7.6869202-18.7766724-22.3739929-15.7535782
					c-1.310791,0.2698822-2.5319519,0.6309433-3.665863,1.0705948
					c-8.2904053,3.2235794-11.8210449,10.7646332-10.3917236,19.0101547
					C262.2191162,91.3264389,262.5106812,92.974472,262.8751221,94.6775284z"/>
			</g>
			<g>
				<path class="st4" d="M298.3925476,85.5090179c-1.21875-12.4053802-7.6869202-18.7766724-22.3739929-15.7535782
					c-1.310791,0.2698822-2.5319519,0.6309433-3.665863,1.0705948
					c-8.2904053,3.2235794-11.8210449,10.7646332-10.3917236,19.0101547
					c0.2581482,1.4902496,0.5497131,3.1382828,0.9141541,4.8413391c1.9074097,9.0307007,5.7357788,19.6644058,16.5072021,16.7813797
					c4.4257202-1.1850662,8.2087708-3.169075,11.2142944-5.7704163"/>
			</g>
			<path class="st7" d="M302.5194397,87.419281c0,0-1.5636292,2.9700317-3.6630249,5.5470428l-6.5240173,1.1172256
				l-1.902832-4.4979172c0,0-4.1880493,0.2647476-5.3538513-2.4549637c0,0-0.0301819-0.0588074-0.0758362-0.191185
				c-0.3196411-0.8975372-1.617218-4.9154205-1.6852112-11.3682022c0,0-9.5410156,5.5055313-14.9337769,6.66996
				c-1.9385681,0.4200134-4.3108521-0.0864639-6.5569763-0.9100876c-4.496521-1.648819-8.977951-8.2009201-8.7420807-12.9843979
				c0.0015106-0.0305634,0.0031281-0.061142,0.0048828-0.0917282c0.4280548-7.0191956,4.5354462-2.6321716,4.5354462-2.6321716
				s0.4276733-5.6605797,3.8604126-6.4351501c3.4474487-0.7747307,6.2015076,4.1139259,6.2015076,4.1139259
				s9.0694275-3.5414124,20.2686157-3.0491333c13.6602783,0.6004639,11.3163757,10.2181358,11.3163757,10.2181358
				S309.4958496,72.5779877,302.5194397,87.419281z"/>
			<g>
				<path class="st5" d="M293.6833801,93.2224045c-1.1225891-5.116333,1.9967957-10.3178406,7.1061096-11.4720154
					c1.0398254-0.2348938,2.1463928-0.3022995,3.3012695-0.1205978c6.5992126,1.0383072,6.5293579,16.1515732-9.2850342,16.7079239
					L293.6833801,93.2224045z"/>
			</g>
			<g>
				<path class="st4" d="M293.6833801,93.2224045c-1.1225891-5.116333,1.9967957-10.3178406,7.1061096-11.4720154
					c1.0398254-0.2348938,2.1463928-0.3022995,3.3012695-0.1205978c6.5992126,1.0383072,6.5293579,16.1515732-9.2850342,16.7079239"
					/>
			</g>
		</g>
	</g>
</g>
<g id="LAPTOP">
	<g>
		<path class="st2" d="M312.9613342,282.9142456h-27.9282227c-2.6465759,0-4.7920227,2.1454773-4.7920227,4.7920227l0,0
			c0,2.6465759,2.1454468,4.7920227,4.7920227,4.7920227h27.9282227c2.6465454,0,4.7920227-2.1454468,4.7920227-4.7920227l0,0
			C317.7533569,285.0597229,315.6078796,282.9142456,312.9613342,282.9142456z"/>
		<path class="st2" d="M280.2410889,292.498291h-91.9604034c-2.7611389,0-5.3539124-2.2383423-5.7911072-4.9994812
			l-10.6637878-67.3475494c-0.4371948-2.7611389,1.4467316-4.9994965,4.2078857-4.9994965h91.9604034
			c2.7611389,0,5.3539124,2.2383575,5.7911072,4.9994965l10.6637878,67.3475494
			C284.8861694,290.2599487,283.0022278,292.498291,280.2410889,292.498291z"/>
	</g>
</g>
</svg>
