<svg id="FEMALE_EMPLOYEE" data-name="FEMALE EMPLOYEE" xmlns="http://www.w3.org/2000/svg" xmlns:xlink="http://www.w3.org/1999/xlink" viewBox="0 0 1600 1400"><defs><style>.cls-1{fill:none;}.cls-2{fill:#fff;}.cls-3{fill:#262424;}.cls-4{fill:#de9244;}.cls-5{clip-path:url(#clip-path);}.cls-6{fill:#88c0c2;}.cls-7{clip-path:url(#clip-path-2);}.cls-8{fill:#87bfc1;}.cls-9{fill:#dd9144;}</style><clipPath id="clip-path"><path class="cls-1" d="M837.54,648.85a25.72,25.72,0,0,0-25.6,22.07L761.86,1007a25.87,25.87,0,0,0,25.59,29.69h470.14a26,26,0,0,0,25.6-22.07l50.08-336.08a25.88,25.88,0,0,0-25.6-29.69H837.54Zm497.72,30h0Z"/></clipPath><clipPath id="clip-path-2"><path class="cls-1" d="M837.54,131.83a25.72,25.72,0,0,0-25.6,22.07L761.86,490a25.87,25.87,0,0,0,25.59,29.69h470.14a26,26,0,0,0,25.6-22.07l50.08-336.08a25.88,25.88,0,0,0-25.6-29.69H837.54Zm497.72,30h0Z"/></clipPath></defs><title>Team Meeting</title><path class="cls-2" d="M1335.26,678.84l-7.1,47.63-43,288.45a27.89,27.89,0,0,1-27.59,23.79H787.44a27.88,27.88,0,0,1-27.58-32l41.76-280.23,8.32-55.85a27.89,27.89,0,0,1,27.59-23.79h470.13A27.89,27.89,0,0,1,1335.26,678.84Z"/><path class="cls-3" d="M1257.58,1040.72H787.44a29.9,29.9,0,0,1-29.57-34.32L808,670.32a30.1,30.1,0,0,1,29.59-25.5h470.13a29.91,29.91,0,0,1,29.59,34.32l-50.08,336.08A30.1,30.1,0,0,1,1257.58,1040.72Zm-420-391.87a26,26,0,0,0-25.6,22.07L761.86,1007a25.87,25.87,0,0,0,25.59,29.69h470.14a26,26,0,0,0,25.6-22.07l50.08-336.08a25.88,25.88,0,0,0-25.6-29.69H837.54Zm497.72,30h0Z"/><path class="cls-4" d="M1333.55,674.67a25.4,25.4,0,0,1-.29,3.87l-7.09,47.63,0,0.3H803.66l8.28-55.55a25.88,25.88,0,0,1,25.6-22.07h470.13A25.9,25.9,0,0,1,1333.55,674.67Z"/><circle class="cls-2" cx="866.44" cy="686.65" r="11.62"/><circle class="cls-2" cx="922.35" cy="686.65" r="11.62"/><circle class="cls-2" cx="978.27" cy="686.65" r="11.62"/><g class="cls-5"><path class="cls-3" d="M1031.73,895.35c-52.95-2.32-57-27.24-46.57-64.73-7.91-12.29-17-27.23-8.91-55.33,7.5-26.21,55.54-55.75,92-22.23h0c0.84,0.23,27.72,8.06,28.21,58.26C1097,862.33,1091.33,898,1031.73,895.35Z"/><path class="cls-6" d="M977,990c-6.85,26.72-14.17,56-25.57,80.83-14.55,23.56-46.79,60.2-68.93,56.17-28.84-5.24-10-76.48-5.5-93.5,0.21-.8,29.22-50.5,43.22-89.5s48.28-50.4,48.28-50.4S992.5,929.5,977,990Z"/><path class="cls-6" d="M1138.33,904s-54.27-38.14-169.83-10.4c0,0-43,56.56-44.7,114.24-0.43,14.58,7.91,41.7,7.7,58.5a983.24,983.24,0,0,1-11.28,134.24l240.41,7.75S1174.51,1071.1,1138.33,904Z"/><path class="cls-3" d="M931.13,1084.85h-0.06a2,2,0,0,1-2-2.08c0.18-5.57.3-11.11,0.37-16.47,0.1-8.33-2-19.43-4-30.17s-3.93-21-3.71-28.37c1.35-45.83,28.41-90.87,40-108.11a2,2,0,0,1,3.35,2.25c-11.38,16.95-38,61.19-39.3,106-0.21,7,1.66,16.94,3.64,27.51,2,10.93,4.17,22.23,4.06,31-0.07,5.39-.19,11-0.37,16.54A2,2,0,0,1,931.13,1084.85Z"/><path class="cls-3" d="M1150.17,1193.51h0l-214.2-5a2,2,0,1,1,.09-4l214.2,5A2,2,0,0,1,1150.17,1193.51Z"/><path class="cls-2" d="M1076.2,893.4A52.7,52.7,0,0,1,1043,923.22c-2.48-13.6-9.31-30.71-9.31-30.71-7.59,10.44-11.6,24.26-12.59,30.56-24.57-6.75-27.37-30.37-27.37-30.37,3-23.67,23.35-41.49,40.82-40.89C1073.12,853.11,1076.2,893.4,1076.2,893.4Z"/><path class="cls-3" d="M1043,925.23a2,2,0,0,1-2-1.66c-1.74-9.55-5.71-21-7.82-26.71a79.85,79.85,0,0,0-10.09,26.51,2,2,0,0,1-2.53,1.63c-25.58-7-28.8-31.83-28.83-32.08a2,2,0,0,1,0-.49c3.28-25.88,25.25-43.29,42.89-42.65,39.95,1.36,43.6,43,43.63,43.46a2,2,0,0,1-.16.95,55,55,0,0,1-34.5,31A2,2,0,0,1,1043,925.23Zm-9.31-34.74,0.25,0a2,2,0,0,1,1.62,1.25c0.27,0.67,6.22,15.65,9,28.81a50.77,50.77,0,0,0,29.66-27.5c-0.49-4.66-5.19-38.08-39.7-39.25-15.82-.52-35.68,16-38.72,38.87,0.36,2.43,3.72,21.12,23.76,27.79,1.43-6.84,5.33-19.25,12.53-29.16A2,2,0,0,1,1033.65,890.49Z"/><path class="cls-2" d="M1057.12,804.09l-0.63,23.73-1.07,40.6c-13.66,9.55-26.94,10.55-39.75.93l1.88-18.86,2.84-28.57Z"/><path class="cls-3" d="M1034.21,878.11q-10.22,0-19.75-7.14a2,2,0,0,1-.79-1.81l4.72-47.43a2,2,0,0,1,1.13-1.61l36.74-17.84a2,2,0,0,1,2.9,1.87l-1.7,64.33a2,2,0,0,1-.86,1.6C1048.91,875.44,1041.44,878.11,1034.21,878.11Zm-16.42-9.7c11.16,7.91,22.84,7.56,35.64-1.06l1.59-60-32.74,15.9Z"/><path class="cls-2" d="M989,808.47c1.3,19.58,6.16,43.11,29.7,40.28,28-3.37,46.65-22.43,47.81-48.91S1056,758,1024.2,760a48.69,48.69,0,0,0-8,1.15c-18.42,4.29-28.12,19.1-27.59,36.89C988.67,801.22,988.79,804.78,989,808.47Z"/><path class="cls-3" d="M1015,851a22.61,22.61,0,0,1-14.88-5.06c-10.08-8.36-12.3-25.31-13.1-37.34-0.26-3.73-.37-7.25-0.47-10.54-0.58-19.68,10.58-34.59,29.14-38.91a2,2,0,0,1,.92,3.93c-16.58,3.86-26.55,17.22-26,34.87,0.1,3.25.21,6.72,0.46,10.39,0.75,11.29,2.77,27.14,11.65,34.51,4.12,3.42,9.28,4.7,15.8,3.91a56.6,56.6,0,0,0,27.83-10.82,2,2,0,1,1,2.46,3.2,60.63,60.63,0,0,1-29.8,11.63A33.39,33.39,0,0,1,1015,851Z"/><path class="cls-3" d="M993.69,767.33s2.34,43.67,60.66,44c0,0,34.65-10.67,23-44S1008.39,726,993.69,767.33Z"/><path class="cls-2" d="M854.75,937S844,864.33,843.67,860s7.67-17.33,25.33-18.67,21.67,4.67,21.67,10.33,2.67,26.67,2.67,26.67-0.67-26.67-.33-30.67,10.33-6.33,11,.33,3.33,54.33,3.33,54.33,23-7,29-7.33,5.33,9.33,2.33,11-54.17,38-54.17,38Z"/><path class="cls-3" d="M884.5,946A2.06,2.06,0,0,1,884,946l-29.75-7a2,2,0,0,1-1.53-1.67c-0.44-3-10.76-72.79-11.1-77.14-0.21-2.65,1.54-6.48,4.55-10s10.23-9.91,22.64-10.84c9.76-.73,16.64.67,20.43,4.19a10.47,10.47,0,0,1,2,2.59c1.1-2.67,4.56-4.29,7.68-4.32h0.08c3.84,0,6.55,2.35,6.91,6,0.58,5.82,2.63,41.8,3.2,51.87,6.16-1.83,22-6.4,27-6.68a6,6,0,0,1,6.32,4.67c1,3.46,0,8.51-2.89,10.1-2.13,1.18-33.45,23.3-54,37.88A2,2,0,0,1,884.5,946Zm-28-10.67,27.53,6.48c7.84-5.57,50.71-36,53.61-37.59,0.73-.4,1.64-3.18,1-5.46-0.47-1.64-1.39-1.81-2.22-1.77-4.72.26-22.19,5.32-28.52,7.25a2,2,0,0,1-2.6-1.82c0-.48-2.67-47.7-3.33-54.24-0.06-.59-0.24-2.39-2.9-2.39h0c-2.1,0-4,1.25-4,2-0.26,3.08.11,21.26,0.34,30.45a2,2,0,0,1-4,.3c-0.11-.86-2.68-21.19-2.68-26.92a6.7,6.7,0,0,0-2.11-5.2c-2.89-2.68-8.91-3.76-17.39-3.12-11,.83-17.16,6.27-19.88,9.45s-3.67,6-3.59,7.05C845.93,863.15,852.78,909.89,856.54,935.35Z"/><path class="cls-6" d="M851.5,931.25l39,10.75s4,72,7,102,3.5,78.5-15,83-65.35-21.14-57.5-67C837.5,987,851.5,931.25,851.5,931.25Z"/><path class="cls-3" d="M894.2,1115.53a2,2,0,0,1-1.9-2.7c7.29-20.36,4.29-57.68,3.19-68.64l-3.3-42a2,2,0,0,1,4-.32l3.3,42c1.43,14.27,4,49.78-3.41,70.36A2,2,0,0,1,894.2,1115.53Z"/><path class="cls-3" d="M885.75,965.51a2,2,0,0,1-.5-0.06l-34.5-8.75a2,2,0,1,1,1-3.91l34.5,8.75A2,2,0,0,1,885.75,965.51Z"/><circle class="cls-2" cx="861.14" cy="944.64" r="5.52"/><path class="cls-3" d="M861.14,952.17a7.53,7.53,0,1,1,7.53-7.53A7.54,7.54,0,0,1,861.14,952.17Zm0-11a3.5,3.5,0,1,0,3.5,3.5A3.5,3.5,0,0,0,861.14,941.14Z"/><path class="cls-6" d="M1138.33,904s68.24,34.1,62.24,304.09h-88.24S1113.41,1028.7,1107,986C1099,932.66,1121.67,905.33,1138.33,904Z"/><path class="cls-3" d="M1112.4,1174.68a2,2,0,0,1-2-2c-0.05-56.58-.82-156-5.37-186.37-6.86-45.72,8.27-72.21,23.31-81a2,2,0,1,1,2,3.48c-15.06,8.81-27.5,36-21.36,76.94,4.59,30.6,5.37,130.27,5.42,187a2,2,0,0,1-2,2h0Z"/><path class="cls-2" d="M1054.33,814.67c-0.82-11.11,7.3-21.12,18.41-22a18.55,18.55,0,0,1,7,.74c13.58,4.17,8.89,36-24.57,32.38Z"/><path class="cls-3" d="M1060.16,828.07a48.73,48.73,0,0,1-5.22-.29,2,2,0,0,1,.43-4c18.67,2,27.35-7.31,29.11-15.88,1.22-6-1-11.23-5.35-12.56a16.56,16.56,0,0,0-6.23-.66,18.38,18.38,0,0,0-16.56,19.85,2,2,0,0,1-4,.3c-0.92-12.35,8.17-23.2,20.25-24.17a20.58,20.58,0,0,1,7.74.82c6.35,1.95,9.76,9.19,8.11,17.23C1086.36,818.74,1076.89,828.07,1060.16,828.07Z"/></g><circle class="cls-4" cx="1203.15" cy="959.35" r="51.24"/><path class="cls-2" d="M1216.12,972.32s-13.65,13.65-30.38,16.9a7.09,7.09,0,0,1-6.21-2.14l-5.44-5.44c-2.62-2.62-3-6.47-.86-8.61l6.29-6.29c2.14-2.14,6-1.75,8.61.86l3,3a19,19,0,0,0,5.2-1.52,30.39,30.39,0,0,0,16.56-16.56,19,19,0,0,0,1.52-5.2l-3-3c-2.62-2.62-3-6.47-.87-8.61l6.29-6.29c2.14-2.14,6-1.75,8.61.87l5.44,5.44a7.09,7.09,0,0,1,2.14,6.21C1229.77,958.68,1216.12,972.32,1216.12,972.32Z"/><path class="cls-2" d="M1335.26,161.82l-7.1,47.63-43,288.45a27.89,27.89,0,0,1-27.59,23.79H787.44a27.88,27.88,0,0,1-27.58-32l41.76-280.23,8.32-55.85a27.89,27.89,0,0,1,27.59-23.79h470.13A27.89,27.89,0,0,1,1335.26,161.82Z"/><path class="cls-3" d="M1257.58,523.7H787.44a29.9,29.9,0,0,1-29.57-34.32L808,153.3a30.09,30.09,0,0,1,29.59-25.5h470.13a29.91,29.91,0,0,1,29.59,34.32L1287.17,498.2A30.1,30.1,0,0,1,1257.58,523.7Zm-420-391.87a25.72,25.72,0,0,0-25.6,22.07L761.86,490a25.87,25.87,0,0,0,25.59,29.69h470.14a26,26,0,0,0,25.6-22.07l50.08-336.08a25.88,25.88,0,0,0-25.6-29.69H837.54Zm497.72,30h0Z"/><path class="cls-6" d="M1333.55,157.65a25.4,25.4,0,0,1-.29,3.87l-7.09,47.63,0,0.3H803.66l8.28-55.55a25.88,25.88,0,0,1,25.6-22.07h470.13A25.9,25.9,0,0,1,1333.55,157.65Z"/><circle class="cls-2" cx="866.44" cy="169.63" r="11.62"/><circle class="cls-2" cx="922.35" cy="169.63" r="11.62"/><circle class="cls-2" cx="978.27" cy="169.63" r="11.62"/><g class="cls-7"><path class="cls-4" d="M980.13,472c-6.85,26.72-14.17,56-25.57,80.83C940,576.39,907.77,613,885.63,609c-28.84-5.24-10-76.48-5.5-93.5,0.21-.8,24.5-57.5,38.5-96.5s40.28-43.4,40.28-43.4S995.63,411.5,980.13,472Z"/><path class="cls-4" d="M1141.47,386s-67-38.14-182.56-10.4c0,0-31.64,29.76-30.17,104.66,1.52,77.43-5.39,202.32-5.39,202.32l240.41,7.75S1177.64,553.11,1141.47,386Z"/><path class="cls-3" d="M1153.3,675.51h0l-214.2-5a2,2,0,0,1,0-4h0l214.2,5A2,2,0,0,1,1153.3,675.51Z"/><path class="cls-3" d="M928.13,565.35h0a2,2,0,0,1-2-2.05L928.21,448a2,2,0,0,1,0-.2c4.37-36.77,17.12-58.3,24.32-67.86a2,2,0,0,1,3.22,2.43c-7,9.23-19.26,30-23.53,65.81l-2.09,115.18A2,2,0,0,1,928.13,565.35Z"/><path class="cls-2" d="M1079.33,375.4a52.7,52.7,0,0,1-33.25,29.82c-2.48-13.6-9.31-30.71-9.31-30.71-7.59,10.44-11.6,24.26-12.59,30.56-24.57-6.75-27.37-30.37-27.37-30.37,3-23.67,23.35-41.49,40.82-40.89C1076.25,335.12,1079.33,375.4,1079.33,375.4Z"/><path class="cls-3" d="M1046.09,407.24a2,2,0,0,1-2-1.65c-1.74-9.55-5.71-21-7.82-26.71a79.84,79.84,0,0,0-10.09,26.51,2,2,0,0,1-2.53,1.63c-25.58-7-28.8-31.83-28.83-32.08a2,2,0,0,1,0-.49c3.28-25.88,25.25-43.24,42.89-42.65,39.95,1.36,43.6,43,43.63,43.46a2,2,0,0,1-.16,1,55,55,0,0,1-34.5,30.95A2,2,0,0,1,1046.09,407.24Zm-9.31-34.74,0.25,0a2,2,0,0,1,1.62,1.25c0.27,0.67,6.22,15.65,9,28.81a50.76,50.76,0,0,0,29.66-27.51c-0.49-4.66-5.19-38.08-39.7-39.25h-0.76c-15.69,0-35,16.33-38,38.89,0.36,2.43,3.72,21.12,23.76,27.79,1.43-6.84,5.33-19.25,12.53-29.16A2,2,0,0,1,1036.78,372.49Z"/><path class="cls-2" d="M1060.25,286.1l-0.63,23.73-1.07,40.6c-13.66,9.55-26.94,10.55-39.75.93l1.88-18.86,2.84-28.57Z"/><path class="cls-3" d="M1037.34,360.12q-10.22,0-19.75-7.14a2,2,0,0,1-.79-1.81l4.72-47.43a2,2,0,0,1,1.13-1.61l36.74-17.84a2,2,0,0,1,2.9,1.87l-1.7,64.33a2,2,0,0,1-.86,1.6C1052,357.44,1044.57,360.12,1037.34,360.12Zm-16.42-9.7c11.16,7.91,22.84,7.56,35.64-1.06l1.59-60-32.74,15.9Z"/><path class="cls-2" d="M992.18,290.48c1.3,19.58,6.16,43.11,29.7,40.28,28-3.37,46.65-22.43,47.81-48.91S1059.15,240,1027.33,242a48.69,48.69,0,0,0-8,1.15c-18.42,4.29-28.12,19.1-27.59,36.89C991.8,283.23,991.92,286.78,992.18,290.48Z"/><path class="cls-3" d="M1018.15,333a22.6,22.6,0,0,1-14.88-5.06c-10.08-8.36-12.3-25.31-13.1-37.34-0.26-3.73-.37-7.25-0.47-10.54-0.59-19.68,10.58-34.59,29.14-38.91a2,2,0,1,1,.92,3.93c-16.58,3.86-26.56,17.22-26,34.87,0.1,3.25.21,6.73,0.46,10.39,0.75,11.29,2.77,27.14,11.65,34.51,4.12,3.41,9.28,4.69,15.79,3.91a56.6,56.6,0,0,0,27.83-10.82,2,2,0,1,1,2.46,3.2,60.62,60.62,0,0,1-29.8,11.63A33.19,33.19,0,0,1,1018.15,333Z"/><path class="cls-3" d="M1077.8,287.12a81.41,81.41,0,0,1-9.38,10.57l-14.07.39-2.65-10s-8.89-.7-10.53-6.78a3.48,3.48,0,0,1-.1-0.43c-0.4-2-1.93-10.83-.13-24.43,0,0-21.74,8.72-33.44,9.55-4.21.3-9-1.48-13.53-3.89-9-4.82-16.43-20-14.5-30l0-.19c3-14.65,10.34-4.18,10.34-4.18s2.6-11.79,10.06-12.38,11.82,10.52,11.82,10.52a117.08,117.08,0,0,1,43.58-.33c28.57,5.37,20.75,24.91,20.75,24.91S1096.95,258,1077.8,287.12Z"/><path class="cls-2" d="M1057.46,296.68c-0.82-11.11,7.3-21.12,18.41-22a18.55,18.55,0,0,1,7,.74c13.58,4.17,8.89,36-24.57,32.38Z"/><path class="cls-3" d="M1063.29,310.07a49.12,49.12,0,0,1-5.22-.29,2,2,0,1,1,.43-4c18.66,2,27.34-7.31,29.1-15.88,1.22-6-1-11.23-5.35-12.56a16.61,16.61,0,0,0-6.23-.66,18.38,18.38,0,0,0-16.56,19.85,2,2,0,1,1-4,.3c-0.92-12.35,8.17-23.2,20.25-24.17a20.6,20.6,0,0,1,7.74.82c6.35,1.95,9.76,9.19,8.11,17.23C1089.49,300.74,1080,310.07,1063.29,310.07Z"/><path class="cls-2" d="M857.88,419s-10.75-72.67-11.08-77,7.67-17.33,25.33-18.67S893.8,328,893.8,333.67s2.67,26.67,2.67,26.67-0.67-26.67-.33-30.67,10.33-6.33,11,.33,3.33,54.33,3.33,54.33,23-7,29-7.33,5.33,9.33,2.33,11-54.17,38-54.17,38Z"/><path class="cls-3" d="M887.63,428a2,2,0,0,1-.46-0.05l-29.75-7a2,2,0,0,1-1.53-1.67c-0.44-3-10.76-72.79-11.1-77.14-0.21-2.65,1.54-6.48,4.55-10s10.23-9.91,22.64-10.84c9.77-.74,16.64.67,20.43,4.19a10.49,10.49,0,0,1,2,2.59c1.1-2.67,4.56-4.29,7.68-4.32a6.5,6.5,0,0,1,7,6c0.58,5.82,2.63,41.8,3.2,51.87,6.16-1.83,22-6.4,27-6.68a6,6,0,0,1,6.32,4.67c1,3.46,0,8.51-2.89,10.1-2.13,1.18-33.45,23.3-54,37.88A2,2,0,0,1,887.63,428Zm-28-10.67,27.53,6.48c7.84-5.57,50.71-36,53.61-37.59,0.73-.4,1.64-3.18,1-5.46-0.47-1.64-1.39-1.81-2.22-1.77-4.72.26-22.19,5.32-28.53,7.25a2,2,0,0,1-2.6-1.82c0-.48-2.67-47.7-3.33-54.25-0.06-.59-0.24-2.39-2.9-2.39h0c-2.1,0-4,1.25-4,2-0.26,3.08.11,21.26,0.34,30.45a2,2,0,0,1-4,.3c-0.11-.86-2.68-21.19-2.68-26.92a6.7,6.7,0,0,0-2.11-5.2c-2.89-2.68-8.91-3.76-17.39-3.12-11,.83-17.16,6.27-19.88,9.45s-3.67,6-3.59,7.05C849.06,345.16,855.91,391.9,859.68,417.35Z"/><path class="cls-4" d="M854.63,413.25l39,10.75s4,72,7,102,3.5,78.5-15,83-65.35-21.14-57.5-67C840.63,469,854.63,413.25,854.63,413.25Z"/><path class="cls-3" d="M897.33,597.53a2,2,0,0,1-1.9-2.7c7.29-20.35,4.29-57.68,3.19-68.64l-3.3-42a2,2,0,1,1,4-.32l3.3,42c1.43,14.27,4,49.78-3.41,70.36A2,2,0,0,1,897.33,597.53Z"/><path class="cls-3" d="M888.88,447.52a2,2,0,0,1-.5-0.06l-34.5-8.75a2,2,0,0,1,1-3.91l34.5,8.75A2,2,0,0,1,888.88,447.52Z"/><circle class="cls-2" cx="864.27" cy="426.64" r="5.52"/><path class="cls-3" d="M864.27,434.18a7.53,7.53,0,1,1,7.53-7.53A7.54,7.54,0,0,1,864.27,434.18Zm0-11a3.5,3.5,0,1,0,3.5,3.5A3.5,3.5,0,0,0,864.27,423.14Z"/><path class="cls-4" d="M1141.47,386s68.24,34.1,62.24,304.09h-88.24s1.07-179.38-5.33-222.09C1102.13,414.67,1124.8,387.33,1141.47,386Z"/><path class="cls-3" d="M1115.53,656.68a2,2,0,0,1-2-2c-0.05-56.58-.82-156-5.37-186.37-6.86-45.72,8.27-72.21,23.31-81a2,2,0,0,1,2,3.48c-15.06,8.81-27.5,36-21.36,76.94,4.59,30.6,5.37,130.27,5.42,187a2,2,0,0,1-2,2h0Z"/></g><circle class="cls-6" cx="1203.15" cy="442.33" r="51.24"/><path class="cls-2" d="M1216.12,455.3s-13.65,13.65-30.38,16.9a7.09,7.09,0,0,1-6.21-2.14l-5.44-5.44c-2.62-2.62-3-6.47-.86-8.61l6.29-6.29c2.14-2.14,6-1.75,8.61.86l3,3a19,19,0,0,0,5.2-1.52,30.39,30.39,0,0,0,16.56-16.56,19,19,0,0,0,1.52-5.2l-3-3c-2.62-2.62-3-6.47-.87-8.61l6.29-6.29c2.14-2.14,6-1.75,8.61.87l5.44,5.44a7.09,7.09,0,0,1,2.14,6.21C1229.77,441.66,1216.12,455.3,1216.12,455.3Z"/><path class="cls-4" d="M602.22,638.5v60.3a20.28,20.28,0,0,0,20.28,20.28H708L723.88,735a2.27,2.27,0,0,0,3.88-1.61V719.08h16.85a20.28,20.28,0,0,0,20.28-20.28V638.5a20.28,20.28,0,0,0-20.28-20.28H622.49A20.28,20.28,0,0,0,602.22,638.5Z"/><rect class="cls-2" x="623.6" y="648.02" width="119.89" height="12.74" rx="6.37" ry="6.37" transform="translate(1367.1 1308.78) rotate(-180)"/><rect class="cls-2" x="691.74" y="676.54" width="51.75" height="12.74" rx="6.37" ry="6.37" transform="translate(1435.24 1365.82) rotate(-180)"/><path class="cls-6" d="M517.5,148.05v91.54a30.78,30.78,0,0,0,30.78,30.78H678l24.16,24.16a3.45,3.45,0,0,0,5.89-2.44V270.37h25.58a30.78,30.78,0,0,0,30.78-30.78V148.05a30.78,30.78,0,0,0-30.78-30.79H548.28A30.78,30.78,0,0,0,517.5,148.05Z"/><path class="cls-4" d="M739.57,109.79v91.54a30.78,30.78,0,0,1-30.78,30.78H579l-24.16,24.16a3.45,3.45,0,0,1-5.89-2.44V232.11H523.42a30.78,30.78,0,0,1-30.78-30.78V109.79A30.78,30.78,0,0,1,523.42,79H708.79A30.78,30.78,0,0,1,739.57,109.79Z"/><rect class="cls-2" x="525.1" y="124.24" width="182" height="19.33" rx="9.67" ry="9.67"/><rect class="cls-2" x="525.1" y="167.54" width="78.56" height="19.33" rx="9.67" ry="9.67"/><polygon class="cls-2" points="468.22 1199.33 462.22 1253 493.22 1253 504.22 1198 468.22 1199.33"/><path class="cls-3" d="M493.22,1255h-31a2,2,0,0,1-2-2.24l6-53.67a2,2,0,0,1,1.93-1.79l36-1.33a2,2,0,0,1,2.05,2.41l-11,55A2,2,0,0,1,493.22,1255Zm-28.75-4h27.09l10.17-50.87L470,1201.28Z"/><path class="cls-6" d="M544.8,629.07c17.9,99.44,17.14,209.84,10.49,303.18-1.84,25.68-4.11,50-6.56,72.56C539.44,1090,528,1164,528,1164H466.55c-8.84-140.45-58.19-390.38-58.19-390.38-35.33-42-48.71-108-48.71-108C372.61,543.22,532,558.15,544.8,629.07Z"/><path class="cls-3" d="M498,1141.58h0a2,2,0,0,1-2-2.06c4.49-197.3-53.85-501.8-54.44-504.85a2,2,0,0,1,4-.76c0.59,3.06,59,308,54.52,505.71A2,2,0,0,1,498,1141.58Z"/><path class="cls-3" d="M458,718.86a2,2,0,0,1-1.45-3.42l10.29-10.64a24,24,0,0,0,6.59-19.87l-7.66-59.56a2,2,0,0,1,4-.51l7.66,59.56a28,28,0,0,1-7.69,23.19l-10.29,10.64A2,2,0,0,1,458,718.86Z"/><path class="cls-2" d="M555.29,932.25c-1.84,25.68-4.11,50-6.56,72.56-16.6-1.29-29.74-17-29.8-36.32-0.06-20.16,14.23-36.54,31.9-36.59A27.46,27.46,0,0,1,555.29,932.25Z"/><path class="cls-4" d="M460.74,1153.5h75.21a7.68,7.68,0,0,1,7.57,9l-7.37,43.13a7.68,7.68,0,0,1-7.57,6.39H460.74a7.68,7.68,0,0,1-7.68-7.68v-43.13A7.68,7.68,0,0,1,460.74,1153.5Z"/><path class="cls-6" d="M592.76,1342.33H441.42c0.1-5.67.32-11.24,0.65-16.66a450,450,0,0,1,13-84.67h50.79c17.63,35.33,51.67,52.92,70.4,60.27a23.09,23.09,0,0,1,14.51,19.41l0.45,5Z"/><path class="cls-2" d="M592.76,1342.33H441.42c0.1-5.67.32-11.24,0.65-16.66H591.24Z"/><path class="cls-3" d="M592.76,1344.35H441.42a2,2,0,0,1-2-2.05c0.1-5.61.32-11.25,0.65-16.75a2,2,0,0,1,2-1.89H591.24a2,2,0,0,1,2,1.83l1.52,16.66A2,2,0,0,1,592.76,1344.35Zm-149.28-4H590.55l-1.15-12.63H444C443.74,1331.85,443.58,1336.08,443.48,1340.31Z"/><polygon class="cls-2" points="351.67 1199.33 345.67 1253 376.67 1253 387.67 1198 351.67 1199.33"/><path class="cls-3" d="M376.67,1255h-31a2,2,0,0,1-2-2.24l6-53.67a2,2,0,0,1,1.93-1.79l36-1.33a2,2,0,0,1,2.05,2.41l-11,55A2,2,0,0,1,376.67,1255Zm-28.75-4H375l10.17-50.87-31.71,1.17Z"/><path class="cls-6" d="M543,659c-4.21,101-29,208.53-55.87,298.17-7.39,24.66-14.92,48-22.22,69.38C437.28,1107.63,413,1162,413,1162l-63,2c22-139,28.33-393.67,28.33-393.67-25.33-48.66-24-116-24-116C393.67,537.67,546,587,543,659Z"/><path class="cls-2" d="M487.13,957.17c-7.39,24.66-14.92,48-22.22,69.38-15.92-4.88-25.31-23.11-21.16-41.94,4.34-19.69,21.85-32.56,39.11-28.75A27.46,27.46,0,0,1,487.13,957.17Z"/><path class="cls-3" d="M459.64,1043.83a2,2,0,0,1-1.9-2.68q2.61-7.45,5.27-15.25c7.88-23.12,15.34-46.44,22.2-69.31C518.64,844.92,537.41,744.76,541,658.92a49.62,49.62,0,0,0-3.32-19.86,2,2,0,0,1,3.77-1.44A53.61,53.61,0,0,1,545,659.08c-3.59,86.18-22.42,186.67-56,298.66-6.87,22.92-14.35,46.28-22.24,69.45q-2.66,7.81-5.27,15.28A2,2,0,0,1,459.64,1043.83Z"/><path class="cls-3" d="M386,1149a2,2,0,0,1-2-2.5C431.44,954.94,440.9,645,441,641.94a2,2,0,1,1,4,.12c-0.09,3.11-9.56,313.44-57.06,505.43A2,2,0,0,1,386,1149Z"/><path class="cls-3" d="M439.13,727.75A2,2,0,0,1,438,724l12.36-8.14a24,24,0,0,0,10.77-18l5.51-59.8a2,2,0,0,1,4,.37l-5.51,59.8a28,28,0,0,1-12.56,21l-12.36,8.14A2,2,0,0,1,439.13,727.75Z"/><path class="cls-4" d="M344.18,1153.5h75.21a7.68,7.68,0,0,1,7.57,9l-7.37,43.13A7.68,7.68,0,0,1,412,1212H344.18a7.68,7.68,0,0,1-7.68-7.68v-43.13A7.68,7.68,0,0,1,344.18,1153.5Z"/><path class="cls-6" d="M476.21,1342.33H324.87c0.1-5.67.32-11.24,0.65-16.66a450,450,0,0,1,13-84.67h50.79c17.63,35.33,51.67,52.92,70.4,60.27a23.09,23.09,0,0,1,14.51,19.41l0.45,5Z"/><path class="cls-2" d="M476.21,1342.33H324.87c0.1-5.67.32-11.24,0.65-16.66H474.69Z"/><path class="cls-3" d="M476.21,1344.35H324.87a2,2,0,0,1-2-2.05c0.1-5.61.32-11.25,0.65-16.75a2,2,0,0,1,2-1.89H474.69a2,2,0,0,1,2,1.83l1.52,16.66A2,2,0,0,1,476.21,1344.35Zm-149.28-4H474l-1.15-12.63H327.42C327.19,1331.85,327,1336.08,326.93,1340.31Z"/><path class="cls-2" d="M562.67,415.33l11,9,41.67-55S606,345.67,606,342.67s13.67-30,18-33.67,7.33-.33,7.33,3.33-5,22.78-5,22.78,37.67-34.11,45-37.44S681,299,677,304s-18,17.67-18,17.67,26.67-14.33,30.67-14,19,14,13.67,25.33-61.67,45-61.67,45-22,108.08-34.33,119.37-80.86-32.47-80.86-32.47Z"/><path class="cls-3" d="M601.09,501.22c-8.19,0-21.32-4.66-39.73-14s-35.8-20.46-36-20.57a2,2,0,0,1-.54-2.89L561,414.14a2,2,0,0,1,2.91-.37l9.38,7.67L613,369c-2.59-6.6-9.06-23.39-9.06-26.35,0-3.82,14-31.25,18.71-35.21,3.23-2.73,5.8-2.17,7.05-1.59a7,7,0,0,1,3.6,6.46c0,2.49-1.94,10.82-3.43,16.84,10.55-9.42,34.62-30.64,40.58-33.35s8.62-.51,9.46.58c1.73,2.23,1.2,5.62-1.39,8.85a104.46,104.46,0,0,1-7.56,7.91c7.81-3.88,16.28-7.71,18.82-7.51,3.21,0.27,9.87,5.66,13.66,12.2,3.32,5.74,3.89,11.27,1.67,16C699.91,345,652,374.14,643.46,379.27c-3,14.58-22.59,108.44-34.77,119.59C607,500.43,604.45,501.22,601.09,501.22Zm-71.72-36.86c26.19,16.51,68.64,38.82,76.6,31.53,9.72-8.9,27.64-88.41,33.72-118.29a2,2,0,0,1,.94-1.33c15.52-9.28,56.72-35.29,60.88-44.13,2.05-4.36.34-9-1.45-12.16-3.38-5.92-9.14-10.17-10.56-10.31h0c-2.44,0-16.92,7-29.53,13.77a2,2,0,0,1-2.31-3.27c0.14-.13,13.93-12.61,17.78-17.43,1.51-1.88,1.7-3.42,1.35-3.86s-1.87-.63-4.61.62c-5.78,2.63-34.07,27.67-44.48,37.1a2,2,0,0,1-3.3-2c1.91-7.29,4.93-19.78,4.93-22.27a3.13,3.13,0,0,0-1.27-2.8c-0.64-.3-1.64.07-2.75,1-4,3.35-16.93,29.05-17.29,32.2,0.09,1.78,4.74,14.57,9.2,25.86a2,2,0,0,1-.27,2l-41.67,55a2,2,0,0,1-2.88.34L563,418.24Z"/><path class="cls-4" d="M480.33,338.33C503.06,344.79,571,413.5,571,413.5L531.5,484S455,436.5,434,405,421.67,321.67,480.33,338.33Z"/><path class="cls-3" d="M514.63,475.06a2,2,0,0,1-1.76-3l36.86-66a2,2,0,1,1,3.52,2L516.4,474A2,2,0,0,1,514.63,475.06Z"/><path class="cls-4" d="M417.33,326c-30.23,2.55-53,18.67-53,18.67L361,433l23.52,88.68S354.33,623,343.67,669H555s-12.67-99.33-36-172.67c0,0,14.67-54,12.67-74.67s-51.33-83.33-51.33-83.33S445,323.67,417.33,326Z"/><path class="cls-2" d="M429.69,314.74c19.1,3.17,30,17,31.2,27.48s-6.24,19.34-13.31,20.71c0,0-7.07-20.47-12.48-21s-9.36,21.94-9.36,21.94-25.59-2.58-32.45-25.11C388.55,323.21,407.43,311,429.69,314.74Z"/><path class="cls-3" d="M425.74,365.87h-0.2c-0.27,0-27-3-34.18-26.53a17.47,17.47,0,0,1,3.81-17.12c7.09-8.09,20.77-11.8,34.85-9.46h0C449.5,316,461.5,330.23,462.89,342c1.37,11.54-6.77,21.35-14.93,22.93a2,2,0,0,1-2.29-1.32c-3.55-10.26-8.58-19.45-10.78-19.67-1.9.31-5.4,10.17-7.17,20.28A2,2,0,0,1,425.74,365.87Zm-4.1-49.78c-9.78,0-18.52,3.17-23.44,8.78a13.4,13.4,0,0,0-3,13.28c5.34,17.54,23.11,22.3,28.89,23.4,1.75-9.14,5.3-22.24,11.19-21.65,5.6,0.56,11.21,14.17,13.54,20.56,5.31-2.07,11.1-9.11,10-18-1.22-10.3-12-22.81-29.53-25.73h0A47.21,47.21,0,0,0,421.63,316.09Z"/><path class="cls-2" d="M442.61,327.13s-0.66,6.56-8.83,9.68a31.35,31.35,0,0,1-22.52-9.68l2.28-41.51,7.77,1.63,18.91,4,2,29.85Z"/><path class="cls-3" d="M433.31,338.83a33.28,33.28,0,0,1-23.51-10.32,2,2,0,0,1-.54-1.49l2.27-41.51a2,2,0,0,1,2.43-1.86l26.67,5.6a2,2,0,0,1,1.6,1.84l2.4,35.91a2,2,0,0,1,0,.34c0,0.32-.89,7.84-10.12,11.36a2,2,0,0,1-.62.13h-0.57Zm-20-12.47a29.52,29.52,0,0,0,20,8.44h0c6-2.43,7.06-6.87,7.21-7.75l-2.29-34.17-22.88-4.8Z"/><path class="cls-3" d="M442.21,321.07c-22.64-2.23-24.55-31.1-24.55-31.1a35.32,35.32,0,0,1,3.64-2.71l18.91,4Z"/><path class="cls-3" d="M541.67,655.68h-176a2,2,0,1,1,0-4h176A2,2,0,1,1,541.67,655.68Z"/><path class="cls-3" d="M526.47,466.92a2,2,0,0,1-2-2.43c4.15-19.9,5.93-34.64,5.16-42.63-1-10.56-16.43-36.43-42.28-71a2,2,0,1,1,3.23-2.42c15.44,20.64,41.57,57.57,43.07,73,0.82,8.51-.94,23.26-5.23,43.84A2,2,0,0,1,526.47,466.92Z"/><path class="cls-2" d="M307.33,486.54S296,534.55,299,547s70.61,57.25,126.11,79.2c0,0,9.11,11.87,19.32,14.07s22.35-1.93,22.35-1.93,18.21,9.93,23.73,8.55,16-19,16.28-24.84-14.63-12.42-14.63-12.42,18,2.17,21-1.4-16.58-13.5-24.44-15.43-40.69,9.93-40.69,9.93l-83.36-81.13,9.4-25.39s9.66-29.8-23.46-35.87S307.33,486.54,307.33,486.54Z"/><path class="cls-3" d="M489.43,649c-6.37,0-18.77-6.35-22.81-8.51-3,.92-13.41,3.7-22.57,1.72-9.77-2.11-18.29-12.09-20.14-14.37-56.28-22.36-123.53-66.91-126.83-80.4-3.11-12.74,7.81-59.4,8.27-61.38l0-.15c0.11-.34,11.15-33.91,45.61-27.59,10.77,2,18.4,6.59,22.65,13.73,6.65,11.14,2.54,24.2,2.36,24.75l-9,24.24,81.52,79.34c6.61-2.35,33.07-11.44,40.67-9.57,6.65,1.64,24.31,9.86,26.1,15.38a3.36,3.36,0,0,1-.6,3.32c-2,2.39-8,2.89-13.45,2.77,4,2.66,7.74,6.18,7.57,9.83-0.31,6.53-11.15,25-17.81,26.7A6.75,6.75,0,0,1,489.43,649Zm-22.6-12.7a2,2,0,0,1,1,.25c7.28,4,19,9.19,22.28,8.37,4.35-1.09,14.51-17.83,14.76-23,0.14-2.88-7.71-7.94-13.43-10.48a2,2,0,0,1,1.06-3.84c8.49,1,17,.79,18.92-0.47-1.58-3-15.59-10.56-23.1-12.41-5.29-1.3-27.05,5.37-39.53,9.87a2,2,0,0,1-2.09-.45L363.3,523a2,2,0,0,1-.48-2.15l9.4-25.39s3.69-11.84-2-21.39c-3.64-6.08-10.33-10-19.9-11.8-30.57-5.6-40.37,22.78-41,24.77-0.51,2.17-11.1,47.83-8.26,59.42,2.69,11,67.94,55.28,124.9,77.8a2,2,0,0,1,.86.65c0.09,0.11,8.79,11.31,18.14,13.33,9.55,2.07,21.16-1.83,21.28-1.87A2,2,0,0,1,466.83,636.3Z"/><path class="cls-4" d="M364.33,344.67C348.75,354.25,297.5,487.5,297.5,487.5l80,22.25S402.63,422.53,405.14,407C414.5,349,364.33,344.67,364.33,344.67Z"/><path class="cls-3" d="M385.28,484.44a2,2,0,0,1-1.94-2.56l4-14.13c9.31-33.38,14.79-54.5,15.85-61.06,6.4-39.64-15.8-53.26-29.6-57.85a2,2,0,1,1,1.27-3.83c15,5,39.18,19.73,32.31,62.31-1.1,6.81-6.46,27.5-15.95,61.51l-4,14.14A2,2,0,0,1,385.28,484.44Z"/><path class="cls-3" d="M371.25,493.52a2,2,0,0,1-.56-0.08l-62.81-18.16A2,2,0,0,1,309,471.4l62.81,18.16A2,2,0,0,1,371.25,493.52Z"/><path class="cls-3" d="M382.89,191.59c13.79,4.78,4,33.46-.37,42.62s3.53,34.31-13.28,43.7S386.32,320,344.59,357.4c-32.16,28.84-91,11.27-84.47-18.54s52.74-45.77,58.33-73.12c3.56-17.4-5-41.87,23-52.31C362.39,205.64,372,187.82,382.89,191.59Z"/><path class="cls-2" d="M456,263s8-11.9,16.61-7.85,5.71,32.72-15.47,28.81Z"/><path class="cls-3" d="M461,286.37a23.07,23.07,0,0,1-4.19-.4,2,2,0,0,1-1.65-1.87l-1.14-21a2,2,0,0,1,.34-1.24c0.37-.54,9.09-13.28,19.14-8.55,5.83,2.74,6.87,12.45,4.48,19.87C475.28,281.67,469.07,286.37,461,286.37Zm-1.9-4.13c10.21,1.09,13.91-6.71,15.05-10.25,2.18-6.79.52-13.63-2.36-15-6-2.84-12.15,4.55-13.7,6.63Z"/><path class="cls-2" d="M396.38,208.53l-4.9-2.33a4.77,4.77,0,0,0-4.83.42,16.06,16.06,0,0,0-4.9,5.29,11.11,11.11,0,0,0-.66,7.51,4.72,4.72,0,0,0,2.13,3l5.27,3.28a4.79,4.79,0,0,0,7-2.37l3.31-8.74A4.79,4.79,0,0,0,396.38,208.53Z"/><path class="cls-3" d="M391,228.4a6.78,6.78,0,0,1-3.59-1l-5.27-3.28a6.7,6.7,0,0,1-3-4.22A13,13,0,0,1,380,211a18.15,18.15,0,0,1,5.51-6,6.8,6.8,0,0,1,6.86-.6l4.9,2.33h0a6.84,6.84,0,0,1,3.45,8.55L397.38,224A6.81,6.81,0,0,1,391,228.4Zm-1.6-20.64a2.73,2.73,0,0,0-1.59.51,14.16,14.16,0,0,0-4.29,4.59,9.11,9.11,0,0,0-.48,6.13,2.69,2.69,0,0,0,1.23,1.69l5.27,3.28a2.77,2.77,0,0,0,4.06-1.37l3.31-8.74a2.79,2.79,0,0,0-1.4-3.48h0l-4.9-2.33A2.79,2.79,0,0,0,389.41,207.76Z"/><path class="cls-2" d="M461.42,267.76c-1,17.75-8.86,38.22-30.32,37.64C415.32,305,397.87,286,396.55,262s2.84-44.48,31.68-43a69.67,69.67,0,0,1,9.17,1.21c16.72,3.7,23.11,5.19,24.35,38.09C461.85,261.19,461.62,264.41,461.42,267.76Z"/><path class="cls-3" d="M432,307.43H431c-16.11-.43-35.07-19.14-36.52-45.29-0.7-12.63-.33-28.32,8.81-37.51,5.6-5.63,14-8.21,25-7.66a71.82,71.82,0,0,1,9.5,1.25c18.3,4,24.69,7.12,25.93,40,0.1,2.63-.07,5.43-0.24,8.39l-0.08,1.28C462.38,287.11,453.55,307.43,432,307.43Zm-6.6-86.51c-8.52,0-14.82,2.15-19.18,6.54-6.17,6.21-8.6,17.15-7.65,34.44,1.29,23.27,18.27,41.1,32.6,41.48,24.37,0.64,27.78-27.19,28.25-35.74h0l0.08-1.29c0.17-2.86.33-5.56,0.24-8-1.18-31.43-6.62-32.63-22.77-36.2a68,68,0,0,0-8.83-1.17Q426.72,220.92,425.39,220.92Z"/><path class="cls-3" d="M403.51,260a17,17,0,0,0,10.76-13.7c0.31-2.06.5-4.83,1.1-7.34,12.1,12.67,34.94,20.36,44.89,23.24a7.75,7.75,0,0,0,8.6-2.91c11.62-17.15-2.23-50-24.49-49.38-25.27-17.5-54.79-4.78-59,16.57C380.71,250.15,396.39,263,403.51,260Z"/><path class="cls-2" d="M403.91,263s-11.64-12-23.9-8.11-5.13,32.47,25.13,28.88Z"/><path class="cls-3" d="M400.06,286.13c-16,0-25.31-9.21-27.36-18.63-1.5-6.91,1.19-12.74,6.7-14.5,13.29-4.25,25.45,8.1,26,8.63a2,2,0,0,1-2.9,2.81c-0.14-.14-11-11.08-21.83-7.59-3.95,1.26-4.85,5.83-4,9.8,1.89,8.69,11.54,17.14,28.26,15.16a2,2,0,0,1,.48,4A45.19,45.19,0,0,1,400.06,286.13Z"/><path class="cls-3" d="M1072.67,1233.75a2,2,0,0,1-2-2v-13.57a2,2,0,1,1,4,0v13.57A2,2,0,0,1,1072.67,1233.75Z"/><path class="cls-3" d="M1093.14,1240.65h-13.57a2,2,0,1,1,0-4h13.57A2,2,0,1,1,1093.14,1240.65Z"/><path class="cls-3" d="M1072.67,1261.11a2,2,0,0,1-2-2v-13.57a2,2,0,1,1,4,0v13.57A2,2,0,0,1,1072.67,1261.11Z"/><path class="cls-3" d="M1065.77,1240.65H1052.2a2,2,0,1,1,0-4h13.57A2,2,0,1,1,1065.77,1240.65Z"/><path class="cls-3" d="M281.57,781.82a2,2,0,0,1-2-2V768.22a2,2,0,1,1,4,0V779.8A2,2,0,0,1,281.57,781.82Z"/><path class="cls-3" d="M299,787.7H287.46a2,2,0,0,1,0-4H299A2,2,0,0,1,299,787.7Z"/><path class="cls-3" d="M281.57,805.16a2,2,0,0,1-2-2V791.57a2,2,0,1,1,4,0v11.58A2,2,0,0,1,281.57,805.16Z"/><path class="cls-3" d="M275.69,787.7H264.11a2,2,0,0,1,0-4h11.58A2,2,0,0,1,275.69,787.7Z"/><path class="cls-3" d="M1301.07,580.65a2,2,0,0,1-2-2V567.06a2,2,0,0,1,4,0v11.58A2,2,0,0,1,1301.07,580.65Z"/><path class="cls-3" d="M1318.53,586.53h-11.58a2,2,0,1,1,0-4h11.58A2,2,0,1,1,1318.53,586.53Z"/><path class="cls-3" d="M1301.07,604a2,2,0,0,1-2-2V590.4a2,2,0,0,1,4,0V602A2,2,0,0,1,1301.07,604Z"/><path class="cls-3" d="M1295.18,586.53h-11.58a2,2,0,1,1,0-4h11.58A2,2,0,1,1,1295.18,586.53Z"/><circle class="cls-8" cx="230.87" cy="933" r="8.61"/><circle class="cls-6" cx="1203.15" cy="1269.83" r="16.83"/><circle class="cls-9" cx="683.55" cy="1110.41" r="14.01"/></svg>