<svg id="LEFT_FEET" data-name="LEFT FEET" xmlns="http://www.w3.org/2000/svg" viewBox="0 0 1600 1400"><defs><style>.cls-1{fill:#88c0c2;}.cls-2{fill:#fff;}.cls-3{fill:#262424;}.cls-4{fill:#de9244;}.cls-5{fill:#272525;}.cls-6{isolation:isolate;}</style></defs><title>Website Hosting</title><path class="cls-1" d="M994.17,645.56c-20.21,23.94-89.78,51.66-89.78,51.66-4.84-1.41-9.72-3-14.52-4.62a508.81,508.81,0,0,1-59.62-25.47s-14.3-11-11-28.55c0,0,7.33-22.48,24.92-21.79s98.24-10.09,98.24-10.09,20.68-24,38.32-20.23S1014.38,621.61,994.17,645.56Z"/><ellipse class="cls-2" cx="869.77" cy="668.23" rx="10.78" ry="14.83" transform="translate(-93.73 1192.35) rotate(-66.08)"/><path class="cls-3" d="M873,681.76a20.91,20.91,0,0,1-8.44-1.84,19.91,19.91,0,0,1-9.23-8c-2.06-3.57-2.41-7.31-1-10.54s4.44-5.49,8.47-6.35a19.92,19.92,0,0,1,12.1,1.49h0c8.48,3.76,13.06,12.07,10.2,18.51C883.24,679.36,878.49,681.76,873,681.76Zm-6.55-23.08a13.26,13.26,0,0,0-2.78.29,6.89,6.89,0,0,0-4.87,11,15.9,15.9,0,0,0,7.38,6.31c6.47,2.87,13.33,1.6,15.29-2.83s-1.7-10.36-8.17-13.23h0A17.06,17.06,0,0,0,866.47,658.68Z"/><path class="cls-3" d="M840.77,643.35a2,2,0,0,1,0-4c0.68,0,68-.27,105.77-15.24a2,2,0,1,1,1.47,3.72c-38.47,15.25-104.44,15.52-107.23,15.52h0Z"/><path class="cls-2" d="M994.17,645.56c-20.21,23.94-89.78,51.66-89.78,51.66-4.84-1.41-9.72-3-14.52-4.62,31.84-10.64,77.3-42.1,77.3-42.1-32.71-12.74-24.78-43.8-24.78-43.8s20.68-24,38.32-20.23S1014.38,621.61,994.17,645.56Z"/><path class="cls-3" d="M904.39,699.23a2,2,0,0,1-.56-0.08c-4.72-1.37-9.64-2.94-14.62-4.65a2,2,0,0,1,0-3.79c26.53-8.87,63.13-32.67,73.78-39.8-30-14-22.65-44.38-22.56-44.7a2,2,0,0,1,.42-0.81c0.88-1,21.66-24.85,40.25-20.88,9.45,2,18.17,10.92,22.21,22.7,4.74,13.82,2,28.27-7.64,39.64h0c-20.3,24-87.71,51.09-90.57,52.23A2,2,0,0,1,904.39,699.23ZM896,692.54c2.82,0.92,5.61,1.78,8.33,2.58,7-2.85,69.72-28.76,88.36-50.84a36.19,36.19,0,0,0,6.91-35.76c-3.54-10.31-11.27-18.38-19.25-20.08-15.17-3.24-33.45,16.31-36.07,19.22-0.84,3.88-5.21,29.74,23.67,41a2,2,0,0,1,.41,3.51C967.88,652.45,927.21,680.47,896,692.54Zm98.22-47h0Z"/><path class="cls-2" d="M797.43,639.66l32.38,11.82s18.28-5.65,13.07-26.82l-32.22-17.52Z"/><path class="cls-3" d="M829.81,653.48a2,2,0,0,1-.69-0.12l-32.38-11.82a2,2,0,0,1-1.17-2.63l13.23-32.52a2,2,0,0,1,2.81-1l32.22,17.52a2,2,0,0,1,1,1.28c5.61,22.74-14.21,29.15-14.42,29.21A2,2,0,0,1,829.81,653.48Zm-29.75-15,29.76,10.87c2.91-1.13,14.93-6.87,11.31-23.37l-29.46-16Z"/><path class="cls-1" d="M824.14,589.33s-2.66,40.66-34,61.33l-145.33-70s-160,68.67-214.67,91.33-196-54-90-112c0,0,195-58.51,277.93-80.82,19.92-5.37,33.36-8.64,36.07-8.51,3.53,0.17,16.1,7.81,32.93,19.14C736.92,523.36,824.14,589.33,824.14,589.33Z"/><path class="cls-2" d="M687.07,489.8c-7.48,5.45-18.12,8.86-29.93,8.86-18.29,0-33.79-8.19-39.07-19.49,19.92-5.37,33.36-8.64,36.07-8.51C657.67,470.83,670.24,478.47,687.07,489.8Z"/><path class="cls-3" d="M792.15,614.63a2,2,0,0,1-1-.25L649.94,536.17l-230.69,76a2,2,0,0,1-1.25-3.8L649.52,532.1a2,2,0,0,1,1.59.15l142,78.64A2,2,0,0,1,792.15,614.63Z"/><path class="cls-3" d="M646.37,575.36h-0.2a2,2,0,0,1-1.8-2.18l6.08-62.45a2,2,0,1,1,4,.39l-6.08,62.45A2,2,0,0,1,646.37,575.36Z"/><path class="cls-3" d="M783.48,636.33a2,2,0,0,1-1.11-3.67c20.65-13.66,25.41-44,25.46-44.29a2,2,0,0,1,4,.59c-0.2,1.32-5.05,32.38-27.21,47A2,2,0,0,1,783.48,636.33Z"/><path class="cls-1" d="M679.14,1251.33c-31.33-.34-97-36.34-97-36.34-2-4.63-3.9-9.38-5.68-14.14a508.81,508.81,0,0,1-18.32-62.19s-0.66-18,15-26.67c0,0,22-8.66,32.67,5.34s70.33,69.33,70.33,69.33,31.67,0.67,40,16.67S710.48,1251.66,679.14,1251.33Z"/><ellipse class="cls-2" cx="582.46" cy="1169.83" rx="10.78" ry="14.83" transform="translate(-293.52 200.08) rotate(-15.62)"/><path class="cls-3" d="M584.34,1186.4c-6,0-12-5.35-14.19-13.13a19.91,19.91,0,0,1,.27-12.19c1.44-3.86,4.1-6.51,7.51-7.46s7.06-.07,10.29,2.49a21,21,0,0,1,6.28,22.46c-1.44,3.86-4.1,6.51-7.51,7.47A9.82,9.82,0,0,1,584.34,1186.4Zm-3.7-29.15a6,6,0,0,0-1.62.22,7.58,7.58,0,0,0-4.84,5,15.89,15.89,0,0,0-.17,9.71c1.9,6.81,7.25,11.29,11.91,10a7.58,7.58,0,0,0,4.84-5,17,17,0,0,0-5-17.93A8.34,8.34,0,0,0,580.63,1157.25Z"/><path class="cls-3" d="M657.15,1208a2,2,0,0,1-1-.25c-36.25-20-78.46-70.66-80.24-72.81a2,2,0,0,1,3.08-2.55c0.43,0.52,43.51,52.27,79.09,71.86A2,2,0,0,1,657.15,1208Z"/><path class="cls-3" d="M673.81,1192.33a2,2,0,0,1-1.06-.3c-34.51-21.57-77-68.55-77.43-69a2,2,0,1,1,3-2.68c0.42,0.47,42.55,47,76.57,68.31A2,2,0,0,1,673.81,1192.33Z"/><path class="cls-2" d="M679.14,1251.33c-31.33-.34-97-36.34-97-36.34-2-4.63-3.9-9.38-5.68-14.14,28.48,17.78,81.68,32.81,81.68,32.81-11-33.33,18-47,18-47s31.67,0.67,40,16.67S710.48,1251.66,679.14,1251.33Z"/><path class="cls-3" d="M679.61,1253.33h-0.48c-31.47-.34-95.24-35.11-97.94-36.59a2,2,0,0,1-.87-1c-2-4.53-3.88-9.31-5.72-14.23a2,2,0,0,1,2.93-2.4c23.73,14.82,65.39,27.88,77.67,31.56-8.29-32,19.81-45.72,20.1-45.86a2,2,0,0,1,.9-0.19c1.34,0,33,.89,41.73,17.75,4.47,8.57,3.15,21-3.36,31.57A40.07,40.07,0,0,1,679.61,1253.33Zm-0.44-4a36.1,36.1,0,0,0,32-17.44c5.7-9.29,7-20.4,3.23-27.63-7.16-13.75-33.87-15.41-37.79-15.58-3.53,1.83-26.25,14.92-16.54,44.36a2,2,0,0,1-2.44,2.55c-0.5-.14-48-13.66-77.21-30.09,1.09,2.76,2.2,5.46,3.32,8.07,6.67,3.59,66.56,35.45,95.46,35.77h0Z"/><path class="cls-2" d="M557.31,1098.16l11.5,32.5s16,10.5,29-7l-7-36Z"/><path class="cls-3" d="M580.1,1135.75a25,25,0,0,1-12.38-3.42,2,2,0,0,1-.79-1l-11.5-32.5a2,2,0,0,1,1.29-2.58l33.5-10.5a2,2,0,0,1,2.56,1.53l7,36a2,2,0,0,1-.36,1.57C593.06,1133.41,586,1135.75,580.1,1135.75Zm-9.64-6.44c2.73,1.53,14.8,7.14,25.22-6.15l-6.4-32.92-29.39,9.21Z"/><path class="cls-1" d="M604.14,1081.33c-26,38.66-69.33,20.66-69.33,20.66-24.67-55.33-81.33-226-81.33-226l-184-206s-38-78.66,19.33-111.33,105.33,36.67,105.33,36.67L518.88,792.88l22.6,35.78L553.71,878Z"/><path class="cls-3" d="M435.91,663.47a2,2,0,0,1-1.69-.93L392.45,596.4c-0.08-.11-12.58-18-32-30.95a2,2,0,0,1,2.22-3.33,136.53,136.53,0,0,1,33.11,32.07l41.81,66.21A2,2,0,0,1,435.91,663.47Z"/><path class="cls-3" d="M414.88,630.17a2,2,0,0,1-2-2.41l3.75-17.91a16.59,16.59,0,0,0-2.11-12.13L387.11,553a2,2,0,0,1,3.41-2.09L418,595.62a20.57,20.57,0,0,1,2.62,15l-3.75,17.91A2,2,0,0,1,414.88,630.17Z"/><path class="cls-2" d="M553.71,878c-0.5.22-1,.43-1.53,0.62-18.14,6.67-40-7.25-48.72-31.09-8.5-23.14-1.59-47.14,15.42-54.61l22.6,35.78Z"/><path class="cls-3" d="M545.15,1075.66a2,2,0,0,1-1.88-1.33c-23.77-66.81-67-198-69.56-205.93L287.95,646.61A2,2,0,0,1,291,644L477,866.13a2,2,0,0,1,.37.66c0.45,1.37,45.27,137.69,69.65,206.2A2,2,0,0,1,545.15,1075.66Z"/><path class="cls-3" d="M457.48,877.33a2,2,0,0,1-.83-3.82l34.67-15.83a2,2,0,1,1,1.66,3.64l-34.67,15.83A2,2,0,0,1,457.48,877.33Z"/><path class="cls-3" d="M552.82,1090.9a74.09,74.09,0,0,1-17.52-2,2,2,0,0,1,1-3.87c0.34,0.09,34.56,8.75,57.77-13.51a2,2,0,0,1,2.77,2.89C582.84,1087.89,565.52,1090.9,552.82,1090.9Z"/><path class="cls-4" d="M306.81,287.16S454.5,362.55,463.5,401.55s-49.19,50.61-103.19,3.11S306.81,287.16,306.81,287.16Z"/><path class="cls-2" d="M421.48,389.5c-6.32,2.69-6.5,14.17-3.33,28s33.67,13.67,37,8.67,1.83-23.83-1.83-29S429.31,386.16,421.48,389.5Z"/><path class="cls-3" d="M442.61,431.26a50,50,0,0,1-8.86-.79c-9.88-1.81-16.12-6.26-17.55-12.54-2.7-11.79-4.11-26.62,4.5-30.29h0c8.54-3.63,30.05,2.44,34.25,8.35,4,5.68,5.83,25.33,1.87,31.27C455,430,449.06,431.26,442.61,431.26Zm-20.34-39.93c-4.59,2-5.41,11.57-2.17,25.71,1.48,6.46,10.54,8.79,14.37,9.49,9.27,1.7,18,0,19-1.49,2.72-4.08,1.51-22.07-1.8-26.73-3-4.23-22.16-10.07-29.42-7h0Z"/><path class="cls-2" d="M407,390.16c-8.39,1.4-4.33,20.83-2,30s16,12.5,15.5,0S417,388.5,407,390.16Z"/><path class="cls-3" d="M414.63,430.33c-4.61,0-10-3.61-11.59-9.68-3.77-14.79-4.13-24.67-1.07-29.35a6.84,6.84,0,0,1,4.68-3.12h0a8.5,8.5,0,0,1,7,1.89c7.09,5.77,8.52,22.91,8.8,30,0.34,8.48-5,9.93-6.65,10.17A8.26,8.26,0,0,1,414.63,430.33Zm-7.32-38.2a2.83,2.83,0,0,0-2,1.36c-2.31,3.55-1.73,13.09,1.6,26.17,1.1,4.32,5.31,7.06,8.33,6.62s3.32-4,3.23-6c-0.42-10.54-2.57-23.19-7.33-27.06a4.53,4.53,0,0,0-3.84-1h0Z"/><path class="cls-4" d="M275.48,701.33s55.33-96,190.67-183.33l-80-58.67s-18.67-90.17-79.33-172.17c0,0-52-13.17-82-10.5s-72.67,66.67-72.67,66.67,28,176.68,45.33,235.35S275.48,701.33,275.48,701.33Z"/><path class="cls-3" d="M264.54,378.72a6,6,0,0,1-2.36-.39c-1.22-.54-2.27-1-9.58-27.16-3.5-12.5-6.76-25-6.79-25.16a2,2,0,1,1,3.87-1c5.64,21.68,12.46,45.85,14.47,49.73a19.12,19.12,0,0,0,8.49-2.31c1.64-.92,2.67-1.95,2.91-2.9,0.63-3-5.85-26.86-12.47-48.17a2,2,0,0,1,3.82-1.19c3.26,10.51,13.82,45.18,12.53,50.33-0.58,2.31-2.57,4.35-5.77,5.91A23.36,23.36,0,0,1,264.54,378.72Z"/><path class="cls-3" d="M269.48,672a2,2,0,0,1-1.58-3.23c0.86-1.1,86.8-110.77,174.19-155.3a2,2,0,1,1,1.82,3.56c-86.6,44.12-172,153.09-172.84,154.19A2,2,0,0,1,269.48,672Z"/><path class="cls-3" d="M371.14,411.2a2,2,0,0,1-1.88-1.32c-10.19-28.2-28.35-70.46-57-111.65a2,2,0,1,1,3.29-2.28c28.87,41.54,47.18,84.15,57.45,112.57A2,2,0,0,1,371.14,411.2Z"/><path class="cls-2" d="M273.31,294.41c-0.74,11.26-10.47,20-10.47,20-2-6.18-8.5-16.43-15.17-24.88,0,0-2.76,15-4.55,27.69-7.37,1.55-37.09,1.37-45.37-16,0,0,1.37-37.33,37-40C250.07,260.14,268.42,274.3,273.31,294.41Z"/><path class="cls-3" d="M235,319.83c-12.35,0-32.2-3.31-39.09-17.73a2,2,0,0,1-.19-0.94c0-.39,1.86-39.15,38.84-41.88,17.16-1.27,35.78,14.59,40.66,34.65a2,2,0,0,1,.05.6c-0.78,11.94-10.71,21-11.13,21.34a2,2,0,0,1-3.23-.86c-1.61-4.87-6.31-12.85-12.1-20.68-1,5.41-2.56,14.84-3.74,23.15a2,2,0,0,1-1.57,1.68A44.86,44.86,0,0,1,235,319.83Zm-35.26-19c7.54,14.72,33.1,15.73,41.57,14.64,1.77-12.23,4.33-26.17,4.35-26.32a2,2,0,0,1,3.54-.88c5.24,6.64,11.3,15.67,14.32,22.49,2.7-3.07,7.15-9.13,7.73-16.18-5-20-22.82-32.32-36.4-31.31-14,1-24.18,7.72-30.21,19.86A50.62,50.62,0,0,0,199.78,300.83Z"/><path class="cls-2" d="M318.65,457.16l15.5-7.67s20-26.17,23.83-30.83,38.33,10.67,40.33,13.33,0.5,7.17-2.5,8.33a29,29,0,0,1,4.5,25.17c-4.17,14.67-29.83,1.83-29.83,1.83s-6.83,19.33-14.33,21.33-27.33-2.5-27.33-2.5Z"/><path class="cls-3" d="M351,491.16c-9.09,0-22-2.9-22.66-3.05a2,2,0,0,1-1.44-1.29l-10.17-29a2,2,0,0,1,1-2.45l15.08-7.46c2.55-3.33,20-26.12,23.59-30.52,0.93-1.13,2.5-1.66,4.78-1.6,10.09,0.22,36.46,12,38.7,15a7.17,7.17,0,0,1,1,6.33,8.11,8.11,0,0,1-2.27,3.75,31,31,0,0,1,3.6,25.17,10.73,10.73,0,0,1-6.15,7.26c-7.68,3.38-19.73-1.17-24.49-3.25-2.1,5.38-8,18.69-14.94,20.55A22.77,22.77,0,0,1,351,491.16Zm-20.7-6.71c6.11,1.31,19.89,3.72,25.3,2.28,4.72-1.26,10.46-13,13-20.07a2,2,0,0,1,2.78-1.12c4.23,2.11,16.62,7,23.11,4.1a6.81,6.81,0,0,0,3.91-4.69,26.8,26.8,0,0,0-4.12-23.35,2,2,0,0,1,.82-3.13,3.64,3.64,0,0,0,2-2.44,3.26,3.26,0,0,0-.35-2.83c-3.08-3.11-33.64-15.6-37.25-13.2-3.7,4.52-23.53,30.45-23.73,30.72a2,2,0,0,1-.7.58l-13.91,6.88Z"/><path class="cls-3" d="M395.81,442.33a2,2,0,0,1-.78-0.16l-27.5-11.67a2,2,0,1,1,1.56-3.68l27.5,11.67A2,2,0,0,1,395.81,442.33Z"/><path class="cls-4" d="M340.14,491.33s-70.21,74.45-103.36,96.46q-2.46,1.63-4.64,2.87C213,601.48,193.59,604,176.35,578.54,166,563.24,156.41,537.81,148.14,498c-22-106,4-154.66,4-154.66,18.67-9.67,64.34,4.33,68.67,48.33s18.33,93.67,18.33,93.67l84.34-34Z"/><path class="cls-3" d="M241.7,586.35a2,2,0,0,1-1.18-3.61c31.93-23.39,89.44-83.58,97.28-91.84l-15.4-37-82.51,33.26a2,2,0,0,1-2.67-1.31c-0.14-.5-14.1-50.35-18.4-94-1.89-19.22-11.73-30.85-19.64-37.22-10.81-8.7-25.57-13.4-37.6-12a2,2,0,0,1-.47-4c13.24-1.57,28.79,3.35,40.58,12.83,8.51,6.85,19.09,19.34,21.12,39.94,3.76,38.18,15,81.17,17.68,91.17l82.26-33.16a2,2,0,0,1,2.59,1.09l16.66,40a2,2,0,0,1-.39,2.14c-0.64.68-64.29,68-98.72,93.26A2,2,0,0,1,241.7,586.35Z"/><path class="cls-3" d="M210.15,547.33a2,2,0,0,1-1.94-2.47c0.29-1.19,7.31-29.36,26-53.74a2,2,0,0,1,3.17,2.43c-18.18,23.7-25.24,52-25.31,52.26A2,2,0,0,1,210.15,547.33Z"/><path class="cls-2" d="M236.81,586.66c0,0.38,0,.75,0,1.13q-2.46,1.63-4.64,2.87C213,601.48,193.59,604,176.35,578.54c4.07-10.38,15.72-17.88,29.46-17.88C222.93,560.66,236.81,572.3,236.81,586.66Z"/><path class="cls-3" d="M315.48,502.66a2,2,0,0,1-1.67-.89c-10.88-16.32-11-35.95-11-36.78a2,2,0,0,1,2-2h0a2,2,0,0,1,2,2c0,0.19.14,19.28,10.33,34.56A2,2,0,0,1,315.48,502.66Z"/><circle class="cls-2" cx="324.31" cy="486.5" r="5.5"/><path class="cls-3" d="M324.31,494a7.5,7.5,0,1,1,7.5-7.5A7.51,7.51,0,0,1,324.31,494Zm0-11a3.5,3.5,0,1,0,3.5,3.5A3.5,3.5,0,0,0,324.31,483Z"/><path class="cls-2" d="M212.1,218l1.46,21.91L216,277.41c13,8.32,25.28,8.76,36.77-.6l-2.43-17.36-3.68-26.29Z"/><path class="cls-3" d="M234.91,285.74q-9.57,0-19.95-6.64a2,2,0,0,1-.92-1.55l-3.94-59.38a2,2,0,0,1,2.8-2l34.6,15.13a2,2,0,0,1,1.18,1.56l6.11,43.65a2,2,0,0,1-.72,1.83C248,283.28,241.63,285.74,234.91,285.74ZM218,276.26c12,7.41,22.76,7.31,32.7-.31l-5.79-41.41-30.56-13.37Z"/><path class="cls-2" d="M278.67,218.22c-1.37,18.1-6.06,39.82-27.8,37-25.85-3.35-42.95-21.13-43.8-45.62s10.09-38.59,39.5-36.53A45,45,0,0,1,254,174.2c17,4.12,25.84,17.9,25.2,34.34C279.08,211.52,278.94,214.8,278.67,218.22Z"/><path class="cls-3" d="M254.55,257.47a30.64,30.64,0,0,1-3.94-.26,56.2,56.2,0,0,1-27.53-11,2,2,0,0,1,2.47-3.15,52.2,52.2,0,0,0,25.58,10.21c6,0.77,10.73-.36,14.54-3.46,8.23-6.7,10.23-21.31,11-31.71,0.26-3.39.4-6.6,0.52-9.6,0.63-16.24-8.44-28.62-23.67-32.32a2,2,0,0,1,.94-3.89c17.2,4.17,27.44,18.11,26.73,36.36-0.11,2.9-.26,6.29-0.53,9.75-0.84,11.13-3,26.83-12.48,34.51A21,21,0,0,1,254.55,257.47Z"/><path class="cls-3" d="M199.52,214.4a75.28,75.28,0,0,0,8.58,9.86l13,0.48,2.54-9.26s8.23-.57,9.79-6.18a3.22,3.22,0,0,0,.1-0.39c0.39-1.83,1.87-10,.32-22.59,0,0,20,8.25,30.84,9.11,3.89,0.31,8.38-1.29,12.54-3.48,8.33-4.38,15.36-18.32,13.66-27.58l0-.18c-2.66-13.57-9.52-3.95-9.52-3.95s-2.31-10.92-9.2-11.54-11,9.63-11,9.63a108.27,108.27,0,0,0-40.29-.66c-26.47,4.73-19.39,22.86-19.39,22.86S182.06,187.29,199.52,214.4Z"/><path class="cls-2" d="M218.25,223.4c0.86-10.26-6.58-19.59-16.84-20.51a17.15,17.15,0,0,0-6.47.62c-12.59,3.74-8.52,33.18,22.45,30.14Z"/><path class="cls-3" d="M213.13,235.88c-15.78,0-24.64-8.83-26.48-18.26-1.47-7.51,1.78-14.25,7.74-16a19.22,19.22,0,0,1,7.21-.7,20.87,20.87,0,0,1,18.65,22.67,2,2,0,0,1-4-.33,16.86,16.86,0,0,0-15-18.35,15.22,15.22,0,0,0-5.72.55c-3.94,1.17-6,6-5,11.42,1.54,7.89,9.45,16.5,26.63,14.82a2,2,0,1,1,.39,4Q215.27,235.88,213.13,235.88Z"/><rect class="cls-2" x="477.62" y="369.75" width="142.84" height="25.21" rx="12.6" ry="12.6" transform="matrix(0.82, -0.57, 0.57, 0.82, -120.01, 378.23)"/><path class="cls-3" d="M500.6,430.28a14.76,14.76,0,0,1-2.69-.25,14.6,14.6,0,0,1-5.61-26.4L589.25,337a14.6,14.6,0,1,1,16.54,24.07h0l-96.95,66.63A14.5,14.5,0,0,1,500.6,430.28Zm96.89-91.85a10.53,10.53,0,0,0-6,1.87l-96.95,66.63a10.6,10.6,0,1,0,12,17.48l96.95-66.63,1.13,1.65-1.13-1.65a10.6,10.6,0,0,0-4.07-19.17A10.7,10.7,0,0,0,597.5,338.44Z"/><rect class="cls-2" x="330.46" y="449.02" width="206.51" height="25.21" rx="12.6" ry="12.6" transform="translate(-185.18 326.85) rotate(-34.5)"/><path class="cls-3" d="M359,527.57a14.76,14.76,0,0,1-2.69-.25,14.6,14.6,0,0,1-5.61-26.4L500.16,398.24a14.6,14.6,0,1,1,16.54,24.07L367.28,525A14.5,14.5,0,0,1,359,527.57ZM508.41,399.67a10.53,10.53,0,0,0-6,1.87L353,504.23a10.6,10.6,0,1,0,12,17.48L514.43,419a10.6,10.6,0,0,0-4.07-19.17A10.73,10.73,0,0,0,508.41,399.67Zm7.16,21h0Z"/><path class="cls-2" d="M539.51,187.15l-81.35,55.91A15.49,15.49,0,0,0,452,259.89l36.93,135.89a7.81,7.81,0,0,0,12,4.39l81.35-55.91a15.49,15.49,0,0,0,6.17-16.82L551.47,191.54A7.81,7.81,0,0,0,539.51,187.15Z"/><path class="cls-3" d="M496.48,403.56a9.89,9.89,0,0,1-3.41-.61A9.7,9.7,0,0,1,487,396.3L450.06,260.41a17.51,17.51,0,0,1,7-19l81.35-55.91,1.13,1.65-1.13-1.65a9.81,9.81,0,0,1,15,5.51l36.93,135.89a17.51,17.51,0,0,1-7,19L502,401.82A9.73,9.73,0,0,1,496.48,403.56Zm47.43-215.79a5.76,5.76,0,0,0-3.27,1l-81.35,55.91a13.5,13.5,0,0,0-5.38,14.65l36.93,135.89a5.81,5.81,0,0,0,8.9,3.27l81.35-55.91A13.5,13.5,0,0,0,586.47,328L549.54,192.06a5.74,5.74,0,0,0-3.61-3.93A5.85,5.85,0,0,0,543.92,187.77Z"/><path class="cls-2" d="M549,180.63l-81.35,55.91a15.49,15.49,0,0,0-6.17,16.82L498.4,389.26a7.81,7.81,0,0,0,12,4.39l81.35-55.91a15.49,15.49,0,0,0,6.17-16.82L561,185A7.81,7.81,0,0,0,549,180.63Z"/><path class="cls-3" d="M506,397a9.89,9.89,0,0,1-3.41-.61,9.7,9.7,0,0,1-6.09-6.64L459.54,253.89a17.51,17.51,0,0,1,7-19L547.86,179a9.81,9.81,0,0,1,15,5.51l36.93,135.89a17.51,17.51,0,0,1-7,19L511.5,395.3A9.73,9.73,0,0,1,506,397ZM553.4,181.25a5.76,5.76,0,0,0-3.27,1h0l-81.35,55.91a13.5,13.5,0,0,0-5.38,14.65l36.93,135.89a5.81,5.81,0,0,0,8.9,3.27l81.35-55.91A13.5,13.5,0,0,0,596,321.44L559,185.55a5.74,5.74,0,0,0-3.61-3.93A5.85,5.85,0,0,0,553.4,181.25Zm-4.41-.62h0Z"/><path class="cls-3" d="M1425.77,773.42a2,2,0,0,1-2-2V761.18a2,2,0,0,1,4,0v10.24A2,2,0,0,1,1425.77,773.42Z"/><path class="cls-3" d="M1441.21,778.62H1431a2,2,0,0,1,0-4h10.24A2,2,0,0,1,1441.21,778.62Z"/><path class="cls-3" d="M1425.77,794.07a2,2,0,0,1-2-2V781.83a2,2,0,1,1,4,0v10.24A2,2,0,0,1,1425.77,794.07Z"/><path class="cls-3" d="M1420.56,778.62h-10.24a2,2,0,0,1,0-4h10.24A2,2,0,0,1,1420.56,778.62Z"/><path class="cls-3" d="M736.82,316a2,2,0,0,1-2-2V300a2,2,0,1,1,4,0v14A2,2,0,0,1,736.82,316Z"/><path class="cls-3" d="M758,323.14H744a2,2,0,1,1,0-4h14A2,2,0,0,1,758,323.14Z"/><path class="cls-3" d="M736.82,344.32a2,2,0,0,1-2-2v-14a2,2,0,0,1,4,0v14A2,2,0,0,1,736.82,344.32Z"/><path class="cls-3" d="M729.68,323.14h-14a2,2,0,1,1,0-4h14A2,2,0,0,1,729.68,323.14Z"/><path class="cls-3" d="M1304,252.93a2,2,0,0,1-2-2V239.35a2,2,0,0,1,4,0v11.58A2,2,0,0,1,1304,252.93Z"/><path class="cls-3" d="M1321.45,258.81h-11.58a2,2,0,0,1,0-4h11.58A2,2,0,0,1,1321.45,258.81Z"/><path class="cls-3" d="M1304,276.27a2,2,0,0,1-2-2V262.7a2,2,0,0,1,4,0v11.58A2,2,0,0,1,1304,276.27Z"/><path class="cls-3" d="M1298.11,258.81h-11.58a2,2,0,0,1,0-4h11.58A2,2,0,0,1,1298.11,258.81Z"/><circle class="cls-1" cx="361.29" cy="194.82" r="8.61"/><circle class="cls-4" cx="1285.8" cy="481.55" r="18.2"/><circle class="cls-4" cx="304.81" cy="1141.58" r="13.19"/><circle class="cls-1" cx="342.57" cy="921" r="7"/><path class="cls-5" d="M771.17,1068.31a2,2,0,0,1-1-3.73l55.59-32.3-41-23.64a2,2,0,0,1,0-3.46l60.66-35.25a2,2,0,0,1,2,3.46l-57.67,33.52,41,23.64a2,2,0,0,1,0,3.46l-58.57,34A2,2,0,0,1,771.17,1068.31Z"/><path class="cls-5" d="M643.51,1040.64a2,2,0,0,1-1-3.72l71.11-41.83L641.92,953.7a2,2,0,0,1,0-3.46L723,903.11a2,2,0,0,1,2,3.46L646.91,952l71.66,41.37a2,2,0,0,1,0,3.46l-74.07,43.57A2,2,0,0,1,643.51,1040.64Z"/><path class="cls-5" d="M638.27,1058.08c-10.91,0-19.46-4.8-19.46-10.93s8.55-10.93,19.46-10.93,19.46,4.8,19.46,10.93S649.18,1058.08,638.27,1058.08Zm0-17.85c-9.11,0-15.46,3.65-15.46,6.93s6.35,6.93,15.46,6.93,15.46-3.65,15.46-6.93S647.38,1040.23,638.27,1040.23Z"/><path class="cls-5" d="M668.42,858.94H612.53a2,2,0,0,1,0-4h55.88A2,2,0,0,1,668.42,858.94Z"/><path class="cls-5" d="M595.07,867.87c-10.91,0-19.46-4.8-19.46-10.93S584.15,846,595.07,846s19.46,4.8,19.46,10.93S606,867.87,595.07,867.87Zm0-17.85c-9.11,0-15.46,3.65-15.46,6.93s6.35,6.93,15.46,6.93,15.46-3.65,15.46-6.93S604.18,850,595.07,850Z"/><path class="cls-5" d="M1267.13,1068.31a2,2,0,0,1-1-.27l-58.57-34a2,2,0,0,1,0-3.46l41-23.64-57.67-33.52a2,2,0,1,1,2-3.46l60.66,35.25a2,2,0,0,1,0,3.46l-41,23.64,55.59,32.3A2,2,0,0,1,1267.13,1068.31Z"/><path class="cls-5" d="M1417.49,1053.3a2,2,0,0,1-1-.27l-96.77-56.23a2,2,0,0,1,0-3.46L1391.39,952l-78.11-45.39a2,2,0,1,1,2-3.46l81.09,47.13a2,2,0,0,1,0,3.46l-71.66,41.37,93.78,54.5A2,2,0,0,1,1417.49,1053.3Z"/><path class="cls-5" d="M1422.73,1070.74c-10.91,0-19.46-4.8-19.46-10.93s8.55-10.93,19.46-10.93,19.46,4.8,19.46,10.93S1433.64,1070.74,1422.73,1070.74Zm0-17.85c-9.11,0-15.46,3.65-15.46,6.93s6.35,6.93,15.46,6.93,15.46-3.65,15.46-6.93S1431.84,1052.89,1422.73,1052.89Z"/><path class="cls-5" d="M1191.86,654.17a2,2,0,0,1-1-3.73l57.67-33.52-41-23.64a2,2,0,0,1,0-3.46l58.57-34a2,2,0,1,1,2,3.46l-55.59,32.3,41,23.64a2,2,0,0,1,0,3.46l-60.66,35.25A2,2,0,0,1,1191.86,654.17Z"/><path class="cls-5" d="M1295.82,753.81a2,2,0,0,1-1-3.73l66.13-38.44-71.66-41.37a2,2,0,0,1,0-3.46L1386,610.57a2,2,0,1,1,2,3.46l-93.78,54.5,71.66,41.37a2,2,0,0,1,0,3.46l-69.12,40.17A2,2,0,0,1,1295.82,753.81Z"/><path class="cls-5" d="M1392.29,614.71c-10.91,0-19.46-4.8-19.46-10.93s8.55-10.93,19.46-10.93,19.46,4.8,19.46,10.93S1403.2,614.71,1392.29,614.71Zm0-17.85c-9.11,0-15.46,3.65-15.46,6.93s6.35,6.93,15.46,6.93,15.46-3.65,15.46-6.93S1401.4,596.86,1392.29,596.86Z"/><path class="cls-5" d="M745.8,740.55a2,2,0,0,1-1-.27l-67.4-39.17a2,2,0,0,1,0-3.46l59.07-34.1L706,645.67a2,2,0,1,1,2-3.45l33.39,19.61a2,2,0,0,1,0,3.46l-59.05,34.1,64.41,37.43A2,2,0,0,1,745.8,740.55Z"/><path class="cls-5" d="M702.71,646.29c-9.41,0-16.51-4-16.51-9.42s7.1-9.42,16.51-9.42,16.51,4,16.51,9.42S712.12,646.29,702.71,646.29Zm0-14.84c-7.16,0-12.51,2.86-12.51,5.42s5.35,5.42,12.51,5.42,12.51-2.86,12.51-5.42S709.87,631.45,702.71,631.45Z"/><path class="cls-5" d="M1425.77,858.94h-55.88a2,2,0,0,1,0-4h55.88A2,2,0,0,1,1425.77,858.94Z"/><path class="cls-5" d="M1443.23,867.87c-10.91,0-19.46-4.8-19.46-10.93s8.55-10.93,19.46-10.93,19.46,4.8,19.46,10.93S1454.14,867.87,1443.23,867.87Zm0-17.85c-9.11,0-15.46,3.65-15.46,6.93s6.35,6.93,15.46,6.93,15.46-3.65,15.46-6.93S1452.34,850,1443.23,850Z"/><path class="cls-5" d="M1018.09,1149.52a2,2,0,0,1-2-2v-70.63a2,2,0,0,1,4,0v70.63A2,2,0,0,1,1018.09,1149.52Z"/><path class="cls-5" d="M1018.09,1176.59c-10.91,0-19.46-4.8-19.46-10.93s8.55-10.93,19.46-10.93,19.46,4.8,19.46,10.93S1029,1176.59,1018.09,1176.59Zm0-17.85c-9.11,0-15.46,3.65-15.46,6.93s6.35,6.93,15.46,6.93,15.46-3.65,15.46-6.93S1027.2,1158.74,1018.09,1158.74Z"/><g class="cls-6"><polygon class="cls-1" points="1346.48 811.9 1019.15 1002.13 689.69 811.91 1017.02 621.69 1346.48 811.9"/><path class="cls-1" d="M1019.15,1004.12a2,2,0,0,1-1-.27L688.69,813.64a2,2,0,0,1,0-3.46L1016,620a2,2,0,0,1,2,0l329.46,190.21a2,2,0,0,1,0,3.46l-327.33,190.22A2,2,0,0,1,1019.15,1004.12ZM693.68,811.91l325.46,187.91,323.35-187.91L1017,624Z"/><path class="cls-2" d="M943.26,878.2l-53.53-30.91a2.31,2.31,0,0,0-2.33,0l-68,39.52,4.65,2.68L888.56,852l48.89,28.22-32,18.57L872.92,917.7l4.65,2.69,30.25-17.58,35.45-20.58a2.35,2.35,0,0,0,1.15-2A2.32,2.32,0,0,0,943.26,878.2Z"/><path class="cls-2" d="M1074.87,905.7L1020.94,937,1076.23,969l-4.65,2.7-55.29-31.92L963.86,970.2h0l-4.65-2.68L1015.13,935l58.56-34a2.34,2.34,0,0,1,2.34,0l58.76,33.93-4.63,2.69Z"/><path class="cls-2" d="M1314.23,830.64l-4.63,2.7-96.54-55.73-82.88,48.18L1090,849.12l96.53,55.73-4.65,2.7-97.69-56.41a2.32,2.32,0,0,1-1.16-2,2.35,2.35,0,0,1,1.15-2l40.2-23.37L959.14,728.37l-206.39,120-4.65-2.69L958,723.66l0.06,0,0.24-.1,0.19-.07,0.23-.06,0.21,0h0.44l0.24,0,0.21,0a1.47,1.47,0,0,1,.21.07l0.22,0.1,0.07,0L1129,821.07l82.87-48.17a2.31,2.31,0,0,1,2.33,0Z"/><path class="cls-2" d="M1158.43,703.32l-31.71,18.43-6.93-4-58.06-33.52,31.71-18.43-4.65-2.68-31.71,18.43-71.77-41.44-4.65,2.7,75.25,43.44,69.63,40.2a2.18,2.18,0,0,0,.57.23,2.09,2.09,0,0,0,.59.08l0.2,0a2.15,2.15,0,0,0,.4-0.06,1.34,1.34,0,0,0,.2-0.07,2.47,2.47,0,0,0,.36-0.16h0l35.2-20.46Z"/><path class="cls-2" d="M893.48,728.32L863.41,711l-4.65,2.7,28.91,16.68-76.35,44.37L782.41,758l-4.63,2.69,32.38,18.7a2.3,2.3,0,0,0,1.16.31,2.38,2.38,0,0,0,1.18-.31l81-47.07a2.35,2.35,0,0,0,1.15-2A2.3,2.3,0,0,0,893.48,728.32Z"/><polygon class="cls-2" points="1019.15 1002.13 1018.83 1047.15 689.37 856.94 689.69 811.91 1019.15 1002.13"/><path class="cls-3" d="M1018.83,1049.15a2,2,0,0,1-1-.27L688.37,858.67a2,2,0,0,1-1-1.75l0.32-45a2,2,0,0,1,3-1.72l329.46,190.21a2,2,0,0,1,1,1.75l-0.32,45A2,2,0,0,1,1018.83,1049.15ZM691.38,855.79l325.47,187.91,0.29-40.43L691.67,815.36Z"/><polygon class="cls-2" points="1018.51 1002.13 1018.83 1047.15 1346.8 856.94 1346.48 811.91 1018.51 1002.13"/><path class="cls-3" d="M1018.83,1049.15a2,2,0,0,1-2-2l-0.32-45a2,2,0,0,1,1-1.74l328-190.21a2,2,0,0,1,3,1.72l0.32,45a2,2,0,0,1-1,1.74l-328,190.21A2,2,0,0,1,1018.83,1049.15Zm1.69-45.88,0.29,40.42,324-187.9-0.29-40.42Z"/></g><g class="cls-6"><polygon class="cls-2" points="1174.75 759.64 1018.65 850.35 861.53 759.64 1017.63 668.93 1174.75 759.64"/><path class="cls-3" d="M1018.65,852.35a2,2,0,0,1-1-.27L860.54,761.38a2,2,0,0,1,0-3.46l156.1-90.71a2,2,0,0,1,2,0l157.11,90.71a2,2,0,0,1,0,3.46l-156.1,90.72A2,2,0,0,1,1018.65,852.35ZM865.53,759.64L1018.65,848l152.11-88.4-153.12-88.4Z"/></g><g class="cls-6"><polygon class="cls-4" points="1018.67 727.37 1018.5 875.05 837.04 770.29 837.22 622.6 1018.67 727.37"/><polygon class="cls-2" points="857.89 679.3 919.45 714.83 919.45 773.02 857.82 737.44 857.89 679.3"/><path class="cls-3" d="M919.45,775a2,2,0,0,1-1-.27l-61.63-35.58a2,2,0,0,1-1-1.74l0.08-58.14a2,2,0,0,1,3-1.73l61.56,35.53a2,2,0,0,1,1,1.73V773A2,2,0,0,1,919.45,775Zm-59.63-38.73,57.63,33.27V716l-57.56-33.23Z"/><polygon class="cls-2" points="997.9 760.13 997.84 818.29 936.27 782.74 936.27 724.55 997.9 760.13"/><path class="cls-3" d="M997.84,820.29a2,2,0,0,1-1-.27l-61.57-35.55a2,2,0,0,1-1-1.73V724.55a2,2,0,0,1,3-1.73L998.9,758.4a2,2,0,0,1,1,1.73l-0.06,58.16A2,2,0,0,1,997.84,820.29Zm-59.57-38.7,57.58,33.24,0.06-53.54L938.27,728v53.57Z"/><polygon class="cls-2" points="1018.32 727.37 1018.5 875.05 1199.13 770.29 1198.95 622.6 1018.32 727.37"/><path class="cls-3" d="M1018.5,877.05a2,2,0,0,1-2-2l-0.17-147.69a2,2,0,0,1,1-1.73L1198,620.87a2,2,0,0,1,3,1.73l0.17,147.69a2,2,0,0,1-1,1.73L1019.5,876.78A2,2,0,0,1,1018.5,877.05Zm1.83-148.54,0.17,143.07,176.63-102.44L1197,626.07Z"/><polygon class="cls-1" points="1179.1 679.3 1117.55 714.83 1117.55 773.02 1179.18 737.44 1179.1 679.3"/><polygon class="cls-1" points="1039.09 760.13 1039.15 818.29 1100.73 782.74 1100.73 724.55 1039.09 760.13"/><polygon class="cls-2" points="1198.95 622.6 1018.67 727.37 837.22 622.6 1017.5 517.84 1198.95 622.6"/><path class="cls-3" d="M1018.67,729.37a2,2,0,0,1-1-.27L836.22,624.34a2,2,0,0,1,0-3.46L1016.5,516.11a2,2,0,0,1,2,0L1200,620.87a2,2,0,0,1,0,3.46L1019.68,729.09A2,2,0,0,1,1018.67,729.37ZM841.21,622.6l177.46,102.46L1195,622.6,1017.5,520.15Z"/><polygon class="cls-2" points="1111.68 622.6 1018.39 676.81 924.49 622.6 1017.78 568.39 1111.68 622.6"/><path class="cls-3" d="M1018.39,678.81a2,2,0,0,1-1-.27l-93.9-54.21a2,2,0,0,1,0-3.46l93.29-54.21a2,2,0,0,1,2,0l93.9,54.21a2,2,0,0,1,0,3.46l-93.29,54.21A2,2,0,0,1,1018.39,678.81ZM928.48,622.6l89.9,51.91,89.3-51.9-89.9-51.91Z"/></g><g class="cls-6"><polygon class="cls-2" points="1018.65 667.46 1018.5 712.81 861.38 622.1 861.53 576.75 1018.65 667.46"/><path class="cls-3" d="M1018.5,714.81a2,2,0,0,1-1-.27L860.38,623.84a2,2,0,0,1-1-1.74l0.15-45.35a2,2,0,0,1,3-1.73l157.11,90.71a2,2,0,0,1,1,1.74l-0.15,45.35A2,2,0,0,1,1018.5,714.81ZM863.39,621l153.12,88.4,0.14-40.75-153.12-88.4Z"/><polygon class="cls-2" points="1018.35 667.46 1018.5 712.81 1175.61 622.1 1175.46 576.75 1018.35 667.46"/><path class="cls-3" d="M1018.5,714.81a2,2,0,0,1-2-2l-0.15-45.35a2,2,0,0,1,1-1.74L1174.46,575a2,2,0,0,1,3,1.73l0.15,45.35a2,2,0,0,1-1,1.74L1019.5,714.55A2,2,0,0,1,1018.5,714.81Zm1.85-46.2,0.14,40.75L1173.61,621l-0.14-40.75Z"/><polygon class="cls-2" points="1174.75 576.74 1018.65 667.46 861.53 576.75 1017.63 486.03 1174.75 576.74"/><path class="cls-3" d="M1018.65,669.46a2,2,0,0,1-1-.27L860.54,578.48a2,2,0,0,1,0-3.46l156.1-90.72a2,2,0,0,1,2,0L1175.75,575a2,2,0,0,1,0,3.46l-156.1,90.72A2,2,0,0,1,1018.65,669.46ZM865.53,576.74l153.12,88.4,152.11-88.4-153.12-88.4Z"/></g><g class="cls-6"><polygon class="cls-4" points="1018.67 544.47 1018.5 692.16 837.04 587.4 837.22 439.71 1018.67 544.47"/><polygon class="cls-2" points="857.89 496.4 919.45 531.93 919.45 590.12 857.82 554.55 857.89 496.4"/><path class="cls-3" d="M919.45,592.12a2,2,0,0,1-1-.27l-61.63-35.58a2,2,0,0,1-1-1.73l0.08-58.14a2,2,0,0,1,3-1.73l61.56,35.53a2,2,0,0,1,1,1.73v58.19A2,2,0,0,1,919.45,592.12Zm-59.63-38.73,57.63,33.27V533.09l-57.56-33.23Z"/><polygon class="cls-2" points="997.9 577.23 997.84 635.39 936.27 599.85 936.27 541.65 997.9 577.23"/><path class="cls-3" d="M997.84,637.39a2,2,0,0,1-1-.27l-61.57-35.55a2,2,0,0,1-1-1.73V541.66a2,2,0,0,1,3-1.73L998.9,575.5a2,2,0,0,1,1,1.73l-0.06,58.16A2,2,0,0,1,997.84,637.39Zm-59.57-38.7,57.58,33.24,0.06-53.54-57.63-33.27v53.57Z"/><polygon class="cls-2" points="1018.32 544.47 1018.5 692.16 1199.13 587.4 1198.95 439.71 1018.32 544.47"/><path class="cls-3" d="M1018.5,694.16a2,2,0,0,1-2-2l-0.17-147.69a2,2,0,0,1,1-1.73L1198,438a2,2,0,0,1,3,1.73l0.17,147.69a2,2,0,0,1-1,1.73L1019.5,693.89A2,2,0,0,1,1018.5,694.16Zm1.83-148.54,0.17,143.07,176.63-102.44L1197,443.18Z"/><polygon class="cls-1" points="1179.1 496.4 1117.55 531.93 1117.55 590.12 1179.18 554.55 1179.1 496.4"/><polygon class="cls-1" points="1039.09 577.23 1039.15 635.39 1100.73 599.85 1100.73 541.65 1039.09 577.23"/><polygon class="cls-2" points="1198.95 439.7 1018.67 544.47 837.22 439.71 1017.5 334.94 1198.95 439.7"/><path class="cls-3" d="M1018.67,546.47a2,2,0,0,1-1-.27L836.22,441.44a2,2,0,0,1,0-3.46L1016.5,333.21a2,2,0,0,1,2,0L1200,438a2,2,0,0,1,0,3.46L1019.68,546.2A2,2,0,0,1,1018.67,546.47ZM841.21,439.7l177.46,102.46L1195,439.71,1017.5,337.25Z"/><polygon class="cls-2" points="1111.68 439.7 1018.39 493.92 924.49 439.71 1017.78 385.49 1111.68 439.7"/><path class="cls-3" d="M1018.39,495.92a2,2,0,0,1-1-.27l-93.9-54.21a2,2,0,0,1,0-3.46l93.29-54.22a2,2,0,0,1,2,0l93.9,54.21a2,2,0,0,1,0,3.46l-93.29,54.22A2,2,0,0,1,1018.39,495.92ZM928.48,439.7l89.9,51.91,89.3-51.9-89.9-51.91Z"/></g><g class="cls-6"><polygon class="cls-2" points="1018.65 484.56 1018.5 529.92 861.38 439.21 861.53 393.85 1018.65 484.56"/><path class="cls-3" d="M1018.5,531.92a2,2,0,0,1-1-.27L860.38,440.94a2,2,0,0,1-1-1.74l0.15-45.35a2,2,0,0,1,3-1.73l157.11,90.71a2,2,0,0,1,1,1.74l-0.15,45.35A2,2,0,0,1,1018.5,531.92ZM863.39,438.06l153.12,88.4,0.14-40.74-153.12-88.4Z"/><polygon class="cls-2" points="1018.35 484.56 1018.5 529.92 1175.61 439.21 1175.46 393.85 1018.35 484.56"/><path class="cls-3" d="M1018.5,531.92a2,2,0,0,1-2-2l-0.15-45.35a2,2,0,0,1,1-1.74l157.11-90.71a2,2,0,0,1,3,1.73l0.15,45.35a2,2,0,0,1-1,1.74L1019.5,531.65A2,2,0,0,1,1018.5,531.92Zm1.85-46.2,0.14,40.74,153.12-88.4-0.14-40.74Z"/><polygon class="cls-2" points="1174.75 393.85 1018.65 484.56 861.53 393.85 1017.63 303.14 1174.75 393.85"/><path class="cls-3" d="M1018.65,486.56a2,2,0,0,1-1-.27L860.54,395.59a2,2,0,0,1,0-3.46l156.1-90.72a2,2,0,0,1,2,0l157.11,90.71a2,2,0,0,1,0,3.46l-156.1,90.72A2,2,0,0,1,1018.65,486.56ZM865.53,393.85l153.12,88.4,152.11-88.4-153.12-88.4Z"/></g><g class="cls-6"><polygon class="cls-4" points="1018.67 361.57 1018.5 509.26 837.04 404.5 837.22 256.81 1018.67 361.57"/><polygon class="cls-2" points="857.89 313.51 919.45 349.04 919.45 407.23 857.82 371.65 857.89 313.51"/><path class="cls-3" d="M919.45,409.23a2,2,0,0,1-1-.27l-61.63-35.58a2,2,0,0,1-1-1.73l0.08-58.14a2,2,0,0,1,3-1.73l61.56,35.53a2,2,0,0,1,1,1.73v58.19A2,2,0,0,1,919.45,409.23ZM859.82,370.5l57.63,33.27V350.19L859.89,317Z"/><polygon class="cls-2" points="997.9 394.34 997.84 452.5 936.27 416.95 936.27 358.76 997.9 394.34"/><path class="cls-3" d="M997.84,454.5a2,2,0,0,1-1-.27l-61.57-35.55a2,2,0,0,1-1-1.73V358.76a2,2,0,0,1,3-1.73l61.63,35.58a2,2,0,0,1,1,1.73l-0.06,58.16A2,2,0,0,1,997.84,454.5Zm-59.57-38.7L995.84,449l0.06-53.54-57.63-33.27v53.57Z"/><polygon class="cls-2" points="1018.32 361.57 1018.5 509.26 1199.13 404.5 1198.95 256.81 1018.32 361.57"/><path class="cls-3" d="M1018.5,511.26a2,2,0,0,1-2-2l-0.17-147.69a2,2,0,0,1,1-1.73L1198,255.08a2,2,0,0,1,3,1.73l0.17,147.69a2,2,0,0,1-1,1.73L1019.5,511A2,2,0,0,1,1018.5,511.26Zm1.83-148.54,0.17,143.07,176.63-102.44L1197,260.28Z"/><polygon class="cls-1" points="1179.1 313.51 1117.55 349.04 1117.55 407.23 1179.18 371.65 1179.1 313.51"/><polygon class="cls-1" points="1039.09 394.34 1039.15 452.5 1100.73 416.95 1100.73 358.76 1039.09 394.34"/><polygon class="cls-2" points="1198.95 256.81 1018.67 361.57 837.22 256.81 1017.5 152.04 1198.95 256.81"/><path class="cls-3" d="M1018.67,363.57a2,2,0,0,1-1-.27L836.22,258.55a2,2,0,0,1,0-3.46L1016.5,150.32a2,2,0,0,1,2,0L1200,255.07a2,2,0,0,1,0,3.46L1019.68,363.3A2,2,0,0,1,1018.67,363.57ZM841.21,256.81l177.46,102.46L1195,256.81,1017.5,154.36Z"/><polygon class="cls-1" points="1111.68 256.81 1018.39 311.02 924.49 256.81 1017.78 202.6 1111.68 256.81"/></g></svg>