<svg class="gridItem__media" version="1.1" id="Layer_1" xmlns="http://www.w3.org/2000/svg" xmlns:xlink="http://www.w3.org/1999/xlink" x="0px" y="0px" width="1600" height="1200" viewBox="0 0 1600 1200" style="enable-background:new 0 0 1600 1200;" xml:space="preserve" fill="none">
<path d="M1228.94 1018.18L1388.48 701.46C1397.06 684.43 1396.38 664.2 1386.68 647.78L1139.41 229.22C1129.69 212.76 1112.24 202.4 1093.14 201.74L485.11 180.66C466.82 180.03 449.38 188.37 438.39 203L217.13 497.64C206.83 511.36 203.38 529.04 207.78 545.62L333.11 1018.18H1228.94V1018.18Z" fill="#3F4249"/>
<path d="M286.39 850.59H1313.35L1228.94 1018.18H333.11L286.39 850.59Z" fill="#858990"/>
<path d="M819.16 397.08C819.16 397.08 777.6 441.04 747.09 469.53C725.58 489.61 659.92 549.98 659.92 549.98C659.92 549.98 711.78 582.35 732.49 594.4C748.61 603.78 797.73 632.81 797.73 632.81C797.73 632.81 897.23 584.42 929.93 566.98C947.98 557.35 1000.79 526.07 1000.79 526.07C1000.79 526.07 923.37 478.51 898.63 460.94C877.97 446.26 819.16 397.08 819.16 397.08Z" fill="#D9DCDE"/>
<path d="M659.92 549.97C659.92 549.97 725.58 489.61 747.09 469.52C777.6 441.04 819.16 397.07 819.16 397.07V451.88L801.28 453.62L830.35 488.48L775.47 487.32L786.88 511.14L695.27 577.2L659.92 549.97Z" fill="white"/>
<path d="M1102.3 440.23C1102.3 440.23 994.989 505.55 956.699 526.44C910.809 551.48 765.189 621.9 765.189 621.9L976.699 765.38L1352.84 655.68L1299.84 550.72C1299.84 550.72 1217.48 513.13 1191.47 499.23C1140.68 472.08 1102.3 440.23 1102.3 440.23Z" fill="#D9DCDE"/>
<path opacity="0.2" d="M1102.3 440.23C1102.3 440.23 994.989 505.55 956.699 526.44C910.809 551.48 765.189 621.9 765.189 621.9L976.699 765.38L1352.84 655.68L1299.84 550.72C1299.84 550.72 1217.48 513.13 1191.47 499.23C1140.68 472.08 1102.3 440.23 1102.3 440.23Z" fill="black"/>
<path d="M765.189 621.9C765.189 621.9 910.809 551.48 956.699 526.44C994.989 505.55 1102.3 440.23 1102.3 440.23L1050.09 511.27L1091.62 524.74L1033.21 538.33L1036.38 568.17L917.479 593.81L945.169 619.7L779.619 642.05L765.189 621.9Z" fill="white"/>
<path d="M535.49 410.09C535.49 410.09 599.09 453.57 620.16 467.44C704.39 522.91 1039.26 714.86 1039.26 714.86L835.01 799.88L234.03 643.14L219.05 589.7C219.05 589.7 334.3 537.03 381.83 511.56C434.77 483.2 535.49 410.09 535.49 410.09Z" fill="#858990"/>
<path d="M219.06 589.7C219.06 589.7 314.57 550.27 381.84 511.56C451.07 471.72 535.5 410.09 535.5 410.09L549.98 470.74L498.68 489.29L537.98 511.13L254.05 683.69L219.06 589.7Z" fill="white"/>
<path d="M243.75 462.19L216.76 498.13C206.67 511.56 203.15 528.82 207.16 545.13L255.76 742.75L521.83 752.81L578.19 698.22C578.19 698.22 526.92 657.21 492.09 697.17C492.09 697.17 504.97 582.64 443.33 565.2C425.22 560.08 401.57 570.76 391.39 598.9C391.39 598.9 388.34 564.84 362.7 556.04C348.49 551.17 339.38 559.41 334.08 567.74C334.08 567.74 334.36 534.88 295.57 539.51C295.56 539.52 294.85 484.21 243.75 462.19Z" fill="#D9DCDE"/>
<path d="M751.89 781.12C751.89 781.12 783 708.11 855.87 715.74C873.79 717.62 900.45 734.76 902.81 749.75C902.81 749.75 905.95 718.52 942.36 718.7C953.32 718.76 962.34 721.94 969.61 726.37C969.61 726.37 961.67 695.53 1004.33 693.32C1004.33 693.32 989.72 649.47 1004.33 643.55C1018.94 637.63 1026.76 667.49 1026.76 667.49C1026.76 667.49 1020.2 617.75 1032.26 615C1044.32 612.25 1054.26 658.57 1054.26 658.57C1054.26 658.57 1059.64 585.68 1146.35 597.98C1146.35 597.98 1129.88 558.68 1153.3 555.7C1159.89 554.86 1165.57 558.62 1170.32 564.46C1170.32 564.46 1162.24 521.27 1209.45 501.2C1209.45 501.2 1189.6 474.67 1203.39 467.27C1213.24 461.98 1227.16 480.31 1234.31 491.22C1234.31 491.22 1244.78 457.95 1270.39 450.93L1386.44 647.37C1396.28 664.03 1396.93 684.56 1388.16 701.81L1312.53 850.59H788.49L751.89 781.12Z" fill="#D9DCDE"/>
<path d="M292.68 651.351C295.11 658.821 297.58 664.191 297.58 664.191C297.58 664.191 296 658.311 292.68 651.351Z" fill="#AFB3B8"/>
<path d="M521.82 752.82C521.22 744.55 515.64 739.46 509.61 736.54C488.59 726.36 476.17 745.14 476.17 745.14C476.7 731.91 473.93 720.38 464.75 714.81C435.38 697 414.13 730.12 414.13 730.12C414.13 730.12 417.25 693.87 402.57 662.31C387.88 630.75 359.14 667.93 359.14 667.93C359.14 667.93 371.01 588.56 346.95 592.94C322.89 597.32 326.01 652.74 326.01 652.74C326.01 652.74 313.2 597 295.39 608.88C283.84 616.58 288.19 637.55 292.68 651.35C296.01 658.31 297.58 664.19 297.58 664.19C297.58 664.19 295.11 658.82 292.68 651.35C287.23 639.94 277.05 625.63 261.33 629.51C236.02 635.76 251.14 726.74 251.14 726.74L286.39 850.6H450.39L521.82 752.82Z" fill="#AFB3B8"/>
<path d="M1313.2 850.65L913.56 850.59C913.56 850.59 905.51 814.92 920.67 805.93C935.83 796.95 955.05 825.39 955.05 825.39C955.05 825.39 951.4 806.93 964.84 807.42C971.61 807.67 975.68 815.67 976.84 823.67C976.84 823.67 972.79 764.37 1049.43 774.12C1049.43 774.12 1042.43 754.39 1069.68 749.23C1069.68 749.23 1082.68 686.28 1146.91 706.07C1146.91 706.07 1142.6 682.12 1158.65 672.32C1172.08 664.11 1181.6 668.98 1187.36 674.81C1187.36 674.81 1174.34 651.03 1192.77 632.92C1200.47 625.35 1208.99 622.29 1216.3 621.29C1216.3 621.29 1224.7 584.63 1274.65 591.31C1294.68 593.99 1307.76 601.39 1316.23 609.29C1316.23 609.29 1328.47 580.51 1358.09 599.39L1385.98 647.44C1396.09 664.02 1396.88 684.65 1388.75 702.02L1313.2 850.65Z" fill="#AFB3B8"/>
<path d="M603.57 1018.18C603.57 1018.18 595.77 985 605.18 981.02C614.59 977.04 610.83 1008.48 610.83 1008.48C610.83 1008.48 618.28 950.01 637.76 950.6C657.24 951.19 626.25 1004.91 626.25 1004.91C626.25 1004.91 646.55 984.39 653.69 992.31C660.42 999.78 638.82 1018.18 638.82 1018.18H603.57V1018.18Z" fill="black"/>
<path d="M658.22 1018.18C658.22 1018.18 678.21 994.07 709.92 994.61C741.63 995.14 759.49 1018.18 759.49 1018.18H658.22Z" class="change-color-in-svg" fill="#4D61FC"/>
<path d="M909.42 1018.18C909.42 1018.18 915.56 1005.79 944.52 1005.18C963.22 1004.79 976.77 1015.74 976.77 1015.74C976.77 1015.74 981.62 1003.92 993.04 1004.84C1004.45 1005.75 1019.05 1018.18 1019.05 1018.18H909.42Z" class="change-color-in-svg" fill="#4D61FC"/>
<path d="M746.659 1018.18C746.659 1018.18 736.029 1002.89 743.979 997.48C751.929 992.07 775.379 1018.18 775.379 1018.18H746.659Z" fill="black"/>
<path d="M781.529 1018.18C781.529 1018.18 788.499 976.34 802.549 975.12C816.599 973.9 800.349 1013.86 800.349 1013.86C800.349 1013.86 827.599 981.96 843.489 983.8C859.379 985.64 829.439 1013.74 829.439 1013.74C829.439 1013.74 856.169 998.63 878.569 1005.06C896.189 1010.12 902.279 1018.18 902.279 1018.18H781.529V1018.18Z" fill="black"/>
<path d="M1039.27 1018.18C1039.27 1018.18 1047.81 998.96 1078.72 996.95C1078.72 996.95 1056.23 978.98 1063.01 970.44C1069.8 961.9 1097.19 990.92 1097.19 990.92C1097.19 990.92 1090.4 967.05 1097.19 964.03C1103.98 961.01 1116.29 988.28 1116.29 988.28C1116.29 988.28 1118.8 957.62 1156.25 965.16C1156.25 965.16 1134.09 935.07 1154.04 918.69C1162.71 911.57 1175.03 915.7 1186.18 922.65C1186.18 922.65 1148.59 866.18 1174.39 854.12C1200.19 842.06 1232.4 894.8 1232.4 894.8C1232.4 894.8 1233.72 859.77 1287.39 869.19C1287.39 869.19 1254.75 848.23 1265.88 841.09C1277.01 833.94 1298.81 850 1298.81 850C1298.81 850 1258.02 816.12 1273.03 801.72C1288.38 787 1322.79 831.86 1322.79 831.86L1228.94 1018.17H1039.27V1018.18Z" fill="black"/>
<path d="M1284.51 1019.38H287.81C287.45 1019.38 287.21 1019.14 287.21 1018.78C287.21 1018.42 287.45 1018.18 287.81 1018.18H1284.63C1284.99 1018.18 1285.23 1018.42 1285.23 1018.78C1285.23 1019.14 1284.87 1019.38 1284.51 1019.38Z" fill="#B2B6BB"/>
<path d="M669.75 250.23C686.58 275.33 680.56 309.43 655.85 327.19C639.26 339.11 618.38 340.71 600.87 333.22C619.1 355.26 651.56 359.7 675.14 342.76C699.75 325.07 705.36 290.79 687.67 266.18C682.77 259.38 676.61 254.03 669.75 250.23Z" fill="white"/>
<path d="M830.35 274.52C831.416 274.52 832.28 273.656 832.28 272.59C832.28 271.524 831.416 270.66 830.35 270.66C829.284 270.66 828.42 271.524 828.42 272.59C828.42 273.656 829.284 274.52 830.35 274.52Z" fill="white"/>
<path d="M710.56 229.94C711.626 229.94 712.49 229.076 712.49 228.01C712.49 226.944 711.626 226.08 710.56 226.08C709.494 226.08 708.63 226.944 708.63 228.01C708.63 229.076 709.494 229.94 710.56 229.94Z" fill="white"/>
<path d="M1102.3 274.52C1103.37 274.52 1104.23 273.656 1104.23 272.59C1104.23 271.524 1103.37 270.66 1102.3 270.66C1101.23 270.66 1100.37 271.524 1100.37 272.59C1100.37 273.656 1101.23 274.52 1102.3 274.52Z" fill="white"/>
<path d="M325.63 409.16C326.696 409.16 327.56 408.296 327.56 407.23C327.56 406.164 326.696 405.3 325.63 405.3C324.564 405.3 323.7 406.164 323.7 407.23C323.7 408.296 324.564 409.16 325.63 409.16Z" fill="white"/>
<path d="M911.25 332.79C912.316 332.79 913.18 331.926 913.18 330.86C913.18 329.794 912.316 328.93 911.25 328.93C910.184 328.93 909.32 329.794 909.32 330.86C909.32 331.926 910.184 332.79 911.25 332.79Z" fill="white"/>
<path d="M1000.79 252.16C1001.86 252.16 1002.72 251.296 1002.72 250.23C1002.72 249.164 1001.86 248.3 1000.79 248.3C999.724 248.3 998.86 249.164 998.86 250.23C998.86 251.296 999.724 252.16 1000.79 252.16Z" fill="white"/>
<path d="M1154.91 372.93C1155.98 372.93 1156.84 372.066 1156.84 371C1156.84 369.934 1155.98 369.07 1154.91 369.07C1153.84 369.07 1152.98 369.934 1152.98 371C1152.98 372.066 1153.84 372.93 1154.91 372.93Z" fill="white"/>
<path d="M1008.73 423C1009.8 423 1010.66 422.136 1010.66 421.07C1010.66 420.004 1009.8 419.14 1008.73 419.14C1007.66 419.14 1006.8 420.004 1006.8 421.07C1006.8 422.136 1007.66 423 1008.73 423Z" fill="white"/>
<path d="M765.19 365.421C766.256 365.421 767.12 364.556 767.12 363.491C767.12 362.425 766.256 361.561 765.19 361.561C764.124 361.561 763.26 362.425 763.26 363.491C763.26 364.556 764.124 365.421 765.19 365.421Z" fill="white"/>
<path d="M420.84 440.23C421.906 440.23 422.77 439.366 422.77 438.3C422.77 437.234 421.906 436.37 420.84 436.37C419.774 436.37 418.91 437.234 418.91 438.3C418.91 439.366 419.774 440.23 420.84 440.23Z" fill="white"/>
<path d="M490.34 336.65C491.406 336.65 492.27 335.786 492.27 334.72C492.27 333.654 491.406 332.79 490.34 332.79C489.274 332.79 488.41 333.654 488.41 334.72C488.41 335.786 489.274 336.65 490.34 336.65Z" fill="white"/>
<path d="M332.15 491C333.216 491 334.08 490.136 334.08 489.07C334.08 488.004 333.216 487.14 332.15 487.14C331.084 487.14 330.22 488.004 330.22 489.07C330.22 490.136 331.084 491 332.15 491Z" fill="white"/>
<path d="M569.26 288.7C570.326 288.7 571.19 287.836 571.19 286.77C571.19 285.704 570.326 284.84 569.26 284.84C568.194 284.84 567.33 285.704 567.33 286.77C567.33 287.836 568.194 288.7 569.26 288.7Z" fill="white"/>
<path d="M480.31 233.8C481.376 233.8 482.24 232.936 482.24 231.87C482.24 230.805 481.376 229.94 480.31 229.94C479.244 229.94 478.38 230.805 478.38 231.87C478.38 232.936 479.244 233.8 480.31 233.8Z" fill="white"/>
<path d="M619.62 407.23C620.686 407.23 621.55 406.366 621.55 405.3C621.55 404.234 620.686 403.37 619.62 403.37C618.555 403.37 617.69 404.234 617.69 405.3C617.69 406.366 618.555 407.23 619.62 407.23Z" fill="white"/>
<path d="M745.14 430.6C746.206 430.6 747.07 429.736 747.07 428.67C747.07 427.604 746.206 426.74 745.14 426.74C744.074 426.74 743.21 427.604 743.21 428.67C743.21 429.736 744.074 430.6 745.14 430.6Z" fill="white"/>
<path d="M394.89 338.57C395.956 338.57 396.82 337.706 396.82 336.64C396.82 335.574 395.956 334.71 394.89 334.71C393.824 334.71 392.96 335.574 392.96 336.64C392.96 337.706 393.824 338.57 394.89 338.57Z" fill="white"/>
<path d="M1099.71 941.479H1017.61C1014.4 941.479 1011.79 938.879 1011.79 935.659V804.389C1011.79 801.179 1014.39 798.569 1017.61 798.569H1099.71C1102.92 798.569 1105.53 801.169 1105.53 804.389V935.659C1105.53 938.869 1102.92 941.479 1099.71 941.479Z" class="change-color-in-svg" fill="#4D61FC"/>
<path opacity="0.15" d="M1099.71 941.479H1017.61C1014.4 941.479 1011.79 938.879 1011.79 935.659V804.389C1011.79 801.179 1014.39 798.569 1017.61 798.569H1099.71C1102.92 798.569 1105.53 801.169 1105.53 804.389V935.659C1105.53 938.869 1102.92 941.479 1099.71 941.479Z" fill="white"/>
<path d="M1084.83 941.479H1002.73C999.52 941.479 996.91 938.879 996.91 935.659V804.389C996.91 801.179 999.51 798.569 1002.73 798.569H1084.83C1088.04 798.569 1090.65 801.169 1090.65 804.389V935.659C1090.65 938.869 1088.04 941.479 1084.83 941.479Z" class="change-color-in-svg" fill="#4D61FC"/>
<path opacity="0.3" d="M1084.83 941.479H1002.73C999.52 941.479 996.91 938.879 996.91 935.659V804.389C996.91 801.179 999.51 798.569 1002.73 798.569H1084.83C1088.04 798.569 1090.65 801.169 1090.65 804.389V935.659C1090.65 938.869 1088.04 941.479 1084.83 941.479Z" fill="white"/>
<g opacity="0.3">
<path opacity="0.3" d="M1061.08 896.079H1060.27C1058.04 896.079 1056.24 893.969 1056.24 891.379V847.659C1056.24 845.739 1054.9 844.179 1053.25 844.179H1052.78C1051.13 844.179 1049.79 845.739 1049.79 847.659V883.129C1049.79 885.719 1047.98 887.829 1045.76 887.829C1043.54 887.829 1041.73 885.719 1041.73 883.129V835.439H1042.78V883.129C1042.78 885.049 1044.12 886.609 1045.77 886.609C1047.42 886.609 1048.76 885.049 1048.76 883.129V847.659C1048.76 845.069 1050.57 842.959 1052.79 842.959H1053.26C1055.48 842.959 1057.29 845.069 1057.29 847.659V891.379C1057.29 893.299 1058.63 894.859 1060.28 894.859H1061.09C1062.74 894.859 1064.08 893.299 1064.08 891.379V858.599C1064.08 854.439 1064.78 850.389 1066.16 846.549C1067.49 842.869 1068.16 838.969 1068.16 834.969V813.589C1068.16 805.369 1061.82 798.629 1061.76 798.569H1063.27C1063.53 798.839 1069.2 804.809 1069.2 813.589V834.969C1069.2 839.129 1068.5 843.179 1067.12 847.019C1065.79 850.699 1065.12 854.599 1065.12 858.599V891.369C1065.11 893.969 1063.3 896.079 1061.08 896.079Z" fill="black"/>
</g>
<g opacity="0.3">
<path opacity="0.3" d="M1078.49 941.48H1064.23V925.83C1064.23 923.43 1064.97 921.11 1066.3 919.29L1072.02 911.5C1073.19 909.9 1073.84 907.86 1073.84 905.75V889.3C1073.84 887.8 1074.88 886.59 1076.17 886.59C1077.45 886.59 1078.5 887.81 1078.5 889.3V941.48H1078.49ZM1065.27 941.48H1077.44V889.3C1077.44 888.48 1076.87 887.81 1076.16 887.81C1075.45 887.81 1074.88 888.48 1074.88 889.3V905.75C1074.88 908.15 1074.14 910.47 1072.81 912.29L1067.09 920.08C1065.92 921.68 1065.27 923.72 1065.27 925.83V941.48V941.48Z" fill="black"/>
</g>
<g opacity="0.3">
<path opacity="0.3" d="M1078.09 863.56C1075.18 863.56 1072.81 860.8 1072.81 857.4V839.85C1072.81 837.91 1073.5 836.04 1074.69 834.7C1075.68 833.59 1076.25 832.03 1076.25 830.42V805.7C1076.25 804.04 1075.64 802.44 1074.59 801.32L1072.02 798.59H1083.37V857.4C1083.37 860.8 1081.01 863.56 1078.09 863.56ZM1073.58 798.59L1075.3 800.41C1076.57 801.76 1077.3 803.69 1077.3 805.7V830.42C1077.3 832.36 1076.61 834.24 1075.41 835.58C1074.42 836.69 1073.85 838.25 1073.85 839.86V857.41C1073.85 860.13 1075.75 862.35 1078.09 862.35C1080.43 862.35 1082.33 860.13 1082.33 857.41V798.6H1073.58V798.59Z" fill="black"/>
</g>
<g opacity="0.3">
<path opacity="0.3" d="M1038.81 941.48H1028.72V911.1C1028.72 910.25 1029 909.45 1029.52 908.85L1032.87 904.95C1033.18 904.59 1033.36 904.08 1033.36 903.56V890.74C1033.36 888.99 1034.58 887.56 1036.09 887.56C1037.59 887.56 1038.82 888.99 1038.82 890.74V941.48H1038.81ZM1029.76 941.48H1037.76V890.74C1037.76 889.66 1037 888.78 1036.08 888.78C1035.15 888.78 1034.4 889.66 1034.4 890.74V903.56C1034.4 904.41 1034.12 905.21 1033.6 905.81L1030.25 909.71C1029.93 910.08 1029.76 910.57 1029.76 911.1V941.48Z" fill="black"/>
</g>
<path d="M996.55 874.33L996.95 881.49L1000.35 879.91L996.55 874.33Z" fill="#21252B"/>
<path d="M990.88 866.09L998.61 877.33L1007.2 880.9L1012.19 863.84L1004.22 851.54L990.88 866.09Z" fill="#F79898"/>
<path d="M995.89 873.38L998.61 877.33L1007.2 880.9L1012.19 863.84L1008.93 858.8L995.89 873.38Z" fill="white"/>
<path d="M1018.53 875.521L1021.38 880.32L1010.31 906.031C1008.4 910.461 1004.9 913.7 1000.95 916.47L996.841 919.35C991.231 922.22 987.061 915.32 987.061 915.32L992.851 915.54L1003.09 906.88L1018.53 875.521Z" fill="white"/>
<path d="M985.4 913.24C984.39 911.15 984.68 908.67 986.14 906.87L993.27 898.07L991.59 886.8C991.07 883.32 992.8 879.88 995.9 878.23C998.91 876.62 1002.6 877.01 1005.21 879.22L1007.2 880.9L1008.54 864.61C1008.59 864.03 1008.9 863.5 1009.38 863.17L1011.02 862.04L1018.53 875.53L1007.29 901.64C1005.38 906.07 1002.28 909.88 998.33 912.66L994.22 915.54C991.2 917.65 987.01 916.56 985.4 913.24Z" fill="#21252B"/>
<path d="M990.15 901.92C990.15 901.92 990.88 905.56 994.53 904.73C998.18 903.9 1006 894.78 1007.2 880.9C1007.2 880.9 1002.74 875.88 997.23 877.66C991.72 879.45 991.2 884.57 991.79 888.13C992.4 891.84 993.23 898.04 993.27 898.06L990.15 901.92Z" fill="black"/>
<path d="M992.87 895.371L996.86 894.54C997.16 894.48 997.35 894.181 997.29 893.881C997.23 893.581 996.93 893.381 996.63 893.451L992.71 894.271L992.87 895.371Z" fill="white"/>
<path d="M992.29 891.48C992.3 891.48 992.31 891.48 992.33 891.47L997.25 890.44C997.55 890.38 997.74 890.08 997.68 889.78C997.62 889.48 997.32 889.28 997.02 889.35L992.12 890.37L992.29 891.48Z" fill="white"/>
<path d="M991.7 887.5L997.55 886.28C997.85 886.22 998.04 885.92 997.98 885.62C997.92 885.32 997.62 885.12 997.32 885.19L991.55 886.39L991.7 887.5Z" fill="white"/>
<path d="M1105.56 737.58V776.62C1105.56 788.78 1095.7 798.64 1083.54 798.64H1060.43L1046.16 882.23H1019.46L1020.11 781.8C1020.16 774.06 1025.01 767.16 1032.28 764.49L1105.56 737.58Z" fill="#21252B"/>
<path opacity="0.15" d="M1039.96 882.22H1046.16L1060.43 798.64H1054.22L1039.96 882.22Z" fill="black"/>
<path opacity="0.15" d="M1099.35 739.86V776.62C1099.35 788.78 1089.49 798.64 1077.33 798.64H1083.54C1095.7 798.64 1105.56 788.78 1105.56 776.62V737.58L1099.35 739.86Z" fill="black"/>
<path d="M974.72 755.019L927.27 755.969C914.83 756.219 908.1 770.649 915.9 780.339L984.94 866.089L1001.78 847.329L968.93 798.579H1022.87L1089.08 746.299L1033.89 727.869L974.72 755.019Z" fill="#21252B"/>
<path opacity="0.15" d="M1012.91 798.57L1013.02 781.79C1013.07 774.05 1017.92 767.15 1025.19 764.48L1098.47 737.58V739.16L1029.83 765.37C1022.56 768.04 1020.17 774.04 1020.12 781.78L1020.01 798.56L1012.91 798.57Z" fill="black"/>
<path d="M996.49 687.169L1085.1 732.569L1114.74 736.529L1108.74 679.629C1107 666.899 1100.3 661.879 1093.87 659.649L1033.96 648.689L996.49 687.169Z" class="change-color-in-svg" fill="#4D61FC"/>
<path d="M960.531 680.54L985.361 648.09C989.911 642.15 997.461 639.36 1004.78 640.92L1086.47 658.31L1030.66 683.45L999.951 684.74L988.791 693.32L959.551 688.66L960.531 680.54Z" class="change-color-in-svg" fill="#4D61FC"/>
<path d="M1054.4 621.889C1054.4 621.889 1068.6 621.329 1074.17 627.019C1078.39 631.329 1079.31 643.489 1069.95 650.579C1060.58 657.679 1047.28 661.879 1047.28 661.879L1054.4 621.889Z" fill="#21252B"/>
<path d="M1052.22 583.62C1061.77 582.78 1065.9 593.2 1067.04 606.12C1068.18 619.04 1065.98 626.86 1056.43 627.7C1046.88 628.54 1038.48 621.65 1037.35 608.73C1036.22 595.81 1042.67 584.46 1052.22 583.62Z" fill="#3F4249"/>
<path d="M1023.09 615.139C1023.09 615.139 1052.39 592.969 1055.69 616.649L1056.69 622.769L1062.84 657.349C1062.92 658.259 1026.46 654.439 1026.51 653.289L1026.88 638.249C1026.36 636.689 1025.97 634.879 1025.79 632.829C1024.66 623.509 1023.09 615.139 1023.09 615.139Z" fill="#F79898"/>
<path d="M1044.98 662.195C1054.69 661.344 1062.17 656.257 1061.69 650.832C1061.22 645.408 1052.96 641.699 1043.26 642.55C1033.55 643.4 1026.07 648.488 1026.55 653.912C1027.02 659.337 1035.27 663.045 1044.98 662.195Z" fill="#F79898"/>
<path d="M1019.56 616.87C1025.38 616.87 1030.09 612.155 1030.09 606.34C1030.09 600.524 1025.38 595.81 1019.56 595.81C1013.74 595.81 1009.03 600.524 1009.03 606.34C1009.03 612.155 1013.74 616.87 1019.56 616.87Z" fill="#3F4249"/>
<path d="M1018.12 598.66C1018.12 598.66 1011.15 645.83 1035.13 646.87C1055.89 647.81 1055.36 615.62 1055.36 615.62L1052.55 594.96L1018.12 598.66Z" fill="#F79898"/>
<path d="M1051.31 610.459C1052.52 621.599 1048.68 628.339 1048.68 628.339C1022.98 627.129 1019.44 632.139 1019.44 632.139C1019.44 632.139 1022.09 644.669 1032.8 646.499C1043.51 648.329 1058.76 640.469 1057.45 626.149C1057.13 622.609 1049.65 603.989 1049.65 603.989L1051.31 610.459Z" fill="#3F4249"/>
<g opacity="0.3">
<path opacity="0.3" d="M1032.63 638.35C1032.63 638.43 1032.71 638.42 1032.63 638.35C1034.62 638.33 1035.54 638.32 1035.54 638.32C1035.92 638.29 1036.13 638.04 1036.17 637.65C1036.14 637.27 1035.88 636.99 1035.5 637.02C1035.5 637.02 1034.58 637.02 1032.67 637.04C1032.29 637.07 1032.01 637.33 1032.03 637.63C1032.07 638.1 1032.32 638.38 1032.63 638.35Z" fill="black"/>
</g>
<path d="M1031.4 635.74C1036.63 636.05 1038.74 633.03 1039.46 631.59C1039.59 631.27 1039.34 630.19 1039.01 629.99C1038.69 629.86 1028.22 633.54 1028.09 633.86C1028.04 634.17 1028.36 635.25 1028.68 635.37C1029.7 635.58 1030.64 635.73 1031.4 635.74Z" fill="white"/>
<path d="M1030.54 603.991C1039.83 603.177 1046.84 596.544 1046.19 589.177C1045.55 581.81 1037.49 576.498 1028.2 577.313C1018.91 578.127 1011.9 584.759 1012.54 592.126C1013.19 599.493 1021.25 604.805 1030.54 603.991Z" fill="#3F4249"/>
<path d="M1050.76 583.969C1056.58 583.459 1061.82 588.999 1062.46 596.339C1063.1 603.679 1059.05 611.639 1053.23 612.149C1047.41 612.659 1042.03 605.529 1041.39 598.189C1040.75 590.849 1044.94 584.479 1050.76 583.969Z" fill="#3F4249"/>
<path opacity="0.15" d="M1056.82 624.289C1056.82 624.289 1054.86 624.619 1053.72 623.869L1057.52 628.739L1056.82 624.289Z" fill="black"/>
<path d="M1052.82 612.119C1052.82 612.119 1055.74 607.609 1060.47 609.189C1065.84 611.019 1065.8 622.809 1057.12 624.259C1052.59 625.039 1053.27 622.299 1053.72 618.659C1053.43 614.389 1052.82 612.119 1052.82 612.119Z" fill="#F79898"/>
<path opacity="0.3" d="M1060.97 612.209C1060 611.679 1059.15 611.529 1058.4 611.749C1057.65 611.969 1057.02 612.559 1056.56 613.519C1056.11 614.479 1055.9 615.569 1056 616.779L1056.01 617.769C1056.04 618.069 1056.28 618.279 1056.59 618.259C1056.89 618.229 1057.1 617.989 1057.08 617.679L1057.07 616.689C1057.04 616.389 1057.06 614.849 1057.52 613.969C1057.85 613.329 1058.27 612.909 1058.71 612.719C1059.16 612.599 1059.78 612.699 1060.42 613.029C1060.66 613.159 1061.03 613.049 1061.17 612.809C1061.32 612.709 1061.21 612.419 1060.97 612.209Z" fill="black"/>
<path d="M1018.29 602.4C1019.27 603.01 1021.35 603.75 1021.35 603.75C1021.57 603.81 1021.91 603.75 1021.99 603.45C1022.07 603.16 1021.99 602.89 1021.69 602.81C1021.69 602.81 1018.79 601.42 1018.51 601.26C1017.98 600.88 1017.15 600.38 1016.2 599.47C1016.02 599.26 1015.71 599.25 1015.5 599.43C1015.29 599.61 1015.28 599.92 1015.46 600.13C1016.36 601.18 1017.96 602.19 1018.29 602.4Z" fill="#F79898"/>
<path opacity="0.15" d="M1026.7 650.989L1026.75 643.839C1029.5 646.049 1033.86 647.569 1040.33 646.319C1040.33 646.319 1044.73 645.609 1049.24 642.649C1049.56 642.409 1049.77 642.359 1049.99 642.519C1050.17 642.729 1050.11 642.939 1049.94 643.129C1049.08 643.999 1045.7 646.079 1040.23 647.369C1032.94 652.999 1026.7 650.989 1026.7 650.989Z" fill="black"/>
<path d="M1038.1 623.799C1039.16 623.799 1040.01 622.944 1040.01 621.89C1040.01 620.835 1039.16 619.979 1038.1 619.979C1037.05 619.979 1036.19 620.835 1036.19 621.89C1036.19 622.944 1037.05 623.799 1038.1 623.799Z" fill="#21252B"/>
<path d="M1038.76 622.749C1038.97 622.749 1039.14 622.579 1039.14 622.369C1039.14 622.159 1038.97 621.989 1038.76 621.989C1038.55 621.989 1038.38 622.159 1038.38 622.369C1038.38 622.579 1038.55 622.749 1038.76 622.749Z" fill="white"/>
<path d="M1023.06 625.2C1024.12 625.2 1024.97 624.345 1024.97 623.29C1024.97 622.235 1024.12 621.38 1023.06 621.38C1022.01 621.38 1021.15 622.235 1021.15 623.29C1021.15 624.345 1022.01 625.2 1023.06 625.2Z" fill="#21252B"/>
<path d="M1023.09 624.63C1023.3 624.63 1023.47 624.46 1023.47 624.25C1023.47 624.04 1023.3 623.87 1023.09 623.87C1022.88 623.87 1022.71 624.04 1022.71 624.25C1022.71 624.46 1022.88 624.63 1023.09 624.63Z" fill="white"/>
<path d="M1013.67 618.65L1013.86 620.78C1014.22 624.88 1017.86 627.929 1021.96 627.569C1026.06 627.209 1029.11 623.569 1028.75 619.469L1028.56 617.34C1028.51 616.73 1028.3 616.14 1027.88 615.71L1030.77 615.46C1030.43 615.95 1030.26 616.579 1030.31 617.189L1030.5 619.319C1030.86 623.419 1034.5 626.469 1038.6 626.109C1042.7 625.749 1045.75 622.109 1045.39 618.009L1045.2 615.879C1045.07 614.359 1043.74 613.249 1042.22 613.379L1032.87 614.199L1032.79 614.21L1025.57 614.84L1024.43 614.939L1016.15 615.669C1014.65 615.809 1013.54 617.13 1013.67 618.65ZM1032.83 615.359L1032.91 615.349L1042.26 614.53C1043.17 614.45 1044 615.139 1044.08 616.059L1044.27 618.189C1044.58 621.689 1041.94 624.749 1038.44 625.059C1034.94 625.369 1031.88 622.729 1031.57 619.229L1031.38 617.099C1031.3 616.189 1032 615.439 1032.83 615.359ZM1014.67 618.639C1014.59 617.729 1015.28 616.899 1016.2 616.819L1024.48 616.09L1025.62 615.989C1026.53 615.909 1027.36 616.599 1027.44 617.519L1027.63 619.65C1027.94 623.15 1025.3 626.209 1021.8 626.519C1018.3 626.829 1015.24 624.189 1014.93 620.689L1014.67 618.639Z" fill="#21252B"/>
<g opacity="0.15">
<path opacity="0.15" d="M1031.03 627.71L1033.16 627.01C1033.39 626.95 1033.56 626.65 1033.5 626.42C1033.44 626.19 1033.14 626.02 1032.91 626.08L1030.78 626.78C1030.27 626.98 1029.67 626.64 1029.47 626.13C1029.27 625.62 1029.61 625.02 1030.12 624.82C1030.35 624.76 1030.52 624.46 1030.46 624.23C1030.4 624 1030.1 623.83 1029.87 623.89C1028.83 624.23 1028.25 625.33 1028.59 626.37C1028.85 627.54 1029.99 628.05 1031.03 627.71Z" fill="black"/>
</g>
<path d="M1072.04 625.369C1072.04 625.369 1084.66 630.009 1088.19 634.649C1089.41 636.249 1091.14 646.939 1091.78 654.829C1092.16 659.469 1089.42 663.789 1085.08 665.459C1079.92 667.449 1074.19 667.369 1069.09 665.249L1066.1 664.009C1063.58 662.959 1060.87 662.399 1058.14 662.359L1044.95 662.179C1044.95 662.179 1060.41 658.229 1072.82 646.759C1076.44 643.429 1079.82 631.199 1072.04 625.369Z" class="change-color-in-svg" fill="#4D61FC"/>
<path d="M1074.01 756.74C1074.01 756.74 1087.55 760.06 1091.39 762.09C1097.13 765.13 1098.42 767.56 1100.26 770.08C1102.25 772.82 1105.56 773.24 1105.56 773.24L1105.85 749.46L1106.02 735.34L1083.78 736.51L1074.01 756.74Z" class="change-color-in-svg" fill="#4D61FC"/>
<path opacity="0.15" d="M1105.85 749.47L1086.39 746.92L1102.78 755.3L1102.55 772.14C1102.55 772.14 1103.96 773 1105.56 773.25L1105.85 749.47Z" fill="black"/>
<path opacity="0.15" d="M1072.04 625.369C1072.04 625.369 1084.66 630.009 1088.19 634.649C1089.41 636.249 1091.14 646.939 1091.78 654.829C1092.16 659.469 1089.42 663.789 1085.08 665.459C1079.92 667.449 1074.19 667.369 1069.09 665.249L1066.1 664.009C1063.58 662.959 1060.87 662.399 1058.14 662.359L1044.95 662.179C1044.95 662.179 1060.41 658.229 1072.82 646.759C1076.44 643.429 1079.82 631.199 1072.04 625.369Z" fill="black"/>
<path d="M1023.03 768.91C1015.37 774.8 1004.26 777.75 996.76 777.75C977.96 777.75 968.94 757.11 968.94 731.64C968.94 706.16 978.1 685.51 996.9 685.51C1002.03 685.51 1015.65 687.96 1023.07 694.4C1023.07 694.4 1034.09 704.64 1047.95 703.39C1050.78 703.13 1053.46 702.11 1055.95 700.76C1058.76 699.24 1056.08 698.47 1059.3 698.46C1077.49 698.36 1089.58 713.29 1089.58 731.65C1089.58 750.01 1080 764.84 1058.76 764.87C1055.63 764.88 1058.83 764.03 1056.04 762.55C1054.19 761.57 1052.2 760.87 1050.13 760.56C1035.49 758.34 1023.06 768.94 1023.06 768.94C1023.06 768.94 1023.04 768.91 1023.03 768.91Z" class="change-color-in-svg" fill="#4D61FC"/>
<g opacity="0.3">
<path opacity="0.3" d="M1023.03 768.91C1015.37 774.8 1004.26 777.75 996.76 777.75C977.96 777.75 968.94 757.11 968.94 731.64C968.94 706.16 978.1 685.49 996.9 685.51C1002.05 685.51 1015.67 687.97 1023.07 694.4C1023.07 694.4 1034.09 704.64 1047.95 703.39C1050.78 703.13 1053.46 702.11 1055.95 700.76C1058.76 699.24 1056.08 698.47 1059.3 698.46C1077.49 698.36 1089.58 713.29 1089.58 731.65C1089.58 750.01 1080 764.84 1058.76 764.87C1055.63 764.88 1058.83 764.03 1056.04 762.55C1054.19 761.57 1052.2 760.87 1050.13 760.56C1035.49 758.34 1023.06 768.94 1023.06 768.94C1023.06 768.94 1023.04 768.91 1023.03 768.91Z" fill="black"/>
</g>
<path d="M1015.82 768.91C1008.16 774.8 1003.26 777.77 995.76 777.77C976.96 777.77 961.73 757.11 961.73 731.64C961.73 706.16 976.97 685.51 995.76 685.51C1000.89 685.51 1010.22 688.81 1015.85 694.4C1015.85 694.4 1026.87 704.64 1040.73 703.39C1043.56 703.13 1046.24 702.11 1048.73 700.76C1051.54 699.24 1054.61 698.4 1057.83 698.4C1071.38 698.4 1082.36 713.29 1082.36 731.65C1082.36 750.01 1071.38 764.9 1057.83 764.9C1054.7 764.9 1051.61 764.03 1048.82 762.56C1046.97 761.58 1044.98 760.88 1042.91 760.57C1028.27 758.35 1015.84 768.95 1015.84 768.95C1015.84 768.95 1015.83 768.91 1015.82 768.91Z" class="change-color-in-svg" fill="#4D61FC"/>
<g opacity="0.15">
<path opacity="0.15" d="M1015.82 768.91C1008.16 774.8 1003.26 777.77 995.76 777.77C976.96 777.77 961.73 757.11 961.73 731.64C961.73 706.16 976.97 685.51 995.76 685.51C1000.89 685.51 1010.22 688.81 1015.85 694.4C1015.85 694.4 1026.87 704.64 1040.73 703.39C1043.56 703.13 1046.24 702.11 1048.73 700.76C1051.54 699.24 1054.61 698.4 1057.83 698.4C1071.38 698.4 1082.36 713.29 1082.36 731.65C1082.36 750.01 1071.38 764.9 1057.83 764.9C1054.7 764.9 1051.61 764.03 1048.82 762.56C1046.97 761.58 1044.98 760.88 1042.91 760.57C1028.27 758.35 1015.84 768.95 1015.84 768.95C1015.84 768.95 1015.83 768.91 1015.82 768.91Z" fill="white"/>
</g>
<path d="M1154.82 718.93L1188.52 716.89C1189.81 716.81 1190.91 717.81 1190.95 719.1L1191.49 734.69C1191.53 735.98 1190.51 737.05 1189.22 737.06L1155.46 737.34C1154.22 737.35 1153.19 736.37 1153.15 735.13L1152.67 721.31C1152.62 720.06 1153.58 719.01 1154.82 718.93Z" class="change-color-in-svg" fill="#4D61FC"/>
<path d="M1154.82 718.93L1188.52 716.89C1189.81 716.81 1190.91 717.81 1190.95 719.1L1191.49 734.69C1191.53 735.98 1190.51 737.05 1189.22 737.06L1155.46 737.34C1154.22 737.35 1153.19 736.37 1153.15 735.13L1152.67 721.31C1152.62 720.06 1153.58 719.01 1154.82 718.93Z" fill="black"/>
<path d="M1184.72 717.02L1151.02 719.06C1149.78 719.14 1148.82 720.19 1148.87 721.43L1149.35 735.25C1149.39 736.49 1150.42 737.47 1151.66 737.46L1185.42 737.18C1186.71 737.17 1187.74 736.1 1187.69 734.81L1187.15 719.22C1187.1 717.94 1186 716.94 1184.72 717.02ZM1176.57 732.94L1156.51 733.63C1155.41 733.67 1154.48 732.8 1154.44 731.7C1154.4 730.6 1155.27 729.67 1156.37 729.63L1176.43 728.94C1177.53 728.9 1178.46 729.77 1178.5 730.87C1178.54 731.98 1177.67 732.9 1176.57 732.94ZM1176.33 725.86L1156.27 726.55C1155.17 726.59 1154.24 725.72 1154.2 724.62C1154.16 723.52 1155.03 722.59 1156.13 722.55L1176.19 721.86C1177.29 721.82 1178.22 722.69 1178.26 723.79C1178.29 724.9 1177.43 725.83 1176.33 725.86Z" fill="#21252B"/>
<path d="M982.14 722.149H975.99V746.539H982.14V722.149Z" fill="black"/>
<path d="M1035.02 751.299C1045.23 751.299 1053.51 743.021 1053.51 732.809C1053.51 722.598 1045.23 714.319 1035.02 714.319C1024.81 714.319 1016.53 722.598 1016.53 732.809C1016.53 743.021 1024.81 751.299 1035.02 751.299Z" class="change-color-in-svg" fill="#4D61FC"/>
<path d="M1153.85 734.879L1044.45 739.199L1044.16 725.389L1153.85 721.359V734.879Z" class="change-color-in-svg" fill="#4D61FC"/>
<path d="M1153.85 734.879L1043.79 740.139L1044.16 725.389L1153.85 721.359V734.879Z" fill="#21252B"/>
<path d="M1035.02 744.81C1041.65 744.81 1047.02 739.437 1047.02 732.81C1047.02 726.182 1041.65 720.81 1035.02 720.81C1028.39 720.81 1023.02 726.182 1023.02 732.81C1023.02 739.437 1028.39 744.81 1035.02 744.81Z" fill="black"/>
<path d="M1160.25 711.33L1161.36 743.55" stroke="black" stroke-miterlimit="10"/>
<path d="M1170.87 710.97L1171.98 743.19" stroke="black" stroke-miterlimit="10"/>
<path d="M1161.36 745.34C1162.35 745.34 1163.15 744.538 1163.15 743.55C1163.15 742.561 1162.35 741.76 1161.36 741.76C1160.37 741.76 1159.57 742.561 1159.57 743.55C1159.57 744.538 1160.37 745.34 1161.36 745.34Z" fill="black"/>
<path d="M1171.98 744.979C1172.97 744.979 1173.77 744.178 1173.77 743.189C1173.77 742.201 1172.97 741.399 1171.98 741.399C1170.99 741.399 1170.19 742.201 1170.19 743.189C1170.19 744.178 1170.99 744.979 1171.98 744.979Z" fill="black"/>
<path d="M1160.25 713.12C1161.24 713.12 1162.04 712.319 1162.04 711.33C1162.04 710.341 1161.24 709.54 1160.25 709.54C1159.26 709.54 1158.46 710.341 1158.46 711.33C1158.46 712.319 1159.26 713.12 1160.25 713.12Z" fill="black"/>
<path d="M1170.87 712.76C1171.86 712.76 1172.66 711.958 1172.66 710.97C1172.66 709.981 1171.86 709.18 1170.87 709.18C1169.88 709.18 1169.08 709.981 1169.08 710.97C1169.08 711.958 1169.88 712.76 1170.87 712.76Z" fill="black"/>
<path d="M982.141 733.41L1151.29 726.74" stroke="black" stroke-miterlimit="10"/>
<path d="M982.141 736.95L1151.29 729.75" stroke="black" stroke-miterlimit="10"/>
<path d="M982.141 740.49L1151.29 732.12L1151.18 724.09L982.141 729.87" stroke="black" stroke-miterlimit="10"/>
<path d="M1041.64 662.289V695.889C1041.64 696.199 1041.39 696.449 1041.08 696.449C1040.77 696.449 1040.52 696.199 1040.52 695.889V662.249L1041.64 662.289Z" fill="#21252B"/>
<path d="M1043.05 662.289V678.179C1043.05 678.489 1043.3 678.739 1043.61 678.739C1043.92 678.739 1044.17 678.489 1044.17 678.179V662.239L1043.05 662.289Z" fill="#21252B"/>
<path d="M981.25 862.849L998.68 843.239C999.34 842.499 1000.51 842.559 1001.09 843.369L1005.64 849.739C1006.05 850.319 1006.02 851.109 1005.55 851.649L988.9 870.899C988.29 871.609 987.2 871.609 986.58 870.919L981.25 864.919C980.73 864.309 980.73 863.429 981.25 862.849Z" fill="black"/>
<path d="M1040.01 662.259C1040.01 662.259 1027.88 657.669 1026.84 648.959L1027.02 644.059C1027.02 644.059 1025.4 643.129 1023.5 640.719C1022.41 639.329 1021.4 637.149 1021.4 637.149C1018.69 637.739 1018.12 645.369 1018.3 648.249C1018.71 654.689 1020.57 662.029 1040.01 662.259Z" class="change-color-in-svg" fill="#4D61FC"/>
<path opacity="0.15" d="M1040.01 662.259C1040.01 662.259 1027.88 657.669 1026.84 648.959L1027.02 644.059C1027.02 644.059 1025.35 643.139 1023.5 640.719C1022.43 639.319 1021.4 637.149 1021.4 637.149C1018.69 637.739 1018.12 645.369 1018.3 648.249C1018.71 654.689 1020.57 662.029 1040.01 662.259Z" fill="black"/>
<path d="M1019.92 885.399V912.609L1024.97 920.399L1038.71 909.189L1041.31 884.909L1019.92 885.399Z" fill="#F79898"/>
<path d="M1019.92 901.04V912.61L1024.97 920.4L1038.71 909.19L1039.55 901.29L1019.92 901.04Z" fill="white"/>
<path d="M1019.16 882.24L1046.43 882.229C1047.33 882.229 1048.03 882.99 1047.97 883.88L1047.44 891.229C1047.38 892.019 1046.73 892.639 1045.94 892.659L1019.17 893.34C1018.3 893.36 1017.59 892.659 1017.59 891.789L1017.62 883.77C1017.62 882.92 1018.31 882.24 1019.16 882.24Z" fill="black"/>
<path d="M1019.92 908.199L1016.45 913.689L1019.92 914.089V908.199Z" fill="#21252B"/>
<path d="M1037.32 922.38L1036.95 927.93L1013.32 942.82C1009.25 945.39 1004.54 946.07 999.731 946.11L994.721 946.16C988.491 945.36 988.951 937.32 988.951 937.32L993.531 941.43L1007.5 940.21L1037.32 922.38Z" fill="white"/>
<path d="M988.771 934.67C989.121 932.38 990.761 930.51 992.981 929.85L1003.82 926.65L1008.8 916.44C1010.34 913.28 1013.7 911.44 1017.19 911.83C1020.58 912.21 1023.39 914.61 1024.28 917.9L1024.96 920.41L1035.27 907.77C1035.64 907.32 1036.19 907.06 1036.78 907.06H1038.94L1037.32 922.39L1013.33 937.51C1009.26 940.08 1004.55 941.46 999.741 941.51L994.731 941.56C991.051 941.58 988.211 938.31 988.771 934.67Z" fill="#21252B"/>
<path d="M999.071 928.05C999.071 928.05 997.621 931.46 1001.08 932.83C1004.55 934.21 1016.14 931.13 1024.97 920.39C1024.97 920.39 1024.19 913.56 1018.6 912.1C1013.02 910.64 1009.5 914.33 1008.21 917.64C1007.67 919.04 1006.78 920.59 1006.09 921.98C1004.83 924.55 1003.81 926.65 1003.81 926.65L999.071 928.05Z" fill="black"/>
<path d="M1009.39 925.829C1009.62 925.829 1009.83 925.699 1009.92 925.479C1010.04 925.189 1009.91 924.849 1009.61 924.719L1005.57 923.029C1005.39 923.399 1005.22 923.739 1005.06 924.069L1009.16 925.789C1009.24 925.819 1009.32 925.829 1009.39 925.829Z" fill="white"/>
<path d="M1009.39 925.829C1009.62 925.829 1009.83 925.699 1009.92 925.479C1010.04 925.189 1009.91 924.849 1009.61 924.719L1005.57 923.029C1005.39 923.399 1005.22 923.739 1005.06 924.069L1009.16 925.789C1009.24 925.819 1009.32 925.829 1009.39 925.829Z" fill="white"/>
<path d="M1012.03 922.69C1012.26 922.69 1012.47 922.56 1012.56 922.34C1012.68 922.05 1012.55 921.71 1012.25 921.58L1007.34 919.52C1007.17 919.87 1006.99 920.209 1006.81 920.549L1011.8 922.64C1011.88 922.68 1011.95 922.69 1012.03 922.69Z" fill="white"/>
<path d="M1012.03 922.69C1012.26 922.69 1012.47 922.56 1012.56 922.34C1012.68 922.05 1012.55 921.71 1012.25 921.58L1007.34 919.52C1007.17 919.87 1006.99 920.209 1006.81 920.549L1011.8 922.64C1011.88 922.68 1011.95 922.69 1012.03 922.69Z" fill="white"/>
<path d="M1015.02 919.7C1014.95 919.7 1014.87 919.69 1014.8 919.65L1008.51 917.01L1009.03 915.979L1015.25 918.58C1015.54 918.7 1015.68 919.04 1015.56 919.34C1015.46 919.57 1015.25 919.7 1015.02 919.7Z" fill="white"/>
<path opacity="0.15" d="M1083.94 694.969L1083.91 711.629C1083.91 711.629 1082.82 709.949 1081.9 708.889C1081.9 708.889 1081.19 708.049 1080.94 707.769C1080.78 707.589 1080.29 707.079 1080.29 707.079L1082.25 694.829C1082.32 694.419 1082.67 694.119 1083.09 694.119C1083.56 694.119 1083.94 694.499 1083.94 694.969Z" fill="black"/>
<path d="M921.38 908.71L923.44 915.38C923.78 916.48 923.08 917.64 921.95 917.85L859.11 929.68L856.45 915.35L919.29 907.37C920.22 907.24 921.11 907.81 921.38 908.71Z" class="change-color-in-svg" fill="#4D61FC"/>
<g opacity="0.3">
<path opacity="0.3" d="M921.38 908.71L923.44 915.38C923.78 916.48 923.08 917.64 921.95 917.85L859.11 929.68L856.45 915.35L919.29 907.37C920.22 907.24 921.11 907.81 921.38 908.71Z" fill="white"/>
</g>
<path d="M859.155 929.691C860.838 929.377 861.604 925.91 860.865 921.946C860.127 917.983 858.163 915.024 856.48 915.337C854.797 915.651 854.031 919.118 854.77 923.082C855.509 927.045 857.472 930.004 859.155 929.691Z" class="change-color-in-svg" fill="#4D61FC"/>
<path opacity="0.3" d="M859.155 929.691C860.838 929.377 861.604 925.91 860.865 921.946C860.127 917.983 858.163 915.024 856.48 915.337C854.797 915.651 854.031 919.118 854.77 923.082C855.509 927.045 857.472 930.004 859.155 929.691Z" fill="black"/>
<g opacity="0.3">
<path opacity="0.3" d="M861.1 924.01L882.38 920.01C884.07 919.69 885.65 918.94 886.95 917.82C888.19 916.76 889.69 916.07 891.31 915.83L899.16 914.65C899.47 914.6 899.68 914.31 899.64 914.01C899.59 913.7 899.3 913.49 899 913.53L891.15 914.71C889.33 914.98 887.62 915.76 886.22 916.96C885.07 917.95 883.67 918.62 882.18 918.9L861 922.88L861.1 924.01Z" fill="black"/>
</g>
<g opacity="0.3">
<path opacity="0.3" d="M891.96 920.71C891.99 920.71 892.02 920.71 892.05 920.7L923.5 915.64C923.5 915.64 923.47 915.51 923.46 915.47C923.4 915.24 923.18 914.55 923.18 914.55L891.87 919.59C891.56 919.64 891.35 919.93 891.4 920.24C891.45 920.51 891.69 920.71 891.96 920.71Z" fill="black"/>
</g>
<g opacity="0.3">
<path opacity="0.3" d="M860.509 920.49L874.049 918.16C874.359 918.11 874.569 917.81 874.509 917.5C874.459 917.19 874.169 916.99 873.849 917.04L860.149 919.4L860.509 920.49Z" fill="black"/>
</g>
<path d="M889.091 911.63C858.971 908.65 861.89 878.96 861.89 878.96C861.89 878.96 863.84 882.93 869.39 885.77C869.39 885.77 860.39 871.71 863.43 855.53C863.43 855.53 865.24 860.55 872.95 863.37C872.95 863.37 861.87 827.14 894.58 807.19C894.58 807.19 887.59 819.78 897.31 833.45C906 845.67 908.14 845.62 905.71 862.16C905.71 862.16 909.7 847.9 922.71 849.92C922.71 849.92 913.74 852.27 917.49 862.82C922.7 877.43 929.171 915.6 889.091 911.63Z" fill="white"/>
<path d="M889.09 911.631C889.09 911.631 874.14 911.141 872.03 882.031C872.03 882.031 876.89 883.101 878.52 888.721C878.52 888.721 879.97 879.981 874.89 874.011C869.81 868.041 869.86 865.371 869.86 865.371C869.86 865.371 875.53 868.751 881.07 868.781C881.07 868.781 876.37 864.531 878.1 854.631C879.83 844.731 887.49 831.131 887.49 831.131C887.49 831.131 885.03 843.971 897.02 853.051C909.01 862.131 900.94 882.511 900.94 882.511C900.94 882.511 905.28 866.541 912.42 861.651C912.42 861.651 910.76 867.781 915.02 876.501C920.77 888.271 916.21 916.861 889.09 911.631Z" class="change-color-in-svg" fill="#4D61FC"/>
<path d="M911.43 844.851C911.11 842.911 911.46 839.631 914.45 834.471C914.45 834.471 913.95 838.181 914.62 840.441C915.32 842.791 915.64 843.661 915.46 844.821C915.09 847.161 911.81 847.191 911.43 844.851Z" class="change-color-in-svg" fill="#4D61FC"/>
<path d="M932.86 856.011C931.82 861.471 927.72 859.711 925.42 861.661C923.12 863.611 925.58 869.061 925.58 869.061C925.58 869.061 926.5 866.121 929.69 865.141C935.14 863.461 932.86 856.011 932.86 856.011Z" class="change-color-in-svg" fill="#4D61FC"/>
<path d="M851.05 857.271C849.47 855.961 846.91 852.501 849.79 844.961C849.79 844.961 848.48 849.131 851.62 851.331C854.37 853.261 855.44 856.461 853.57 857.571C852.78 858.031 851.76 857.861 851.05 857.271Z" class="change-color-in-svg" fill="#4D61FC"/>
<path d="M857.96 879.42C855.58 879.45 852.62 877.35 851.5 872.42C851.5 872.42 854.55 874.95 857.02 875.25C860.62 875.69 859.57 879.4 857.96 879.42Z" class="change-color-in-svg" fill="#4D61FC"/>
<path d="M867.66 910.521L865.6 917.191C865.26 918.291 865.95 919.451 867.09 919.661L929.93 931.491L932.59 917.161L869.75 909.181C868.82 909.051 867.94 909.621 867.66 910.521Z" class="change-color-in-svg" fill="#4D61FC"/>
<g opacity="0.5">
<path opacity="0.5" d="M867.66 910.521L865.6 917.191C865.26 918.291 865.95 919.451 867.09 919.661L929.93 931.491L932.59 917.161L869.75 909.181C868.82 909.051 867.94 909.621 867.66 910.521Z" fill="white"/>
</g>
<path d="M934.336 924.859C935.074 920.895 934.309 917.428 932.626 917.114C930.942 916.8 928.979 919.759 928.241 923.723C927.502 927.686 928.268 931.154 929.951 931.467C931.634 931.781 933.597 928.822 934.336 924.859Z" class="change-color-in-svg" fill="#4D61FC"/>
<path opacity="0.3" d="M934.336 924.859C935.074 920.895 934.309 917.428 932.626 917.114C930.942 916.8 928.979 919.759 928.241 923.723C927.502 927.686 928.268 931.154 929.951 931.467C931.634 931.781 933.597 928.822 934.336 924.859Z" fill="black"/>
<g opacity="0.3">
<path opacity="0.3" d="M927.949 925.821L906.669 921.821C904.979 921.501 903.399 920.751 902.099 919.631C900.859 918.571 899.359 917.881 897.739 917.641L889.889 916.461C889.579 916.411 889.369 916.121 889.409 915.821C889.459 915.511 889.749 915.301 890.049 915.341L897.899 916.521C899.719 916.791 901.429 917.571 902.829 918.771C903.979 919.761 905.379 920.431 906.869 920.711L928.049 924.691L927.949 925.821Z" fill="black"/>
</g>
<g opacity="0.3">
<path opacity="0.3" d="M897.08 922.52C897.05 922.52 897.02 922.52 896.99 922.51L865.54 917.45C865.54 917.45 865.57 917.32 865.58 917.28C865.64 917.05 865.86 916.36 865.86 916.36L897.17 921.4C897.48 921.45 897.69 921.74 897.64 922.05C897.6 922.32 897.36 922.52 897.08 922.52Z" fill="black"/>
</g>
<g opacity="0.3">
<path opacity="0.3" d="M928.54 922.3L915 919.97C914.69 919.92 914.48 919.62 914.54 919.31C914.59 919 914.88 918.8 915.2 918.85L928.9 921.21L928.54 922.3Z" fill="black"/>
</g>
<path opacity="0.15" d="M969.05 798.56L958.62 782.41L977.86 798.56H969.05Z" fill="black"/>
<path d="M535.18 692.109L374.335 878.163L375.091 878.817L535.936 692.763L535.18 692.109Z" fill="black"/>
<path d="M535.57 692.461C535.57 692.461 612.28 713.461 704.72 691.021L580.32 878.47H399.69L535.57 692.461Z" class="change-color-in-svg" fill="#4D61FC"/>
<path d="M704.72 691.021L807.21 878.47H580.32L704.72 691.021Z" class="change-color-in-svg" fill="#4D61FC"/>
<path opacity="0.3" d="M704.72 691.021L807.21 878.47H580.32L704.72 691.021Z" fill="white"/>
<path d="M704.721 691.021L695.761 702.57H712.321L704.721 691.021Z" class="change-color-in-svg" fill="#4D61FC"/>
<path opacity="0.5" d="M704.721 691.021L695.761 702.57H712.321L704.721 691.021Z" fill="black"/>
<path opacity="0.3" d="M699.77 702.57C699.77 702.57 677.17 816.84 625.83 865.1C625.83 865.1 642.63 869.68 647.75 878.48C647.75 878.48 693.73 821.92 704.72 721.28C715.71 821.91 761.69 878.48 761.69 878.48C766.81 869.68 783.61 865.1 783.61 865.1C732.27 816.84 709.67 702.57 709.67 702.57H699.77Z" fill="white"/>
<path d="M559.37 878.47L565.75 870.24H638.33C638.33 870.24 645.59 874.14 647.75 878.47H559.37Z" class="change-color-in-svg" fill="#4D61FC"/>
<path d="M807.211 878.47L802.421 870.24H771.131C771.131 870.24 763.871 874.14 761.711 878.47H807.211Z" class="change-color-in-svg" fill="#4D61FC"/>
<g opacity="0.3">
<path opacity="0.3" d="M399.69 878.47L405.7 870.24H638.33C638.33 870.24 645.59 874.14 647.75 878.47H399.69Z" fill="black"/>
<path opacity="0.3" d="M807.211 878.47L802.421 870.24H771.131C771.131 870.24 763.871 874.14 761.711 878.47H807.211Z" fill="black"/>
</g>
<path d="M565.38 871.54L564.59 870.92L704.75 690.16L705.13 690.74L822.07 869.97L821.23 870.52L704.68 691.88L565.38 871.54Z" fill="black"/>
<path opacity="0.5" d="M546.53 748.61C552.72 750.34 575.62 755.54 608.33 749C610.7 748.53 612.39 751.24 610.9 753.15L567.9 807.96C567.41 808.59 566.65 808.95 565.86 808.95H503.65C501.5 808.95 500.28 806.48 501.58 804.77L543.76 749.53C544.41 748.69 545.5 748.32 546.53 748.61Z" fill="black"/>
<path opacity="0.4" d="M547.69 754.64C552.64 756.02 570.96 760.19 597.12 754.95C599.02 754.57 600.37 756.74 599.17 758.27L564.78 802.11C564.39 802.61 563.78 802.91 563.14 802.91H513.38C511.66 802.91 510.68 800.94 511.73 799.57L545.47 755.38C545.99 754.7 546.87 754.41 547.69 754.64Z" fill="white"/>
<path d="M608.36 759.94L583.57 757.87C576.28 757.22 568.94 757.26 561.66 757.99L542.17 759.93C536.98 759.93 532.771 755.72 532.771 750.53C532.771 745.34 536.98 741.13 542.17 741.13L562.581 742.99C568.951 743.57 575.36 743.63 581.75 743.16L607.91 741.13L608.36 759.94Z" class="change-color-in-svg" fill="#4D61FC"/>
<path opacity="0.3" d="M608.36 759.94L583.57 757.87C576.28 757.22 568.94 757.26 561.66 757.99L542.17 759.93C536.98 759.93 532.771 755.72 532.771 750.53C532.771 745.34 536.98 741.13 542.17 741.13L562.581 742.99C568.951 743.57 575.36 743.63 581.75 743.16L607.91 741.13L608.36 759.94Z" fill="white"/>
<path d="M607.78 751.64C609.27 752.37 611.94 751.32 611.93 748.75C611.92 747.1 610.53 745.74 608.92 745.42C606.38 744.91 604.08 746.54 603.53 749.08C603.01 751.3 604.21 753.82 606 754.9C607.5 755.81 609.15 755.91 610.79 755.28C614.16 753.97 616.45 750.56 615.39 746.55C614.51 743.24 611.34 741.03 607.91 741.13C602.44 741.3 598.15 746.13 598.88 751.79C599.43 756.01 602.88 759.39 607.1 759.87C612.78 760.51 618.48 756.59 619.32 750.53L615.48 749.99" class="change-color-in-svg" fill="#4D61FC"/>
<g opacity="0.5">
<g opacity="0.5">
<path opacity="0.5" d="M607.78 751.64C609.27 752.37 611.94 751.32 611.93 748.75C611.92 747.1 610.53 745.74 608.92 745.42C606.38 744.91 604.08 746.54 603.53 749.08C603.01 751.3 604.21 753.82 606 754.9C607.5 755.81 609.15 755.91 610.79 755.28C614.16 753.97 616.45 750.56 615.39 746.55C614.51 743.24 611.34 741.03 607.91 741.13C602.44 741.3 598.15 746.13 598.88 751.79C599.43 756.01 602.88 759.39 607.1 759.87C612.78 760.51 618.48 756.59 619.32 750.53L615.48 749.99" fill="white"/>
</g>
</g>
<path d="M554.7 878.471V855.671C554.7 854.821 555.39 854.141 556.23 854.141H558.01C558.78 854.141 559.43 854.711 559.53 855.481L560.26 861.021L561.26 856.391C561.41 855.681 562.04 855.181 562.76 855.181H563.98C564.83 855.181 565.51 855.871 565.51 856.711V878.471H554.7Z" class="change-color-in-svg" fill="#4D61FC"/>
<path d="M820.98 878.471V852.201C820.98 851.751 821.34 851.391 821.79 851.391H824.901C825.321 851.391 825.671 851.711 825.711 852.131L826.54 861.021L827.531 855.071C827.611 854.611 828.06 854.311 828.51 854.411L831.16 855.031C831.53 855.121 831.79 855.441 831.79 855.821V878.471H820.98Z" class="change-color-in-svg" fill="#4D61FC"/>
<path d="M369.28 878.471V855.671C369.28 854.821 369.97 854.141 370.81 854.141H372.59C373.36 854.141 374.01 854.711 374.11 855.481L374.84 861.021L375.84 856.391C375.99 855.681 376.62 855.181 377.34 855.181H378.56C379.41 855.181 380.09 855.871 380.09 856.711V878.471H369.28Z" class="change-color-in-svg" fill="#4D61FC"/>
<g opacity="0.5">
<path opacity="0.5" d="M554.7 878.471V855.671C554.7 854.821 555.39 854.141 556.23 854.141H558.01C558.78 854.141 559.43 854.711 559.53 855.481L560.26 861.021L561.26 856.391C561.41 855.681 562.04 855.181 562.76 855.181H563.98C564.83 855.181 565.51 855.871 565.51 856.711V878.471H554.7Z" fill="black"/>
<path opacity="0.5" d="M369.28 878.471V855.671C369.28 854.821 369.97 854.141 370.81 854.141H372.59C373.36 854.141 374.01 854.711 374.11 855.481L374.84 861.021L375.84 856.391C375.99 855.681 376.62 855.181 377.34 855.181H378.56C379.41 855.181 380.09 855.871 380.09 856.711V878.471H369.28Z" fill="black"/>
<path opacity="0.5" d="M820.98 878.471V852.201C820.98 851.751 821.34 851.391 821.79 851.391H824.901C825.321 851.391 825.671 851.711 825.711 852.131L826.54 861.021L827.531 855.071C827.611 854.611 828.06 854.311 828.51 854.411L831.16 855.031C831.53 855.121 831.79 855.441 831.79 855.821V878.471H820.98Z" fill="black"/>
</g>
<path opacity="0.3" d="M531.64 697.84C531.64 697.84 527.82 732.39 609.67 727.88C659.34 725.14 691.93 700.94 704.71 691.01C704.71 691.01 670.74 700.39 619.33 701.25C582 701.87 554.12 696.11 535.57 692.46L531.64 697.84Z" fill="white"/>
<path opacity="0.5" d="M535.15 692.3C535.15 692.3 532.35 723.21 600.49 719.45C641.84 717.17 664.04 705.11 674.67 696.84C674.67 696.84 652.3 701.39 609.67 701.29C567.04 701.19 535.15 692.3 535.15 692.3Z" fill="white"/>
<path d="M647.75 878.47C647.75 878.47 693.73 821.911 704.72 721.271C715.71 821.901 761.69 878.47 761.69 878.47H647.75Z" fill="black"/>
<path d="M700.88 747.79C700.88 747.79 702.34 739.21 702.77 736.32C703.33 732.59 704.71 721.28 704.71 721.28C704.71 721.28 705.98 731.75 706.49 735.25C706.95 738.38 708.54 747.79 708.54 747.79V878.47H700.87V747.79H700.88Z" class="change-color-in-svg" fill="#4D61FC"/>
<path d="M608.36 760.391C607.93 760.391 607.5 760.371 607.06 760.321C602.64 759.821 599.01 756.26 598.44 751.85C598.07 749.03 598.88 746.291 600.7 744.151C602.5 742.041 605.12 740.771 607.89 740.691C611.56 740.561 614.9 743.001 615.81 746.441C616.1 747.531 616.15 748.6 616 749.62L619.38 750.091C619.62 750.121 619.79 750.351 619.76 750.591C618.99 756.231 614.01 760.391 608.36 760.391ZM608.15 741.581C608.08 741.581 608 741.581 607.93 741.581C605.41 741.661 603.03 742.8 601.39 744.73C599.73 746.68 599 749.17 599.33 751.74C599.85 755.74 603.14 758.98 607.16 759.43C612.7 760.05 617.84 756.26 618.82 750.91L615.83 750.49C615.2 752.79 613.47 754.721 610.95 755.691C609.15 756.391 607.36 756.251 605.77 755.281C603.73 754.041 602.55 751.27 603.09 748.97C603.69 746.18 606.29 744.42 609 744.97C610.91 745.36 612.36 746.98 612.37 748.74C612.38 750 611.78 751.091 610.75 751.751C609.75 752.381 608.5 752.49 607.58 752.04C607.36 751.93 607.27 751.661 607.38 751.441C607.49 751.221 607.76 751.13 607.98 751.24C608.62 751.55 609.55 751.461 610.28 751.001C610.73 750.721 611.49 750.051 611.49 748.761C611.48 747.411 610.34 746.17 608.84 745.86C606.57 745.4 604.48 746.83 603.98 749.18C603.52 751.14 604.52 753.481 606.25 754.531C607.62 755.361 609.1 755.47 610.65 754.87C612.65 754.1 614.51 752.36 615.07 749.98C615.07 749.97 615.07 749.951 615.07 749.941C615.08 749.901 615.09 749.861 615.1 749.831C615.3 748.871 615.28 747.81 614.98 746.67C614.17 743.69 611.33 741.581 608.15 741.581Z" class="change-color-in-svg" fill="#4D61FC"/>
<g opacity="0.5">
<g opacity="0.5">
<g opacity="0.5">
<path opacity="0.5" d="M608.36 760.391C607.93 760.391 607.5 760.371 607.06 760.321C602.64 759.821 599.01 756.26 598.44 751.85C598.07 749.03 598.88 746.291 600.7 744.151C602.5 742.041 605.12 740.771 607.89 740.691C611.56 740.561 614.9 743.001 615.81 746.441C616.1 747.531 616.15 748.6 616 749.62L619.38 750.091C619.62 750.121 619.79 750.351 619.76 750.591C618.99 756.231 614.01 760.391 608.36 760.391ZM608.15 741.581C608.08 741.581 608 741.581 607.93 741.581C605.41 741.661 603.03 742.8 601.39 744.73C599.73 746.68 599 749.17 599.33 751.74C599.85 755.74 603.14 758.98 607.16 759.43C612.7 760.05 617.84 756.26 618.82 750.91L615.83 750.49C615.2 752.79 613.47 754.721 610.95 755.691C609.15 756.391 607.36 756.251 605.77 755.281C603.73 754.041 602.55 751.27 603.09 748.97C603.69 746.18 606.29 744.42 609 744.97C610.91 745.36 612.36 746.98 612.37 748.74C612.38 750 611.78 751.091 610.75 751.751C609.75 752.381 608.5 752.49 607.58 752.04C607.36 751.93 607.27 751.661 607.38 751.441C607.49 751.221 607.76 751.13 607.98 751.24C608.62 751.55 609.55 751.461 610.28 751.001C610.73 750.721 611.49 750.051 611.49 748.761C611.48 747.411 610.34 746.17 608.84 745.86C606.57 745.4 604.48 746.83 603.98 749.18C603.52 751.14 604.52 753.481 606.25 754.531C607.62 755.361 609.1 755.47 610.65 754.87C612.65 754.1 614.51 752.36 615.07 749.98C615.07 749.97 615.07 749.951 615.07 749.941C615.08 749.901 615.09 749.861 615.1 749.831C615.3 748.871 615.28 747.81 614.98 746.67C614.17 743.69 611.33 741.581 608.15 741.581Z" fill="black"/>
</g>
</g>
</g>
<path d="M570.111 757.47C568.111 750.06 572.141 744.81 573.301 743.49L574.391 743.48C574.371 743.53 574.341 743.6 574.311 743.68C574.251 743.82 572.041 748.59 576.371 757.26C576.391 757.3 576.471 757.47 576.471 757.47L575.461 757.451C572.681 751.791 572.591 747.73 572.931 745.44C571.471 747.62 569.481 751.861 571.001 757.341C571.011 757.381 571.031 757.451 571.031 757.451L570.111 757.47Z" fill="black"/>
<path d="M565.51 873.75L554.7 866.17V864.95L565.51 872.53V873.75Z" fill="black"/>
<path d="M554.7 873.71V872.57L565.51 866.68V867.82L554.7 873.71Z" fill="black"/>
<path d="M831.8 873.75L820.98 866.17V864.95L831.8 872.53V873.75Z" fill="black"/>
<path d="M820.98 873.71V872.57L831.8 866.68V867.82L820.98 873.71Z" fill="black"/>
<path d="M273.21 803.31C274.44 801.18 275.99 799.98 277.97 800.24C288.51 801.63 302.65 856.539 302.65 856.539C302.65 856.539 297.13 818.31 305.18 815.63C313.23 812.95 316.67 853.94 316.67 853.94C316.67 853.94 312.26 789.77 326.25 789.77C340.23 789.77 332.76 866.2 332.76 866.2C332.76 866.2 345.44 841.619 353.91 845.039C362.38 848.449 346.88 885.08 346.88 885.08C346.88 885.08 366.44 864.609 383.53 870.549C400.62 876.489 404.08 913.64 404.08 913.64C404.08 913.64 417.22 903.669 428.3 911.219C439.38 918.769 429.31 933.21 429.31 933.21C429.31 933.21 487.13 907.009 518.65 962.859C525.15 974.369 528.66 989.62 530.14 1006.56C530.14 1006.56 553.39 984.309 580.06 1000.8C587.52 1005.41 592.03 1011.62 594.64 1018.17H333.11L273.21 803.31Z" fill="black"/>
<path d="M956.54 697.349L995.51 724.32L1002.14 713.01L981.91 689.479L990.78 684.539L979.48 655.77L954.87 684.53C951.53 688.45 952.3 694.409 956.54 697.349Z" class="change-color-in-svg" fill="#4D61FC"/>
<path d="M1002.14 713.009L1005.37 713.109C1006.58 713.149 1007.8 712.959 1008.94 712.549L1013.17 711.029C1014.15 710.679 1015.19 710.489 1016.23 710.459L1027.13 710.239C1027.76 712.239 1026.52 714.349 1024.46 714.779L1021.28 715.429L1017.76 717.219C1015.64 718.299 1015.47 721.259 1017.46 722.569L1024.51 728.519L1030.14 731.549C1030.95 731.989 1031.37 732.909 1031.17 733.809C1030.89 735.039 1029.59 735.729 1028.41 735.269L1022.87 733.089L1016.54 728.239L1022.49 735.629L1027.1 739.919C1027.71 740.489 1027.86 741.399 1027.47 742.139C1026.95 743.109 1025.7 743.399 1024.8 742.769L1018.15 738.109L1013.4 732.479L1018.15 738.109L1022.62 741.349C1023.22 741.779 1023.29 742.649 1022.78 743.179C1022.42 743.549 1021.87 743.649 1021.4 743.429L1015.45 740.389L1009.69 735.079L1015.45 740.389L1018.18 741.929C1018.64 742.139 1018.81 742.699 1018.56 743.139C1018.33 743.529 1017.85 743.669 1017.45 743.479L1013.51 741.559C1013.51 741.559 1009.84 737.239 1007.37 735.559C1004.9 733.879 1002.01 729.219 999.53 727.019C997.06 724.819 995.54 724.319 995.54 724.319L1002.14 713.009Z" fill="#F79898"/>
<path opacity="0.15" d="M1013.38 732.49L1018.13 738.12L1021.84 740.72" stroke="black" stroke-width="0.6" stroke-miterlimit="10" stroke-linecap="round" stroke-linejoin="round"/>
<path opacity="0.15" d="M1009.67 735.08L1015.43 740.4L1018.15 741.94" stroke="black" stroke-width="0.6" stroke-miterlimit="10" stroke-linecap="round" stroke-linejoin="round"/>
<path d="M1074.71 742.75L1104.27 753.31C1109.87 755.04 1115.54 750.86 1115.54 745L1114.76 736.74L1084.48 738.41L1074.71 742.75Z" class="change-color-in-svg" fill="#4D61FC"/>
<path d="M1070.75 742.51L1069.32 739.83L1069.52 734.68L1070.05 732.29C1070.12 731.96 1070.37 731.7 1070.69 731.6C1071.34 731.4 1071.97 731.94 1071.88 732.61L1071.7 733.97L1072.97 739.6L1071.7 733.97L1072.28 729.67C1072.33 729.27 1072.6 728.93 1072.97 728.77C1073.65 728.48 1074.42 728.91 1074.54 729.64L1075.03 732.67L1077.19 737.89L1075.03 732.67L1074.09 726.73C1073.99 726.11 1074.34 725.5 1074.93 725.28C1075.53 725.05 1076.2 725.28 1076.53 725.83L1079.49 730.63L1082 737.85L1079.49 730.63L1077.16 726.85C1076.74 726.16 1076.97 725.26 1077.67 724.87C1078.23 724.55 1078.94 724.65 1079.39 725.12L1083.86 729.74L1086.47 736.02L1087.49 739.13C1087.63 739.56 1087.56 740.04 1087.31 740.42L1087.09 740.74C1086.73 741.26 1086.16 741.6 1085.53 741.66L1084.35 741.77C1084.11 741.79 1083.87 741.85 1083.64 741.95L1081.16 743.01C1080.76 743.18 1080.31 743.24 1079.87 743.17L1079.1 743.05C1078.42 742.94 1077.72 743.14 1077.2 743.59C1076.69 744.04 1076 744.24 1075.33 744.14L1073.67 743.9L1072.48 743.75C1071.76 743.63 1071.11 743.18 1070.75 742.51Z" fill="#F79898"/>
<path opacity="0.15" d="M1072.97 739.61L1071.7 733.98L1071.89 732.62" stroke="black" stroke-width="0.6" stroke-miterlimit="10" stroke-linecap="round" stroke-linejoin="round"/>
<path opacity="0.15" d="M1074.55 729.641L1075.04 732.671L1077.2 737.891" stroke="black" stroke-width="0.6" stroke-miterlimit="10" stroke-linecap="round" stroke-linejoin="round"/>
<path opacity="0.15" d="M1077.19 726.851L1079.51 730.631L1081.41 736.111" stroke="black" stroke-width="0.6" stroke-miterlimit="10" stroke-linecap="round" stroke-linejoin="round"/>
<path d="M1087.34 740.41L1089.86 737.94L1086.8 738.05L1087.34 740.41Z" fill="#F79898"/>
<path opacity="0.15" d="M1089.86 737.94L1115.05 739.87L1114.76 736.75L1089.86 737.94Z" fill="black"/>
<path opacity="0.15" d="M1001.8 673.38C1001.38 673.38 1001.03 673.68 1000.96 674.09L999.04 684.89C991.31 684.31 976.22 687.34 974.78 687.72C974.36 687.83 974.04 688.15 974.07 688.58V688.59C974.1 689.07 974.54 689.4 975.01 689.33C979.82 688.63 981.92 689.47 981.92 689.47C990.63 684.14 999.12 685.61 999.12 685.61C999.12 685.61 999.93 685.7 1000.17 685.73C1001.77 685.92 1002.66 686.08 1002.66 686.08V674.24C1002.65 673.76 1002.27 673.38 1001.8 673.38Z" fill="black"/>
<path opacity="0.15" d="M995.51 724.32C995.51 724.32 996.72 724.79 998.31 726.03L1003.84 715.02C1003.84 715.02 1007.72 715.58 1010.29 714.33C1012.86 713.08 1014.11 711.54 1016.05 711.54C1017.99 711.54 1027.29 711.54 1027.29 711.54L1027.13 710.25C1027.13 710.25 1020.15 710.14 1015.76 710.5C1014.08 710.63 1012.79 711.19 1012.39 711.32C1010.14 712.06 1009.52 712.58 1007.62 712.95C1005.64 713.33 1003.73 712.99 1002.15 713.02L995.51 724.32Z" fill="black"/>
</svg>